v 0.001932872 -0.001918506 0.001147051
v 0.001432257 -0.002018629 0.001247174
v 0.001932872 -0.001918506 0.001147051
v 0.001832749 -0.001918506 0.001247174
v 0.001932872 -0.001918506 0.001147051
v 0.001932872 -0.001918506 0.001147051
v 0.001932873 -0.001918506 0.001147051
v 0.001932872 -0.001918506 0.001147051
v 0.002032996 -0.001818382 0.001247174
v 0.002133118 -0.00171826 0.001247174
v 0.001169545 -0.00193132 0.001358717
v 0.001231656 -0.001958864 0.001354426
v 0.001253152 -0.001904052 0.001345593
v 0.001432257 -0.002018629 0.001247174
v 0.001336532 -0.00197336 0.001357351
v 0.001331112 -0.001914465 0.001338661
v 0.001326893 -0.001865405 0.001342819
v 0.001432257 -0.002018631 0.001247174
v 0.001432257 -0.002018628 0.001247174
v 0.001432258 -0.002018629 0.001247174
v 0.001432257 -0.002018629 0.001247175
v 0.001429704 -0.00191346 0.001338775
v 0.001411926 -0.001856848 0.001340015
v 0.001538098 -0.001905691 0.001342274
v 0.001516213 -0.001846175 0.001338121
v 0.001645663 -0.001896973 0.001348879
v 0.001625427 -0.001839882 0.001337257
v 0.001832748 -0.001918506 0.001247174
v 0.001744972 -0.001891068 0.001358665
v 0.001728238 -0.001838585 0.001341937
v 0.001832749 -0.001918506 0.001247174
v 0.001832749 -0.001918506 0.001247174
v 0.001832749 -0.001918506 0.001247174
v 0.001832749 -0.001918506 0.001247175
v 0.001807507 -0.001843415 0.001347791
v 0.002032995 -0.001818382 0.001247174
v 0.001850235 -0.001845109 0.001350538
v 0.002032996 -0.001818383 0.001247174
v 0.002032996 -0.001818382 0.001247174
v 0.002032996 -0.001818382 0.001247174
v 0.002133117 -0.00171826 0.001247174
v 0.002032996 -0.001818382 0.001247175
v 0.002032996 -0.00171826 0.001347297
v 0.002133118 -0.001718261 0.001247174
v 0.002133118 -0.00171826 0.001247174
v 0.002133119 -0.00171826 0.001247174
v 0.002133118 -0.00171826 0.001247175
v 0.0008971235 -0.001941502 0.001427599
v 0.0009471312 -0.001944238 0.001423212
v 0.001103592 -0.001950965 0.001374628
v 0.0009965501 -0.001969996 0.001422983
v 0.001034815 -0.001947024 0.001400304
v 0.001147243 -0.001966249 0.001365636
v 0.00110121 -0.001914423 0.001384915
v 0.001163468 -0.001991981 0.001380717
v 0.001084663 -0.001982012 0.001396438
v 0.001235117 -0.002009228 0.001388526
v 0.001193724 -0.00187713 0.001369368
v 0.00126942 -0.001862842 0.00135273
v 0.001319628 -0.0020263 0.001397707
v 0.001312717 -0.001831279 0.001359491
v 0.001373752 -0.002001359 0.001372966
v 0.001446398 -0.00197151 0.001363076
v 0.001379538 -0.001811213 0.001360737
v 0.001563746 -0.001956669 0.0013716
v 0.001484884 -0.001778514 0.001363539
v 0.00157752 -0.001694692 0.001391197
v 0.00166563 -0.001943322 0.001380969
v 0.00160287 -0.001771957 0.001351429
v 0.001691712 -0.001692122 0.001371676
v 0.001670534 -0.00160388 0.001417717
v 0.001745167 -0.001932285 0.001391392
v 0.001712722 -0.001771131 0.001346674
v 0.001782437 -0.001903067 0.001373691
v 0.001796134 -0.001694756 0.001366669
v 0.001778711 -0.001609811 0.001392582
v 0.001770264 -0.001522203 0.001430275
v 0.001821225 -0.00187403 0.0013652
v 0.00181703 -0.001781851 0.001356232
v 0.001886547 -0.001696138 0.00138592
v 0.001870127 -0.001612881 0.001390832
v 0.001857118 -0.001532405 0.001413768
v 0.001846598 -0.001461145 0.001443785
v 0.001868866 -0.001843269 0.001365823
v 0.001859285 -0.001823 0.001354738
v 0.001869868 -0.001835727 0.001351624
v 0.002032995 -0.00171826 0.001347298
v 0.001880096 -0.001826274 0.001361901
v 0.001964729 -0.001675768 0.0014329
v 0.001943773 -0.001609402 0.001410627
v 0.001932421 -0.001535546 0.001418432
v 0.001919767 -0.001460609 0.001442697
v 0.002032996 -0.001718261 0.001347298
v 0.002032996 -0.00171826 0.001347298
v 0.002032996 -0.00171826 0.001347298
v 0.002032996 -0.00171826 0.001347298
v 0.001990586 -0.001597049 0.001439044
v 0.001987494 -0.001538888 0.001439047
v 0.001981412 -0.001466717 0.001454398
v 0.0006900437 -0.001735356 0.001570696
v 0.0008841314 -0.001942458 0.001427485
v 0.0007470281 -0.001761688 0.001559334
v 0.0007387386 -0.001714433 0.001555791
v 0.0009005356 -0.001945526 0.001426981
v 0.000888566 -0.001940758 0.001430569
v 0.0008978407 -0.001944809 0.001434111
v 0.0008346333 -0.001781621 0.001542101
v 0.0008180566 -0.001710159 0.001541807
v 0.0009318243 -0.001956051 0.001435701
v 0.000920948 -0.001936655 0.0014425
v 0.0009784816 -0.001979275 0.001468983
v 0.0009261118 -0.001949165 0.001456394
v 0.0009249657 -0.001819456 0.001518745
v 0.000916465 -0.001728417 0.001525075
v 0.0009041078 -0.001658655 0.001544081
v 0.001044926 -0.002000784 0.001439346
v 0.001009748 -0.001908886 0.001430519
v 0.001041019 -0.001826791 0.001465973
v 0.001020132 -0.001738877 0.001502457
v 0.001002535 -0.001659886 0.001533686
v 0.001136132 -0.00202678 0.001433911
v 0.001114744 -0.001859325 0.001409399
v 0.001157415 -0.001793961 0.00143345
v 0.001128049 -0.001736227 0.001476064
v 0.001108642 -0.001661916 0.0015171
v 0.001240237 -0.002059281 0.001447587
v 0.00119453 -0.00182803 0.001396954
v 0.001257895 -0.001827627 0.001376367
v 0.001247559 -0.001777178 0.00141506
v 0.00121732 -0.001733065 0.001453671
v 0.001220323 -0.001662392 0.001497144
v 0.001346074 -0.002074006 0.001455215
v 0.001323901 -0.001781988 0.001390783
v 0.001399962 -0.002025197 0.001400331
v 0.001327638 -0.00169413 0.001454003
v 0.001490576 -0.002012149 0.001404386
v 0.001409756 -0.001743818 0.001398774
v 0.001488754 -0.001713205 0.00140108
v 0.001434204 -0.002054802 0.001439086
v 0.001446408 -0.001675568 0.001438814
v 0.00141765 -0.001620837 0.001486662
v 0.001467027 -0.001557727 0.001516437
v 0.001596196 -0.002004031 0.001422177
v 0.001520369 -0.001665247 0.00142562
v 0.001576583 -0.00162715 0.001433374
v 0.001508934 -0.002053929 0.001453954
v 0.001510004 -0.001606851 0.001469218
v 0.001690711 -0.00197515 0.001418735
v 0.001603498 -0.001556944 0.001468779
v 0.001689402 -0.001518399 0.001457881
v 0.00176732 -0.001965757 0.001439977
v 0.001744863 -0.00147623 0.001459487
v 0.00180587 -0.001912366 0.001397296
v 0.001792072 -0.001459221 0.001453532
v 0.001767051 -0.001434967 0.001475183
v 0.001860703 -0.001873553 0.001400075
v 0.001822917 -0.001411032 0.001474705
v 0.001902114 -0.001797987 0.001401199
v 0.001838735 -0.001921804 0.001434409
v 0.001981725 -0.001743897 0.001474385
v 0.001895601 -0.001395975 0.001474833
v 0.002007827 -0.001669151 0.00148769
v 0.0020125 -0.001611161 0.001473601
v 0.001969534 -0.001388568 0.001484895
v 0.002019164 -0.001548523 0.001470762
v 0.002019954 -0.001480691 0.00147985
v 0.002015128 -0.001410647 0.001496699
v 0.00203366 -0.001562985 0.001504982
v 0.002007638 -0.001355856 0.001517759
v 0.0006559214 -0.001748349 0.001595541
v 0.0006870672 -0.001766483 0.001582329
v 0.0006534147 -0.001718983 0.001599307
v 0.0007148598 -0.001801478 0.001601191
v 0.0007769181 -0.001812611 0.001575609
v 0.0006937973 -0.001692849 0.00158356
v 0.000839896 -0.001851266 0.00156868
v 0.0007664441 -0.001666622 0.001564952
v 0.0008352242 -0.001655371 0.001551509
v 0.0008266172 -0.001892688 0.001614936
v 0.0008151159 -0.001628749 0.00156982
v 0.0008930008 -0.001877105 0.00154203
v 0.0008775781 -0.001612082 0.001570437
v 0.0009948112 -0.002007946 0.001539361
v 0.0009433563 -0.001926397 0.001514294
v 0.0008739318 -0.001906512 0.001579847
v 0.001056695 -0.002032914 0.001497216
v 0.0009755352 -0.001586655 0.001576117
v 0.001064473 -0.001511538 0.001616514
v 0.001155945 -0.002089118 0.00152414
v 0.001085877 -0.001586884 0.001561564
v 0.001137273 -0.00213363 0.001607437
v 0.001166323 -0.001516019 0.001595231
v 0.001143495 -0.001452162 0.001645425
v 0.001265879 -0.002112625 0.001513392
v 0.001187776 -0.00158951 0.001545701
v 0.00126323 -0.001594001 0.001532752
v 0.001220891 -0.002158418 0.001591328
v 0.001273068 -0.001518608 0.001576524
v 0.001233513 -0.001441389 0.001633418
v 0.001344141 -0.002122737 0.001515858
v 0.001300137 -0.001628143 0.001505719
v 0.001355114 -0.001616836 0.001503955
v 0.001398029 -0.00156493 0.00152905
v 0.001307312 -0.002201935 0.001624057
v 0.00130227 -0.002154247 0.001560273
v 0.001328541 -0.001571438 0.001537256
v 0.0013776 -0.001502612 0.001567805
v 0.001348466 -0.001415342 0.001623042
v 0.001432826 -0.0021017 0.001496216
v 0.001442544 -0.001511993 0.001549785
v 0.001498033 -0.001498843 0.00154174
v 0.001413879 -0.002204416 0.001622353
v 0.001382065 -0.002158239 0.001562026
v 0.001476197 -0.001427767 0.00158315
v 0.001446671 -0.001333084 0.001642363
v 0.001523605 -0.002090691 0.001499154
v 0.001539994 -0.001531626 0.001508721
v 0.00158016 -0.002054567 0.001472189
v 0.001520343 -0.002198139 0.001624441
v 0.001497925 -0.002144276 0.001556722
v 0.001570872 -0.001456108 0.001539799
v 0.001585462 -0.001376497 0.001575584
v 0.001549452 -0.001319012 0.00161686
v 0.001672021 -0.00202805 0.001470433
v 0.001597685 -0.001502076 0.001505184
v 0.00164489 -0.001498544 0.001487814
v 0.001702922 -0.001451199 0.00149108
v 0.001626441 -0.002191144 0.001633875
v 0.001612423 -0.002143208 0.001575504
v 0.001598614 -0.002091876 0.001517837
v 0.001636452 -0.001459825 0.001513739
v 0.001672357 -0.001387772 0.001540403
v 0.00166408 -0.001290509 0.001596013
v 0.001761536 -0.002018952 0.001494658
v 0.001767785 -0.001386057 0.001507322
v 0.001730064 -0.002179697 0.001641151
v 0.001720778 -0.002131246 0.00158911
v 0.001699329 -0.002079273 0.001532404
v 0.001781355 -0.001298847 0.001560272
v 0.00175679 -0.001217559 0.001613
v 0.001839339 -0.001966843 0.001485487
v 0.001851794 -0.001346214 0.001512219
v 0.001903376 -0.001886559 0.001462273
v 0.001957068 -0.001818929 0.001474445
v 0.001813283 -0.002168582 0.001653343
v 0.001820347 -0.002118551 0.001610368
v 0.001815734 -0.002047171 0.001548929
v 0.001887794 -0.001278149 0.0015573
v 0.001851581 -0.001209507 0.001608228
v 0.002010491 -0.001794587 0.001533974
v 0.001930585 -0.001331442 0.001515976
v 0.002030306 -0.001701101 0.001543241
v 0.002036265 -0.00160897 0.001537715
v 0.001981496 -0.001328403 0.001524693
v 0.001900318 -0.002109779 0.00164791
v 0.001912551 -0.002041371 0.001597892
v 0.001928415 -0.001952566 0.001542894
v 0.001970903 -0.001866636 0.001519535
v 0.001956211 -0.001281797 0.001563361
v 0.00192189 -0.001232431 0.001599794
v 0.001912016 -0.001178968 0.001642547
v 0.002042755 -0.001542971 0.001544179
v 0.00200109 -0.001310897 0.001559995
v 0.002038687 -0.001500432 0.001520835
v 0.002035821 -0.001427804 0.001528637
v 0.002026124 -0.001364067 0.001542324
v 0.001987916 -0.002025662 0.00164994
v 0.001989114 -0.001970666 0.001603893
v 0.002036879 -0.001874579 0.001598872
v 0.002044256 -0.001498235 0.001571761
v 0.002050934 -0.001945657 0.001644222
v 0.0006253305 -0.001734935 0.001641101
v 0.0005695223 -0.001632033 0.001731251
v 0.0006577337 -0.001776662 0.001625476
v 0.0006347961 -0.001674881 0.001646281
v 0.0006837486 -0.001821215 0.001667159
v 0.0006587184 -0.001591285 0.00168773
v 0.0007653454 -0.00185957 0.001636557
v 0.0007101944 -0.001639207 0.001612311
v 0.0008089787 -0.001907881 0.001660174
v 0.0007733295 -0.001621375 0.001591483
v 0.000756072 -0.001582524 0.00163862
v 0.0007370437 -0.001526412 0.001703424
v 0.0008524731 -0.001930827 0.001641852
v 0.0008277787 -0.001587823 0.001602378
v 0.0008287337 -0.001938412 0.001694055
v 0.0008401797 -0.001525221 0.001662381
v 0.0009002964 -0.001952527 0.001611478
v 0.0009061805 -0.001556627 0.001610858
v 0.0009591657 -0.002013053 0.001629826
v 0.0009785976 -0.001524939 0.001622322
v 0.0009310499 -0.001504857 0.001653079
v 0.001056953 -0.002077036 0.001596489
v 0.001006715 -0.001467853 0.001667816
v 0.001099915 -0.002146934 0.00167703
v 0.001081108 -0.00145167 0.001661354
v 0.001166725 -0.00217683 0.001652314
v 0.001118928 -0.001414207 0.001683248
v 0.001227506 -0.002211678 0.001664707
v 0.001186774 -0.00138233 0.001689922
v 0.001277545 -0.002236689 0.001676359
v 0.001245078 -0.002252518 0.001722982
v 0.001245751 -0.001320651 0.001718726
v 0.001337725 -0.002254293 0.001694051
v 0.001277835 -0.001365643 0.001674522
v 0.001356834 -0.001315134 0.001683382
v 0.001292426 -0.002285302 0.001747237
v 0.001296115 -0.001318297 0.001702153
v 0.001440086 -0.002238486 0.001673928
v 0.001438391 -0.001265346 0.001685608
v 0.001486492 -0.001189544 0.001716546
v 0.001525744 -0.002234766 0.001686165
v 0.001518498 -0.001252318 0.001664261
v 0.001584873 -0.001173929 0.001688449
v 0.00156258 -0.001119188 0.001733839
v 0.001635594 -0.002223188 0.001693639
v 0.001612868 -0.001233464 0.001642384
v 0.001689637 -0.001211112 0.001631084
v 0.001681954 -0.002216347 0.001728943
v 0.00167324 -0.001161672 0.001666994
v 0.001657484 -0.001096627 0.001717959
v 0.001741509 -0.002204237 0.001681631
v 0.001737033 -0.00116595 0.001647145
v 0.001764505 -0.002197628 0.001712261
v 0.001751111 -0.00110761 0.001689397
v 0.001732825 -0.001048778 0.001741754
v 0.001802256 -0.002192106 0.001680786
v 0.001803097 -0.001152757 0.00164807
v 0.001855301 -0.002162285 0.001681245
v 0.001864251 -0.001146609 0.001653635
v 0.001813973 -0.00218657 0.001697025
v 0.001833267 -0.001102948 0.001693312
v 0.001796432 -0.001062274 0.001731484
v 0.001912832 -0.00212791 0.001680467
v 0.00189278 -0.001121818 0.001689537
v 0.001956991 -0.002081239 0.001688838
v 0.002068984 -0.001756395 0.001613591
v 0.002065344 -0.001628098 0.001633976
v 0.002047008 -0.001541141 0.001603138
v 0.001970056 -0.001242897 0.001640209
v 0.001933519 -0.001158715 0.001678852
v 0.001929 -0.002116401 0.001697168
v 0.002011098 -0.001382528 0.001711867
v 0.00200845 -0.002027104 0.001696674
v 0.002086068 -0.001817113 0.001636618
v 0.002038272 -0.001461485 0.001631525
v 0.002015128 -0.001322204 0.001590365
v 0.002049432 -0.001975608 0.001693046
v 0.002106003 -0.001852386 0.001673857
v 0.00204081 -0.001443696 0.001573769
v 0.002032386 -0.001379342 0.001581026
v 0.002028639 -0.002003983 0.00171829
v 0.002118023 -0.001780099 0.00167212
v 0.002119856 -0.001692603 0.001697927
v 0.002029662 -0.001399117 0.001625766
v 0.002010915 -0.001332639 0.001641305
v 0.002081794 -0.001932355 0.001679049
v 0.002080882 -0.001901623 0.00164738
v 0.002084245 -0.001922812 0.001658699
v 0.002095795 -0.00190419 0.001676369
v 0.002146323 -0.001801756 0.001705079
v 0.002161231 -0.001752425 0.001724742
v 0.002173899 -0.001790362 0.001730588
v 0.000510965 -0.001632328 0.001801413
v 0.0005386086 -0.001665778 0.00175133
v 0.0005303945 -0.001581174 0.001793088
v 0.0005743544 -0.001703152 0.001714766
v 0.0005289543 -0.001685998 0.00177643
v 0.0005429797 -0.001525365 0.001814814
v 0.000616682 -0.0017754 0.001707216
v 0.0005841405 -0.001561704 0.001757708
v 0.0006587047 -0.001836152 0.001747782
v 0.0006479307 -0.001512854 0.001757104
v 0.0005868819 -0.00151773 0.00178551
v 0.0007160841 -0.001865778 0.001713156
v 0.0007238641 -0.00147503 0.001756785
v 0.0007592257 -0.00142086 0.001793189
v 0.0007760555 -0.001910338 0.001720949
v 0.000805848 -0.001465351 0.001735212
v 0.0008257621 -0.001957437 0.001751671
v 0.000860422 -0.001387674 0.001790366
v 0.0008810209 -0.001978036 0.001696605
v 0.0009165966 -0.001450443 0.001712399
v 0.0009366843 -0.002040529 0.001745808
v 0.0009655049 -0.001380595 0.00176493
v 0.000941388 -0.001323612 0.001823098
v 0.00101646 -0.002093175 0.001707728
v 0.001000371 -0.001417981 0.00171802
v 0.001077135 -0.002164637 0.001774996
v 0.00106233 -0.001415939 0.001699559
v 0.001044232 -0.001373816 0.00174562
v 0.001026427 -0.001324093 0.00179603
v 0.001161132 -0.00220898 0.001721598
v 0.001113228 -0.001371449 0.00172354
v 0.001190604 -0.002246595 0.001768182
v 0.00116924 -0.001312227 0.001754324
v 0.001140524 -0.002219639 0.001786164
v 0.001092122 -0.001329895 0.001768185
v 0.001245363 -0.002270353 0.001786591
v 0.001239513 -0.001273352 0.001758999
v 0.001295803 -0.00229122 0.001777629
v 0.00127793 -0.001220218 0.001785284
v 0.001310537 -0.002299079 0.001759186
v 0.001306431 -0.001270323 0.001734225
v 0.001332938 -0.002288615 0.001742653
v 0.001390921 -0.00123426 0.001725627
v 0.001329217 -0.00229104 0.001769606
v 0.001344786 -0.001206057 0.001766843
v 0.001403286 -0.002266409 0.001744041
v 0.001421069 -0.001155853 0.001770409
v 0.001497916 -0.001127136 0.001755505
v 0.001524295 -0.002247973 0.001751435
v 0.001540403 -0.001084537 0.001769196
v 0.001605798 -0.002235312 0.001745309
v 0.001562054 -0.002236644 0.001779863
v 0.001622312 -0.002215238 0.001779291
v 0.001609084 -0.001053993 0.001766215
v 0.001676489 -0.001038228 0.001757749
v 0.001656393 -0.001012634 0.001787999
v 0.001711363 -0.002177928 0.001775376
v 0.001711064 -0.001005503 0.001789987
v 0.001783729 -0.002117308 0.001805282
v 0.001816273 -0.002162239 0.001730942
v 0.001779359 -0.00101922 0.001783606
v 0.001890805 -0.002135895 0.001708745
v 0.001987056 -0.001353794 0.001817699
v 0.001859147 -0.00106701 0.001765703
v 0.001868901 -0.002111809 0.001758984
v 0.001854138 -0.00206691 0.001817633
v 0.001929851 -0.002095011 0.001726834
v 0.002017907 -0.001422639 0.001789003
v 0.001976972 -0.001303721 0.001776509
v 0.001915492 -0.001118556 0.001719473
v 0.001983594 -0.00202855 0.001748128
v 0.002049746 -0.001502804 0.001716232
v 0.001983207 -0.001282777 0.001711039
v 0.001961857 -0.001213113 0.001723627
v 0.001944374 -0.00116304 0.001714715
v 0.001915841 -0.002063686 0.001777438
v 0.001957139 -0.001232189 0.001783914
v 0.001936529 -0.001161552 0.001778444
v 0.001915272 -0.00111517 0.001761456
v 0.002044804 -0.001970296 0.001745196
v 0.002101974 -0.001588887 0.001746201
v 0.00209343 -0.001902402 0.001737198
v 0.002146742 -0.001643844 0.00176206
v 0.002059693 -0.001933161 0.001780235
v 0.002076044 -0.001524357 0.001783402
v 0.002150323 -0.001823126 0.00174073
v 0.002164713 -0.001694019 0.001754371
v 0.002192493 -0.001727455 0.001791817
v 0.002178303 -0.001783701 0.001783829
v 0.002186899 -0.001650607 0.001811646
v 0.002181695 -0.00179454 0.001747507
v 0.002186301 -0.001768692 0.001745702
v 0.002188354 -0.001785225 0.001741696
v 0.002190804 -0.001774831 0.001758475
v 0.002214406 -0.001668838 0.001846362
v 0.00221524 -0.001630959 0.001865662
v 0.0005022337 -0.001678663 0.001849115
v 0.0004809748 -0.001620958 0.001856485
v 0.0004774928 -0.001545312 0.001879822
v 0.0004369428 -0.001524021 0.001947251
v 0.0005551934 -0.00173666 0.001786551
v 0.0005223416 -0.001472703 0.001867731
v 0.0005490232 -0.001390472 0.00190593
v 0.0006031328 -0.001802166 0.001801881
v 0.0005911655 -0.001465276 0.001825491
v 0.000646089 -0.001846208 0.001808465
v 0.0006771763 -0.001442978 0.001803615
v 0.0006264159 -0.001843456 0.001885019
v 0.0006413212 -0.001388182 0.001862843
v 0.0006190733 -0.001315906 0.001928837
v 0.0007097278 -0.001891592 0.001806128
v 0.0007131809 -0.001387826 0.00183664
v 0.0006963288 -0.001908161 0.001918346
v 0.0007153358 -0.001323147 0.001887598
v 0.0007834833 -0.001939747 0.001791156
v 0.0007804211 -0.001357432 0.001840871
v 0.0008168103 -0.001967135 0.001804214
v 0.0008542842 -0.00130556 0.001861462
v 0.0007898153 -0.001962687 0.001870538
v 0.0007846149 -0.001310351 0.001877073
v 0.0008669758 -0.002001067 0.001798979
v 0.0009336037 -0.001268943 0.001869041
v 0.000920367 -0.002046869 0.001816823
v 0.0008988976 -0.002039376 0.001897988
v 0.0009748927 -0.001211894 0.001897941
v 0.0009815615 -0.002095177 0.001818013
v 0.001008633 -0.001265002 0.001849666
v 0.001113451 -0.002200264 0.00184044
v 0.001045756 -0.002150012 0.001864322
v 0.000987128 -0.002104454 0.001907082
v 0.001072129 -0.001187459 0.001885948
v 0.001176488 -0.002241992 0.001818435
v 0.001105678 -0.001264385 0.001817022
v 0.001201339 -0.001240034 0.001800909
v 0.001172139 -0.001184075 0.001854932
v 0.001153179 -0.001119089 0.001908535
v 0.001224153 -0.002250809 0.001841619
v 0.001247611 -0.001180436 0.001829008
v 0.001257077 -0.001107675 0.001880197
v 0.001313641 -0.002261444 0.001823899
v 0.001334075 -0.00114628 0.00181839
v 0.001379363 -0.002216213 0.001882922
v 0.001378295 -0.001054656 0.001873818
v 0.001431803 -0.002247902 0.001810741
v 0.001418328 -0.001096837 0.001819459
v 0.00150769 -0.002238201 0.001803775
v 0.001483596 -0.001089928 0.001792832
v 0.001474344 -0.002212802 0.001853227
v 0.001445764 -0.002169116 0.001911822
v 0.001477424 -0.001040084 0.001841889
v 0.001464652 -0.0009837603 0.001903798
v 0.001553305 -0.002211914 0.001821482
v 0.001548969 -0.001041435 0.001804887
v 0.001610462 -0.001010676 0.001808014
v 0.001542698 -0.002160016 0.001879946
v 0.001566525 -0.0009863421 0.001860055
v 0.001541114 -0.0009382673 0.001932973
v 0.001619777 -0.002175197 0.001829948
v 0.001658333 -0.0009817064 0.001832305
v 0.001683566 -0.002122106 0.001851367
v 0.001612175 -0.002138378 0.001870409
v 0.001644764 -0.0009396842 0.001908171
v 0.00174707 -0.002084622 0.001858494
v 0.001734884 -0.0009717781 0.001855884
v 0.001796034 -0.002070122 0.001848416
v 0.001767568 -0.002048355 0.001882403
v 0.001718431 -0.000934364 0.001928411
v 0.001825955 -0.002025062 0.001873926
v 0.001806704 -0.001003605 0.00183676
v 0.001979165 -0.001339584 0.001911264
v 0.001953821 -0.001266387 0.001866613
v 0.001926183 -0.001174106 0.001858542
v 0.00189308 -0.001094214 0.001841363
v 0.001844235 -0.001027588 0.001860743
v 0.001921908 -0.001996684 0.001842396
v 0.00200719 -0.001399497 0.001860324
v 0.002015024 -0.00195934 0.001804878
v 0.002062194 -0.001889692 0.001837346
v 0.00205385 -0.001468291 0.001846453
v 0.002134931 -0.001818309 0.001827107
v 0.002107951 -0.001536795 0.001831586
v 0.002185527 -0.001747616 0.001853872
v 0.002151001 -0.001593984 0.001814674
v 0.002202352 -0.001700278 0.001929314
v 0.002158212 -0.001552192 0.001883557
v 0.002215775 -0.001691805 0.001874625
v 0.002193063 -0.001597481 0.001866095
v 0.002228626 -0.001642693 0.00190006
v 0.002220326 -0.001600099 0.001914191
v 0.002227185 -0.001658464 0.001934864
v 0.002197128 -0.001566834 0.00191696
v 0.00042217 -0.001516444 0.002006506
v 0.0004403966 -0.00156315 0.001944916
v 0.0004388914 -0.00146801 0.001966816
v 0.0004809798 -0.001678751 0.001943708
v 0.0004631022 -0.001617713 0.001908683
v 0.0004803723 -0.001434549 0.001927795
v 0.0004402126 -0.001603828 0.001993196
v 0.0004450979 -0.001374545 0.002000275
v 0.0004446826 -0.001311007 0.002036885
v 0.0005444746 -0.001756967 0.001892186
v 0.0004896827 -0.001361346 0.001962225
v 0.0005714551 -0.001802715 0.002000212
v 0.0005334971 -0.001300322 0.00198434
v 0.000509505 -0.001729659 0.001991495
v 0.000471697 -0.00131917 0.002004744
v 0.0006375764 -0.001870427 0.001974133
v 0.0006064842 -0.001251299 0.001988968
v 0.0006841276 -0.001911541 0.002008934
v 0.0006535695 -0.001188828 0.002021679
v 0.000742508 -0.001946956 0.001964055
v 0.0006882249 -0.001247713 0.001954901
v 0.0007558602 -0.001163751 0.001992823
v 0.000809608 -0.001985887 0.001976581
v 0.0007917443 -0.0012499 0.001919181
v 0.0008813731 -0.00202175 0.002007037
v 0.0008911428 -0.001229779 0.001907193
v 0.0008597348 -0.001165697 0.001957782
v 0.0008399506 -0.00108861 0.002015877
v 0.0009638517 -0.00207156 0.001977456
v 0.0009363207 -0.001169471 0.00193575
v 0.001008935 -0.002110186 0.001949731
v 0.0009475588 -0.001095055 0.001981725
v 0.0009149831 -0.001026599 0.002043037
v 0.001036303 -0.002134272 0.0019246
v 0.001011065 -0.001142384 0.001934056
v 0.001094969 -0.002168642 0.001909352
v 0.00108349 -0.001117844 0.001930626
v 0.001057943 -0.002112163 0.001983109
v 0.001071414 -0.002063021 0.002060614
v 0.001054959 -0.001070612 0.001970204
v 0.001018131 -0.001012281 0.002023734
v 0.001165677 -0.002215324 0.001878046
v 0.00112832 -0.001069025 0.001951104
v 0.001169368 -0.002162693 0.001953373
v 0.001141945 -0.002096204 0.002030183
v 0.00114173 -0.0009951126 0.002002687
v 0.001236852 -0.002222161 0.001892698
v 0.001208725 -0.001047216 0.001942397
v 0.001302023 -0.002220029 0.001898225
v 0.001267033 -0.002177065 0.001948066
v 0.001242319 -0.002105226 0.002017361
v 0.001262546 -0.0009780894 0.001982152
v 0.001228082 -0.0009322641 0.002039225
v 0.001330328 -0.002188138 0.0019317
v 0.001308534 -0.001022516 0.001927958
v 0.001379404 -0.002170566 0.001935754
v 0.001386433 -0.0009940509 0.0019232
v 0.001340915 -0.002128809 0.001980102
v 0.001334937 -0.002052005 0.002043671
v 0.001354644 -0.0009642786 0.001964308
v 0.001327003 -0.0009267407 0.002019185
v 0.001417238 -0.002128083 0.001958955
v 0.001419853 -0.0009578282 0.001946164
v 0.001469302 -0.0009385145 0.001952656
v 0.001435465 -0.002054069 0.002008672
v 0.001413878 -0.0009268366 0.001989029
v 0.001499759 -0.002103144 0.001946634
v 0.001492593 -0.0009086935 0.001995778
v 0.001563156 -0.002010744 0.001993474
v 0.001610052 -0.002085802 0.001915836
v 0.001586278 -0.0009045309 0.001986262
v 0.00170692 -0.002057662 0.001899922
v 0.00167633 -0.002000647 0.001958892
v 0.001652803 -0.001934369 0.002019627
v 0.00176493 -0.002001448 0.001923311
v 0.00167056 -0.0009074162 0.001978015
v 0.001725599 -0.0009211255 0.001980309
v 0.001769539 -0.00191701 0.001992866
v 0.001690103 -0.0009015177 0.002025599
v 0.001848046 -0.001960979 0.001921298
v 0.001782839 -0.0009697323 0.00193312
v 0.001984199 -0.001335727 0.002008712
v 0.001947737 -0.001267367 0.001978392
v 0.001919749 -0.001190566 0.001951689
v 0.001890473 -0.001111459 0.001940876
v 0.001848673 -0.001036539 0.001940131
v 0.001881392 -0.001893197 0.001970702
v 0.001849444 -0.001844267 0.002028592
v 0.001922035 -0.001930695 0.001913674
v 0.002023385 -0.001404869 0.00194354
v 0.001988151 -0.001921363 0.001877765
v 0.001963104 -0.001876427 0.001946214
v 0.001934116 -0.001829767 0.002008168
v 0.002024024 -0.001384906 0.002032645
v 0.002026074 -0.001864359 0.001913712
v 0.002064398 -0.001453789 0.001932459
v 0.002084459 -0.001812315 0.001919095
v 0.002151043 -0.001751883 0.001924399
v 0.002016708 -0.001813401 0.001978728
v 0.002173753 -0.001697007 0.001987111
v 0.002111391 -0.001496748 0.001923802
v 0.002215929 -0.001647796 0.001997899
v 0.002172845 -0.001531804 0.001953541
v 0.002230949 -0.001609107 0.001970683
v 0.002212674 -0.001564087 0.001968777
v 0.0004227257 -0.001556028 0.00207084
v 0.0004118623 -0.001479771 0.002078723
v 0.0004173072 -0.001417129 0.002051346
v 0.0004247 -0.00133254 0.002064136
v 0.000435917 -0.001612554 0.002048299
v 0.0004398663 -0.001285301 0.002071926
v 0.0004412577 -0.001614193 0.002091978
v 0.0004585444 -0.001254316 0.002101477
v 0.0004641189 -0.001664042 0.002037308
v 0.0004787182 -0.00126906 0.002049414
v 0.000574323 -0.001797469 0.002114304
v 0.0005125397 -0.001723145 0.002086703
v 0.0005556726 -0.001216858 0.002064077
v 0.0004679441 -0.00165822 0.002106286
v 0.0004923707 -0.001234914 0.002089453
v 0.0006250205 -0.001862414 0.002057021
v 0.0006306174 -0.001150079 0.002084168
v 0.0006784649 -0.001904625 0.002093586
v 0.0006726359 -0.001091115 0.00212724
v 0.000741707 -0.001947298 0.002041909
v 0.00070147 -0.001122252 0.002055635
v 0.0007662131 -0.001096455 0.002037842
v 0.0007433332 -0.001066854 0.002082577
v 0.0007366499 -0.001036894 0.002137931
v 0.0008140388 -0.001976422 0.002071817
v 0.0007969276 -0.001058054 0.002055464
v 0.0008836106 -0.002003914 0.002070857
v 0.000843173 -0.001033927 0.002059277
v 0.0008650149 -0.001969475 0.002128594
v 0.0007971402 -0.001025465 0.002096794
v 0.0009307875 -0.002033748 0.002041485
v 0.0008703236 -0.0009936653 0.002100682
v 0.0009963283 -0.002052933 0.002046596
v 0.0009400471 -0.002003232 0.002101037
v 0.0009170874 -0.001968353 0.002145137
v 0.001026409 -0.002013976 0.002109519
v 0.0009723059 -0.0009610067 0.002092907
v 0.001086468 -0.002030392 0.002103306
v 0.00104893 -0.0009142432 0.00212171
v 0.001129351 -0.002051272 0.002083818
v 0.001075968 -0.0009478913 0.002063509
v 0.00115199 -0.0009308322 0.002057811
v 0.001122434 -0.002019716 0.002116701
v 0.001118371 -0.0009091116 0.002097181
v 0.001192907 -0.00205706 0.002073257
v 0.001189954 -0.00089902 0.002097001
v 0.001264594 -0.002034053 0.002079373
v 0.001330191 -0.001993529 0.002093413
v 0.001286685 -0.0008947658 0.002085072
v 0.001374315 -0.001924507 0.002133344
v 0.001406536 -0.001983312 0.002074161
v 0.001404506 -0.0008930993 0.002060893
v 0.001469781 -0.001909794 0.002108663
v 0.001446608 -0.001861689 0.002158901
v 0.001501136 -0.001963349 0.002053368
v 0.001518651 -0.0008848817 0.002060453
v 0.0015799 -0.001935568 0.002044468
v 0.001559776 -0.001890115 0.002089534
v 0.001533117 -0.001840142 0.002143919
v 0.001628938 -0.001886032 0.002066734
v 0.001619886 -0.00088766 0.002053118
v 0.001670448 -0.0008976338 0.002078107
v 0.001649771 -0.001814193 0.002123556
v 0.001621379 -0.0008874806 0.00211779
v 0.001706781 -0.001864384 0.002058582
v 0.001731535 -0.0009304583 0.002048004
v 0.001782639 -0.001844172 0.002050956
v 0.001761577 -0.001800042 0.002097165
v 0.001751932 -0.001742452 0.0021542
v 0.001828993 -0.001801744 0.002073602
v 0.001800363 -0.0009893788 0.00203412
v 0.001953242 -0.001271301 0.002085936
v 0.001914866 -0.001195819 0.002053222
v 0.00189006 -0.001132414 0.002021436
v 0.001851325 -0.001058872 0.002042117
v 0.001851183 -0.001741445 0.002121129
v 0.001808019 -0.001008895 0.002105686
v 0.001901502 -0.001784041 0.002064783
v 0.00199965 -0.001339413 0.002103955
v 0.002045709 -0.001397024 0.002088866
v 0.001955251 -0.001723406 0.002100199
v 0.001971431 -0.001294831 0.002137517
v 0.001987821 -0.001766228 0.002044805
v 0.002079336 -0.001444449 0.002016553
v 0.002089944 -0.001724968 0.002024585
v 0.00201922 -0.001719979 0.002075186
v 0.002081935 -0.001432826 0.002113126
v 0.002175383 -0.001655468 0.002047186
v 0.002142214 -0.001496793 0.002002052
v 0.002187722 -0.001607581 0.002092376
v 0.002213673 -0.001618378 0.002056776
v 0.002188398 -0.001527786 0.002020676
v 0.002228535 -0.001596648 0.002039761
v 0.002221423 -0.001563173 0.002027915
v 0.002216581 -0.00158863 0.002081231
v 0.0004189468 -0.001493625 0.002133806
v 0.0004148295 -0.001419059 0.00212777
v 0.0004180698 -0.001347079 0.002116614
v 0.0004299042 -0.001290401 0.002109312
v 0.0004348935 -0.001560771 0.002139875
v 0.0004510752 -0.00126191 0.00214298
v 0.0004371743 -0.001508093 0.002183507
v 0.0004316211 -0.001439168 0.002188775
v 0.0004349348 -0.001352765 0.00218514
v 0.0004330318 -0.001299367 0.002152991
v 0.0004555931 -0.001614275 0.002143364
v 0.0005013415 -0.001224083 0.002143203
v 0.0005947005 -0.00178707 0.002202644
v 0.0005427446 -0.001719818 0.002184042
v 0.0004913832 -0.001654194 0.002165343
v 0.0005873188 -0.00115498 0.002158163
v 0.0004683734 -0.001274548 0.002198639
v 0.000627566 -0.001852536 0.002144823
v 0.0006417597 -0.0010916 0.002200847
v 0.0006779724 -0.001887663 0.002169994
v 0.0006899919 -0.001053834 0.002179638
v 0.0007389837 -0.001930881 0.002130077
v 0.0007311875 -0.001024324 0.002190839
v 0.0007993957 -0.001949548 0.002140079
v 0.0008276372 -0.001934923 0.002175162
v 0.000800775 -0.0009966417 0.002162478
v 0.0008967113 -0.001929365 0.002187503
v 0.0008985266 -0.0009543041 0.002167773
v 0.000978108 -0.001962273 0.002158363
v 0.0009795054 -0.0009226389 0.002150586
v 0.0009545398 -0.0009223681 0.002200829
v 0.001035791 -0.001978579 0.002148733
v 0.001024934 -0.0009015986 0.002184806
v 0.001056271 -0.001940732 0.002181366
v 0.001087768 -0.001990047 0.002140519
v 0.001120192 -0.0008891651 0.002158958
v 0.001144214 -0.001992336 0.002138626
v 0.001148161 -0.00194048 0.00217664
v 0.001167029 -0.002021634 0.002111617
v 0.001226965 -0.000879009 0.002156025
v 0.001218772 -0.002014287 0.002108704
v 0.001274489 -0.001967535 0.002131675
v 0.001196929 -0.00197942 0.002141325
v 0.001229493 -0.001929398 0.002172775
v 0.001308626 -0.001888196 0.00218478
v 0.001333276 -0.0008758918 0.002146341
v 0.001385445 -0.001866404 0.00217818
v 0.001425981 -0.001828884 0.002195939
v 0.001440929 -0.0008749718 0.002137664
v 0.001490249 -0.00180428 0.002193538
v 0.001544073 -0.0008782114 0.002136154
v 0.001588412 -0.0008905493 0.002172812
v 0.001531786 -0.0008860215 0.002206241
v 0.001582558 -0.001767573 0.002192782
v 0.001660902 -0.0009151195 0.002151959
v 0.001675008 -0.001734142 0.002190356
v 0.001745586 -0.001692581 0.002205074
v 0.001748193 -0.0009662256 0.00214199
v 0.001789667 -0.001008831 0.002176139
v 0.001782925 -0.001634892 0.002247092
v 0.001826908 -0.001678282 0.002188469
v 0.00182904 -0.001045736 0.002133562
v 0.001913962 -0.001202424 0.002161515
v 0.001868782 -0.001115506 0.002123987
v 0.001894703 -0.001595403 0.002235982
v 0.001929209 -0.001665622 0.002161378
v 0.001952536 -0.001263121 0.002159396
v 0.00198217 -0.001306788 0.002198403
v 0.002002171 -0.001593135 0.002189672
v 0.001981793 -0.001524893 0.002247821
v 0.001940679 -0.001244951 0.00220966
v 0.002034067 -0.001664468 0.002118129
v 0.002043262 -0.001384779 0.002170482
v 0.002127908 -0.001637254 0.002098162
v 0.002085375 -0.001450906 0.002189444
v 0.002091114 -0.001588446 0.002150995
v 0.002060295 -0.001523436 0.002200377
v 0.002153837 -0.001585286 0.002125096
v 0.002142475 -0.001492366 0.00208593
v 0.002136477 -0.001532891 0.002143411
v 0.002082149 -0.001420624 0.002230029
v 0.002190937 -0.001566717 0.002110033
v 0.002198726 -0.001533539 0.002067706
v 0.002216023 -0.001561771 0.002077219
v 0.002184855 -0.001535187 0.002102625
v 0.0004614769 -0.001477571 0.002235006
v 0.0004607865 -0.001393708 0.002244354
v 0.0004667403 -0.001325747 0.002241291
v 0.0004679476 -0.001567096 0.002202184
v 0.0004992293 -0.001282925 0.002261779
v 0.000628607 -0.001770625 0.002271161
v 0.0005827968 -0.001706807 0.002264191
v 0.0005304712 -0.001616808 0.00225329
v 0.0005391511 -0.001214271 0.002237921
v 0.0006034413 -0.001136189 0.00224458
v 0.0005004503 -0.001522037 0.00226833
v 0.0005039345 -0.001435847 0.002293189
v 0.0005022275 -0.001345411 0.002290718
v 0.0006449812 -0.00183561 0.002218447
v 0.0006380035 -0.001092727 0.002246657
v 0.0006900803 -0.001865012 0.00222452
v 0.0006857006 -0.001056826 0.00224458
v 0.0006870192 -0.001809833 0.002278019
v 0.0006407463 -0.001109546 0.002288927
v 0.0007203713 -0.001898137 0.002194136
v 0.0007590419 -0.001010759 0.002234643
v 0.0007722036 -0.001916015 0.002187059
v 0.0007508654 -0.001861993 0.002246082
v 0.0007587957 -0.001794281 0.002308214
v 0.0007311217 -0.001038456 0.002289592
v 0.0008263639 -0.00189306 0.002223271
v 0.0008275182 -0.0009786356 0.002223693
v 0.0008935676 -0.0009575862 0.002261008
v 0.0008416029 -0.001823353 0.002284767
v 0.0008249189 -0.001753072 0.002337084
v 0.0007987654 -0.001009716 0.002298693
v 0.0008972415 -0.00187241 0.002243528
v 0.0009819352 -0.0009173673 0.002251852
v 0.0009505799 -0.001816976 0.002283592
v 0.0009145834 -0.001752314 0.002329242
v 0.00094374 -0.0009528007 0.002318632
v 0.0009895621 -0.001888485 0.002225267
v 0.001067352 -0.0008947848 0.002239994
v 0.001058687 -0.001811896 0.002278283
v 0.001019818 -0.001745277 0.002324082
v 0.001018001 -0.0009239663 0.002313655
v 0.001105726 -0.001875908 0.002228497
v 0.001162621 -0.0008820917 0.002231232
v 0.001168725 -0.001802373 0.002274258
v 0.001128143 -0.001737911 0.002319109
v 0.001103286 -0.0009036447 0.002306654
v 0.001219393 -0.001865895 0.002221811
v 0.001264356 -0.0008766509 0.002225494
v 0.001270962 -0.001789093 0.002269625
v 0.00123473 -0.001730042 0.002313675
v 0.001197215 -0.0008951143 0.002303947
v 0.00130614 -0.001830855 0.002231716
v 0.001367658 -0.0008760496 0.002217073
v 0.001370666 -0.001829724 0.002214683
v 0.001361236 -0.001779473 0.002258015
v 0.001337919 -0.001722667 0.002304265
v 0.001298836 -0.0008925946 0.002297656
v 0.001435367 -0.001784442 0.002231766
v 0.001463329 -0.0008784922 0.002207616
v 0.001485044 -0.0008953289 0.002260009
v 0.001446681 -0.001717933 0.002284514
v 0.001401391 -0.0008939847 0.002284088
v 0.00151591 -0.001746973 0.002237615
v 0.00156715 -0.0009146517 0.002250329
v 0.001556969 -0.001686948 0.002280805
v 0.001581447 -0.001721617 0.002238625
v 0.001669185 -0.0009606203 0.002253232
v 0.001629826 -0.001717379 0.002224405
v 0.001687809 -0.001675397 0.002244745
v 0.001619318 -0.001690184 0.002256305
v 0.001637473 -0.001648763 0.002290501
v 0.001645732 -0.0009909099 0.002342458
v 0.001719336 -0.001609335 0.002296766
v 0.001746113 -0.0009893449 0.002221369
v 0.001773085 -0.001014588 0.002229747
v 0.001732472 -0.00102224 0.002295668
v 0.001815861 -0.001557055 0.002304359
v 0.001810235 -0.001057633 0.002216773
v 0.00190748 -0.001514214 0.002295019
v 0.001858653 -0.00113588 0.002236169
v 0.001797827 -0.00109144 0.002307675
v 0.001967678 -0.001468933 0.002289895
v 0.001903053 -0.001203042 0.002256025
v 0.00197167 -0.001309117 0.002272848
v 0.001942255 -0.001259254 0.002264195
v 0.001984697 -0.001408218 0.002297546
v 0.002032991 -0.00145741 0.002251964
v 0.002019368 -0.001369238 0.002252975
v 0.002040285 -0.001410488 0.002263681
v 0.002070263 -0.001423593 0.002242696
v 0.002067765 -0.001404645 0.002226882
v 0.002077668 -0.001410794 0.002242207
v 0.002061885 -0.001401929 0.00225027
v 0.0006337295 -0.00169751 0.002322129
v 0.0005989927 -0.001616365 0.00232617
v 0.0005631244 -0.00150545 0.002331172
v 0.0005666129 -0.001373674 0.002352655
v 0.0005499559 -0.001276345 0.002313853
v 0.000604663 -0.001186228 0.002319063
v 0.0006650807 -0.001749702 0.002316541
v 0.0006547376 -0.001133156 0.002342196
v 0.0006886931 -0.001081949 0.002317525
v 0.0006920305 -0.001692717 0.00235516
v 0.0006687566 -0.001619558 0.002370516
v 0.0006443203 -0.001529939 0.002384068
v 0.0006289536 -0.001431789 0.002397934
v 0.0006612941 -0.001185834 0.00238625
v 0.0007151914 -0.001751261 0.002333255
v 0.0007451639 -0.001061665 0.002345187
v 0.0007677002 -0.001742113 0.002346671
v 0.0007565105 -0.001692952 0.002368639
v 0.0007455817 -0.001621845 0.002392062
v 0.0007253713 -0.001539869 0.002413417
v 0.0007043076 -0.001453502 0.002430601
v 0.0007227366 -0.001172015 0.002426558
v 0.0007041817 -0.001119984 0.002376312
v 0.0008099438 -0.001703377 0.002366188
v 0.000793963 -0.001043752 0.002359409
v 0.0008673395 -0.00101888 0.002370986
v 0.0008377666 -0.001629754 0.002394689
v 0.0008164218 -0.001542925 0.002425684
v 0.0007915581 -0.001460911 0.002449544
v 0.0007818112 -0.001102226 0.002412028
v 0.0008843876 -0.001689097 0.002366889
v 0.0009726431 -0.0009802047 0.002393181
v 0.0009518407 -0.001611485 0.002396479
v 0.0009199407 -0.001538874 0.002428144
v 0.0008904542 -0.001460909 0.002457899
v 0.0009162533 -0.001038657 0.002440682
v 0.000985709 -0.001678666 0.00236288
v 0.001054362 -0.0009385892 0.002369208
v 0.00106125 -0.001601702 0.00239311
v 0.001029951 -0.001530669 0.002426585
v 0.0009977112 -0.001457321 0.002459746
v 0.001093224 -0.001670753 0.002358212
v 0.001132709 -0.0009305391 0.002377602
v 0.001169641 -0.001595866 0.002389524
v 0.001139527 -0.00152469 0.002423838
v 0.001107609 -0.001452808 0.002458764
v 0.001200719 -0.001664843 0.00235373
v 0.001231261 -0.0009244804 0.002376502
v 0.001276139 -0.001592499 0.002386192
v 0.001247278 -0.001521251 0.002421658
v 0.001216693 -0.001448583 0.002457481
v 0.001306192 -0.001660025 0.002348013
v 0.001337236 -0.0009238829 0.002366735
v 0.001380411 -0.001590247 0.002381409
v 0.00135285 -0.001519929 0.00241928
v 0.001324053 -0.001446088 0.002456041
v 0.001410035 -0.001655167 0.002338674
v 0.001457169 -0.0009286543 0.002342195
v 0.001481297 -0.001587616 0.002373373
v 0.001456276 -0.001519689 0.002414537
v 0.001429164 -0.001446133 0.002452813
v 0.001509203 -0.001645741 0.002328462
v 0.001564373 -0.0009619014 0.002352162
v 0.001586133 -0.00163324 0.002321029
v 0.001595961 -0.0009997928 0.002398811
v 0.001573597 -0.001585671 0.002360104
v 0.001557514 -0.001519764 0.002404438
v 0.001532769 -0.001446952 0.00244607
v 0.001538663 -0.0009942686 0.002425303
v 0.001651429 -0.00159218 0.00233555
v 0.001658492 -0.001033981 0.002391536
v 0.0016532 -0.001524757 0.002383098
v 0.001642697 -0.001443645 0.002433758
v 0.001733881 -0.001541627 0.002348204
v 0.001736082 -0.001079231 0.002375041
v 0.001787755 -0.001115119 0.002362899
v 0.001752167 -0.001454662 0.002398058
v 0.001760583 -0.001142621 0.002412608
v 0.001801376 -0.001502182 0.002354015
v 0.001841558 -0.001167061 0.00233672
v 0.001856682 -0.001495154 0.002334884
v 0.00190738 -0.001442316 0.002335765
v 0.001835702 -0.001455418 0.002366962
v 0.001843688 -0.001378319 0.002390984
v 0.001837652 -0.001284641 0.002408007
v 0.001812588 -0.001210659 0.002408894
v 0.001924884 -0.001375997 0.002344425
v 0.001903222 -0.001227268 0.002311574
v 0.001960951 -0.001341097 0.002312386
v 0.001930963 -0.001279963 0.002318433
v 0.001901115 -0.001315345 0.002361221
v 0.001876272 -0.001244194 0.002362543
v 0.0006202719 -0.001273366 0.002384939
v 0.0006307774 -0.001351387 0.002408996
v 0.0006903752 -0.001241269 0.002432835
v 0.0006705256 -0.001306211 0.002433449
v 0.0006872941 -0.001370255 0.002440048
v 0.0007494711 -0.001218084 0.002460319
v 0.0007759565 -0.00117003 0.002455747
v 0.0007426299 -0.001292574 0.002464722
v 0.0007654983 -0.001379951 0.002464271
v 0.0008113519 -0.001146469 0.002461007
v 0.0008691518 -0.001103302 0.002464744
v 0.0008221132 -0.0013134 0.002487214
v 0.000834463 -0.001212769 0.00248931
v 0.000857678 -0.001382518 0.002480487
v 0.0009197873 -0.001067307 0.002477318
v 0.0009739827 -0.001039181 0.002475914
v 0.0009195741 -0.001294244 0.002510293
v 0.0009376578 -0.001095649 0.002506472
v 0.0009621884 -0.00138112 0.002489799
v 0.001061216 -0.0009850629 0.00244376
v 0.001033548 -0.001308841 0.002522491
v 0.001040506 -0.001040446 0.002505172
v 0.001071921 -0.001381106 0.002493146
v 0.001166614 -0.000970302 0.002447257
v 0.001140557 -0.001309762 0.002526954
v 0.001114815 -0.001024659 0.002504907
v 0.001181192 -0.001377471 0.002493815
v 0.001269436 -0.0009650662 0.002443421
v 0.001247519 -0.001303228 0.002528783
v 0.00121022 -0.001015831 0.002504524
v 0.001290549 -0.001371523 0.002493719
v 0.001375064 -0.0009661186 0.002432278
v 0.00136199 -0.001287247 0.002530258
v 0.001311891 -0.001012358 0.0024979
v 0.00139854 -0.001369242 0.002490424
v 0.001472495 -0.0009758265 0.002423101
v 0.001492149 -0.001014048 0.002467152
v 0.001470345 -0.001294675 0.002516672
v 0.001439479 -0.001226318 0.002545234
v 0.00141249 -0.001013129 0.002484967
v 0.001502048 -0.001371943 0.002482916
v 0.001568849 -0.001040326 0.002456344
v 0.001568426 -0.001300662 0.002502454
v 0.00153565 -0.001219701 0.00252681
v 0.001599726 -0.001374441 0.00247273
v 0.001660732 -0.001100151 0.002449873
v 0.001673026 -0.001374766 0.002463534
v 0.001703011 -0.00116313 0.002465101
v 0.001664215 -0.001307036 0.002484471
v 0.001621066 -0.001242813 0.002504731
v 0.00161999 -0.001169492 0.002500942
v 0.001715937 -0.001400718 0.002442379
v 0.001754881 -0.001195588 0.002449598
v 0.001768848 -0.001380333 0.00243185
v 0.001785943 -0.001320691 0.00244084
v 0.001775788 -0.001252249 0.002449119
v 0.001727592 -0.001345379 0.002460843
v 0.001735012 -0.001289286 0.002469225
v 0.001700282 -0.001228531 0.002480916
v 0.0009174485 -0.001155864 0.00251857
v 0.0009296697 -0.001216529 0.002527575
v 0.0009703632 -0.00112881 0.002537732
v 0.00100034 -0.001084761 0.002527109
v 0.0009834027 -0.001176597 0.00254714
v 0.001003899 -0.001238587 0.002542356
v 0.001072879 -0.001079231 0.00254126
v 0.001062782 -0.001184647 0.002561552
v 0.001030724 -0.001130629 0.002554075
v 0.00109961 -0.001245252 0.002551361
v 0.001159377 -0.001071937 0.002545795
v 0.001154908 -0.001184281 0.002568534
v 0.001112284 -0.001129011 0.002564342
v 0.001199893 -0.001242455 0.002555264
v 0.001256662 -0.001066536 0.002543774
v 0.001251228 -0.00117943 0.002569903
v 0.001205316 -0.001124564 0.002567395
v 0.00129773 -0.001233547 0.002556424
v 0.00135978 -0.001064742 0.002534053
v 0.001372258 -0.001219035 0.002557295
v 0.001341729 -0.001174957 0.002567011
v 0.001303707 -0.001120997 0.002563842
v 0.001408787 -0.001180628 0.002560783
v 0.001470582 -0.001065388 0.002512747
v 0.001407863 -0.001125296 0.002553727
v 0.001472343 -0.001168047 0.002548838
v 0.001559969 -0.001104117 0.002504715
v 0.001538144 -0.001152878 0.002530299
v 0.00149127 -0.001119835 0.002537194
f 1 3 5
f 3 1 6
f 1 5 7
f 6 1 7
f 2 14 18
f 14 2 19
f 2 18 20
f 19 2 20
f 4 28 31
f 28 4 32
f 3 8 5
f 4 31 33
f 4 33 32
f 3 6 8
f 5 8 7
f 6 7 8
f 36 38 9
f 36 9 39
f 9 38 40
f 41 44 10
f 39 9 40
f 41 10 45
f 10 44 46
f 45 10 46
f 11 50 53
f 50 11 54
f 12 55 57
f 53 55 12
f 53 12 11
f 11 12 13
f 58 54 11
f 13 58 11
f 15 12 57
f 60 15 57
f 13 12 16
f 16 12 15
f 59 58 13
f 59 13 17
f 17 13 16
f 59 17 61
f 14 21 18
f 15 60 62
f 19 21 14
f 22 15 63
f 22 16 15
f 15 62 63
f 17 16 23
f 23 16 22
f 64 61 17
f 23 64 17
f 18 21 20
f 63 65 24
f 63 24 22
f 19 20 21
f 23 22 25
f 25 22 24
f 66 64 23
f 25 66 23
f 26 24 65
f 68 26 65
f 25 24 27
f 27 24 26
f 69 66 25
f 27 69 25
f 29 26 68
f 72 29 68
f 27 26 30
f 30 26 29
f 73 69 27
f 30 73 27
f 28 34 31
f 29 72 74
f 32 34 28
f 35 29 78
f 35 30 29
f 29 74 78
f 79 73 30
f 35 79 30
f 31 34 33
f 78 84 37
f 78 37 35
f 32 33 34
f 85 79 35
f 37 85 35
f 36 42 38
f 37 84 86
f 36 39 42
f 86 85 37
f 43 87 93
f 87 43 94
f 38 42 40
f 40 42 39
f 41 47 44
f 93 95 43
f 43 95 94
f 41 45 47
f 44 47 46
f 45 46 47
f 48 101 104
f 101 48 105
f 49 48 104
f 109 49 104
f 110 105 48
f 49 110 48
f 51 111 116
f 109 111 51
f 109 51 49
f 49 51 52
f 117 110 49
f 52 117 49
f 56 51 116
f 121 56 116
f 50 56 53
f 50 52 56
f 52 51 56
f 52 50 54
f 52 54 117
f 117 54 122
f 55 56 121
f 55 121 57
f 57 121 126
f 53 56 55
f 54 58 122
f 122 58 127
f 57 126 60
f 126 132 60
f 58 128 127
f 59 128 58
f 128 59 61
f 133 128 61
f 60 132 134
f 62 60 134
f 134 63 62
f 136 63 134
f 61 64 133
f 133 64 137
f 63 136 65
f 136 143 65
f 138 66 67
f 138 137 66
f 137 64 66
f 138 67 144
f 65 143 68
f 143 148 68
f 67 69 70
f 66 69 67
f 145 144 67
f 145 67 71
f 71 67 70
f 145 71 149
f 68 148 72
f 148 151 72
f 70 73 75
f 69 73 70
f 71 70 76
f 76 70 75
f 150 149 71
f 150 71 77
f 77 71 76
f 150 77 152
f 72 151 153
f 74 72 153
f 153 78 74
f 156 78 153
f 75 79 80
f 73 79 75
f 76 75 81
f 81 75 80
f 77 76 82
f 82 76 81
f 154 152 77
f 154 77 83
f 83 77 82
f 154 83 157
f 158 88 84
f 158 84 156
f 156 84 78
f 85 158 79
f 85 88 158
f 79 158 80
f 160 89 158
f 80 158 89
f 81 80 90
f 90 80 89
f 82 81 91
f 91 81 90
f 83 82 92
f 92 82 91
f 161 157 83
f 92 161 83
f 84 88 86
f 86 88 85
f 87 96 93
f 160 162 89
f 94 96 87
f 97 89 163
f 97 90 89
f 89 162 163
f 91 90 98
f 98 90 97
f 92 91 99
f 99 91 98
f 164 161 92
f 99 164 92
f 93 96 95
f 97 163 165
f 94 95 96
f 98 97 165
f 166 98 165
f 99 98 166
f 167 99 166
f 164 99 167
f 100 170 171
f 170 100 172
f 102 173 174
f 171 173 102
f 171 102 100
f 100 102 103
f 175 172 100
f 103 175 100
f 101 106 104
f 107 102 174
f 107 174 176
f 106 101 105
f 103 102 108
f 108 102 107
f 177 175 103
f 108 177 103
f 106 112 109
f 104 106 109
f 105 110 106
f 110 112 106
f 176 113 107
f 176 181 113
f 108 107 114
f 114 107 113
f 178 177 108
f 178 108 115
f 115 108 114
f 178 115 182
f 111 183 186
f 116 111 186
f 112 111 109
f 112 184 111
f 184 183 111
f 113 184 118
f 113 181 184
f 118 184 117
f 112 110 184
f 117 184 110
f 114 113 119
f 119 113 118
f 115 114 120
f 120 114 119
f 187 182 115
f 120 187 115
f 116 186 121
f 186 189 121
f 118 122 123
f 117 122 118
f 119 118 124
f 124 118 123
f 120 119 125
f 125 119 124
f 190 187 120
f 125 190 120
f 121 189 126
f 189 194 126
f 123 127 129
f 122 127 123
f 124 123 130
f 130 123 129
f 125 124 131
f 131 124 130
f 195 190 125
f 131 195 125
f 126 194 132
f 194 200 132
f 127 128 129
f 133 129 128
f 133 135 129
f 135 130 129
f 201 196 131
f 201 131 135
f 135 131 130
f 195 131 196
f 139 134 132
f 139 132 209
f 209 132 200
f 134 139 136
f 135 137 140
f 133 137 135
f 202 201 135
f 202 135 141
f 141 135 140
f 141 142 203
f 202 141 203
f 203 142 210
f 146 139 209
f 216 146 209
f 136 146 143
f 139 146 136
f 137 138 140
f 144 140 138
f 144 147 140
f 147 141 140
f 217 211 142
f 217 142 147
f 147 142 141
f 210 142 211
f 146 216 218
f 218 143 146
f 218 224 143
f 224 148 143
f 144 145 147
f 147 145 149
f 147 149 217
f 217 149 225
f 148 224 151
f 224 234 151
f 149 226 225
f 150 226 149
f 152 155 227
f 152 227 150
f 150 227 226
f 227 155 235
f 159 153 151
f 159 151 241
f 241 151 234
f 153 159 156
f 152 154 155
f 155 154 157
f 155 157 235
f 235 157 242
f 159 241 243
f 156 159 243
f 156 243 158
f 158 243 244
f 244 160 158
f 250 160 244
f 157 161 242
f 242 161 251
f 160 250 252
f 162 160 252
f 163 253 168
f 163 162 253
f 162 252 253
f 253 262 168
f 254 164 169
f 254 251 164
f 251 161 164
f 254 169 263
f 163 168 165
f 168 262 264
f 168 264 165
f 165 264 166
f 167 166 265
f 166 264 265
f 169 164 167
f 169 167 266
f 266 167 265
f 263 169 266
f 170 272 274
f 171 170 274
f 272 170 172
f 275 272 172
f 173 276 278
f 174 173 278
f 274 173 171
f 276 173 274
f 172 175 275
f 275 175 279
f 179 280 284
f 179 278 280
f 179 176 278
f 176 174 278
f 281 177 180
f 281 279 177
f 279 175 177
f 281 180 285
f 185 179 284
f 288 185 284
f 176 185 181
f 179 185 176
f 177 178 180
f 180 178 182
f 180 182 285
f 285 182 289
f 183 290 293
f 186 183 293
f 288 184 185
f 288 290 184
f 290 183 184
f 181 185 184
f 291 187 188
f 291 289 187
f 289 182 187
f 291 188 294
f 191 295 297
f 191 293 295
f 191 189 293
f 189 186 293
f 188 190 192
f 187 190 188
f 296 294 188
f 296 188 193
f 193 188 192
f 296 193 298
f 197 191 297
f 299 197 297
f 189 197 194
f 191 197 189
f 192 195 198
f 190 195 192
f 193 192 199
f 199 192 198
f 300 298 193
f 199 300 193
f 204 301 304
f 299 301 204
f 299 204 197
f 197 204 205
f 194 205 200
f 197 205 194
f 196 201 206
f 196 198 195
f 196 206 198
f 206 207 198
f 199 198 208
f 208 198 207
f 305 300 199
f 208 305 199
f 212 204 304
f 309 212 304
f 205 204 213
f 213 204 212
f 200 213 209
f 205 213 200
f 201 202 206
f 203 206 202
f 207 206 203
f 210 207 203
f 210 214 207
f 214 208 207
f 306 305 208
f 306 208 215
f 215 208 214
f 306 215 310
f 219 212 309
f 312 219 309
f 213 212 220
f 220 212 219
f 209 220 216
f 213 220 209
f 211 217 221
f 211 214 210
f 211 221 214
f 221 222 214
f 215 214 223
f 223 214 222
f 313 310 215
f 223 313 215
f 228 219 312
f 316 228 312
f 220 219 229
f 229 219 228
f 216 230 218
f 216 220 230
f 220 229 230
f 218 230 224
f 221 225 231
f 217 225 221
f 222 221 232
f 232 221 231
f 223 222 233
f 233 222 232
f 317 313 223
f 233 317 223
f 236 228 316
f 322 236 316
f 229 228 237
f 237 228 236
f 230 229 238
f 238 229 237
f 224 238 234
f 230 238 224
f 225 226 231
f 227 231 226
f 232 231 227
f 235 232 227
f 235 239 232
f 239 233 232
f 318 317 233
f 318 233 240
f 240 233 239
f 318 240 323
f 245 236 322
f 327 245 322
f 237 236 246
f 246 236 245
f 238 237 247
f 247 237 246
f 234 247 241
f 238 247 234
f 239 242 248
f 235 242 239
f 240 239 249
f 249 239 248
f 328 323 240
f 249 328 240
f 245 327 329
f 329 334 255
f 329 255 245
f 245 255 246
f 247 246 256
f 256 246 255
f 241 257 243
f 241 247 257
f 247 256 257
f 243 258 244
f 257 258 243
f 244 258 250
f 248 251 259
f 242 251 248
f 249 248 260
f 260 248 259
f 330 328 249
f 330 249 261
f 261 249 260
f 330 261 335
f 255 334 336
f 336 344 267
f 336 267 255
f 255 267 256
f 257 256 268
f 268 256 267
f 258 257 269
f 269 257 268
f 250 258 269
f 250 269 337
f 250 337 252
f 337 269 345
f 253 252 338
f 252 337 338
f 262 339 270
f 262 253 339
f 253 338 339
f 339 346 270
f 251 254 259
f 340 260 259
f 340 259 263
f 340 263 347
f 254 263 259
f 261 260 340
f 341 261 340
f 335 261 341
f 267 344 348
f 348 357 271
f 348 271 267
f 267 271 268
f 358 349 269
f 358 269 271
f 271 269 268
f 345 269 349
f 262 270 264
f 270 346 350
f 270 350 264
f 264 350 265
f 266 265 351
f 265 350 351
f 347 263 266
f 351 347 266
f 271 357 359
f 358 271 359
f 273 364 365
f 364 273 366
f 272 367 370
f 274 272 370
f 275 277 273
f 275 273 367
f 275 367 272
f 367 273 365
f 371 366 273
f 277 371 273
f 276 372 375
f 278 276 375
f 370 276 274
f 372 276 370
f 277 279 282
f 275 279 277
f 373 371 277
f 373 277 283
f 283 277 282
f 373 283 376
f 280 286 284
f 280 378 286
f 280 278 378
f 278 375 378
f 279 281 282
f 285 282 281
f 285 287 282
f 287 283 282
f 379 376 283
f 287 379 283
f 286 380 382
f 286 382 284
f 284 382 288
f 378 380 286
f 287 289 292
f 285 289 287
f 383 379 287
f 292 383 287
f 290 384 387
f 293 290 387
f 382 290 288
f 384 290 382
f 289 291 292
f 292 291 294
f 292 294 383
f 383 294 388
f 295 389 393
f 297 295 393
f 387 295 293
f 389 295 387
f 294 390 388
f 296 390 294
f 390 296 298
f 394 390 298
f 302 395 399
f 302 393 395
f 302 299 393
f 299 297 393
f 396 300 303
f 396 394 300
f 394 298 300
f 396 303 400
f 307 401 403
f 399 401 307
f 302 399 307
f 302 307 304
f 302 304 301
f 299 302 301
f 303 305 308
f 300 305 303
f 404 400 303
f 308 404 303
f 307 403 405
f 405 304 307
f 405 409 304
f 409 309 304
f 305 306 308
f 310 311 406
f 306 310 406
f 306 406 404
f 306 404 308
f 406 311 410
f 309 409 312
f 409 412 312
f 311 313 314
f 310 313 311
f 411 410 311
f 411 311 315
f 315 311 314
f 411 315 413
f 414 319 316
f 414 316 412
f 412 316 312
f 414 416 319
f 314 317 320
f 313 317 314
f 315 314 321
f 321 314 320
f 417 413 315
f 321 417 315
f 319 324 322
f 316 319 322
f 420 319 416
f 324 319 420
f 317 318 320
f 323 320 318
f 323 325 320
f 325 321 320
f 418 417 321
f 418 321 326
f 326 321 325
f 418 326 421
f 324 331 327
f 322 324 327
f 423 324 420
f 331 324 423
f 325 328 332
f 323 328 325
f 326 325 333
f 333 325 332
f 424 421 326
f 333 424 326
f 327 331 329
f 334 425 342
f 329 425 334
f 329 423 425
f 329 331 423
f 425 430 342
f 343 431 426
f 426 432 343
f 328 330 332
f 427 333 332
f 427 332 335
f 427 335 433
f 330 335 332
f 424 333 427
f 334 342 336
f 344 434 352
f 336 434 344
f 336 430 434
f 336 342 430
f 434 443 352
f 337 345 353
f 337 354 338
f 353 354 337
f 444 338 354
f 444 435 338
f 435 339 338
f 346 343 355
f 346 435 343
f 346 339 435
f 435 431 343
f 436 343 432
f 436 356 343
f 356 355 343
f 356 340 347
f 356 436 340
f 436 437 340
f 341 340 438
f 340 437 438
f 433 335 341
f 438 433 341
f 344 352 348
f 357 445 360
f 348 445 357
f 348 443 445
f 348 352 443
f 360 349 358
f 360 445 349
f 361 349 449
f 449 349 445
f 349 353 345
f 349 361 353
f 361 362 353
f 450 446 354
f 450 354 362
f 362 354 353
f 444 354 446
f 346 355 350
f 351 350 355
f 356 351 355
f 347 351 356
f 357 360 359
f 449 454 363
f 449 363 361
f 358 359 360
f 455 451 362
f 455 362 363
f 363 362 361
f 450 362 451
f 363 454 456
f 455 363 456
f 368 460 464
f 368 365 364
f 368 364 460
f 460 364 461
f 366 369 462
f 366 462 364
f 364 462 461
f 462 369 465
f 367 368 464
f 367 464 370
f 370 464 467
f 365 368 367
f 369 371 374
f 366 371 369
f 468 465 369
f 374 468 369
f 372 469 474
f 375 372 474
f 467 372 370
f 469 372 467
f 371 373 374
f 376 377 470
f 373 376 470
f 373 470 468
f 373 468 374
f 470 377 475
f 375 474 378
f 474 478 378
f 377 379 381
f 376 379 377
f 479 475 377
f 381 479 377
f 380 480 484
f 382 380 484
f 478 380 378
f 480 380 478
f 381 383 385
f 379 383 381
f 481 479 381
f 481 381 386
f 386 381 385
f 481 386 485
f 384 486 489
f 387 384 489
f 484 384 382
f 486 384 484
f 385 388 391
f 383 388 385
f 386 385 392
f 392 385 391
f 490 485 386
f 392 490 386
f 397 491 495
f 397 393 389
f 397 389 491
f 491 389 492
f 489 389 387
f 492 389 489
f 388 390 391
f 394 391 390
f 394 398 391
f 398 392 391
f 496 490 392
f 398 496 392
f 395 397 495
f 395 495 399
f 399 495 500
f 393 397 395
f 394 396 398
f 400 402 497
f 396 400 497
f 396 497 496
f 396 496 398
f 497 402 501
f 401 407 403
f 401 503 407
f 401 399 503
f 399 500 503
f 402 404 408
f 400 404 402
f 504 501 402
f 408 504 402
f 403 407 405
f 407 409 405
f 407 503 409
f 503 507 409
f 404 406 408
f 408 406 410
f 408 410 504
f 504 410 508
f 509 415 412
f 509 412 507
f 507 412 409
f 509 515 415
f 410 510 508
f 411 510 410
f 510 411 413
f 516 510 413
f 412 415 414
f 415 416 414
f 415 515 416
f 515 521 416
f 517 417 419
f 517 516 417
f 516 413 417
f 517 419 522
f 523 422 420
f 523 420 521
f 521 420 416
f 523 526 422
f 417 418 419
f 419 418 421
f 419 421 522
f 522 421 527
f 422 428 423
f 420 422 423
f 528 422 526
f 528 429 422
f 429 428 422
f 528 531 429
f 421 424 527
f 527 424 532
f 423 428 425
f 430 425 428
f 430 428 439
f 439 428 429
f 538 429 531
f 439 429 538
f 426 539 533
f 431 539 426
f 432 534 440
f 432 426 534
f 426 533 534
f 440 535 441
f 534 535 440
f 441 536 442
f 535 536 441
f 442 427 433
f 442 536 427
f 536 537 427
f 532 424 427
f 537 532 427
f 430 439 434
f 443 540 447
f 434 540 443
f 434 538 540
f 434 439 538
f 540 541 447
f 435 444 448
f 435 448 542
f 435 542 431
f 431 542 539
f 432 440 436
f 437 436 440
f 441 437 440
f 438 437 441
f 442 438 441
f 433 438 442
f 443 447 445
f 449 543 452
f 445 543 449
f 445 541 543
f 445 447 541
f 543 545 452
f 446 450 453
f 446 453 546
f 444 446 546
f 444 546 544
f 444 544 448
f 542 448 544
f 452 457 454
f 449 452 454
f 549 451 545
f 549 458 451
f 545 451 452
f 455 457 451
f 452 451 457
f 451 453 450
f 451 458 453
f 458 459 453
f 550 546 453
f 459 550 453
f 454 457 456
f 458 549 551
f 455 456 457
f 459 458 551
f 552 459 551
f 550 459 552
f 463 555 556
f 555 463 557
f 460 558 564
f 464 460 564
f 461 559 460
f 460 559 558
f 556 462 463
f 556 559 462
f 559 461 462
f 465 466 560
f 462 465 560
f 462 560 557
f 462 557 463
f 560 466 565
f 471 566 570
f 471 564 566
f 471 467 564
f 467 464 564
f 466 468 472
f 465 468 466
f 567 565 466
f 567 466 473
f 473 466 472
f 567 473 571
f 476 572 574
f 570 572 476
f 471 570 476
f 471 476 474
f 471 474 469
f 467 471 469
f 468 470 472
f 475 472 470
f 475 477 472
f 477 473 472
f 575 571 473
f 477 575 473
f 482 476 574
f 577 482 574
f 474 482 478
f 476 482 474
f 477 479 483
f 475 479 477
f 578 575 477
f 483 578 477
f 487 579 583
f 577 579 487
f 482 577 487
f 482 487 484
f 482 484 480
f 478 482 480
f 479 481 483
f 485 488 580
f 481 485 580
f 481 580 578
f 481 578 483
f 580 488 584
f 493 585 588
f 583 585 493
f 487 583 493
f 487 493 489
f 487 489 486
f 484 487 486
f 488 490 494
f 485 490 488
f 589 584 488
f 494 589 488
f 491 590 596
f 495 491 596
f 588 492 493
f 588 590 492
f 590 491 492
f 489 493 492
f 494 496 498
f 490 496 494
f 591 589 494
f 591 494 499
f 499 494 498
f 591 499 597
f 495 596 500
f 596 601 500
f 496 497 498
f 501 498 497
f 501 502 498
f 502 499 498
f 602 597 499
f 502 602 499
f 603 505 503
f 603 503 601
f 601 503 500
f 603 608 505
f 502 504 506
f 501 504 502
f 609 602 502
f 506 609 502
f 505 511 507
f 503 505 507
f 610 505 608
f 610 512 505
f 512 511 505
f 610 616 512
f 506 508 513
f 504 508 506
f 611 609 506
f 611 506 514
f 514 506 513
f 611 514 617
f 507 511 509
f 515 509 511
f 515 511 518
f 518 511 512
f 621 512 616
f 518 512 621
f 508 510 513
f 516 513 510
f 516 519 513
f 519 514 513
f 618 617 514
f 618 514 520
f 520 514 519
f 618 520 622
f 518 524 521
f 515 518 521
f 624 518 621
f 524 518 624
f 516 517 519
f 522 519 517
f 522 525 519
f 525 520 519
f 625 622 520
f 525 625 520
f 521 524 523
f 526 626 529
f 523 626 526
f 523 624 626
f 523 524 624
f 626 629 529
f 525 527 530
f 522 527 525
f 630 625 525
f 530 630 525
f 526 529 528
f 529 531 528
f 529 629 531
f 629 634 531
f 530 635 631
f 530 527 635
f 527 532 635
f 630 530 631
f 531 634 538
f 634 643 538
f 533 644 636
f 539 644 533
f 534 533 637
f 533 636 637
f 535 534 638
f 534 637 638
f 536 535 639
f 535 638 639
f 537 536 640
f 536 639 640
f 635 532 537
f 640 635 537
f 538 643 645
f 540 538 645
f 645 541 540
f 649 541 645
f 539 542 644
f 644 542 650
f 541 649 651
f 543 541 651
f 545 652 547
f 545 543 652
f 543 651 652
f 652 654 547
f 544 546 548
f 544 548 655
f 544 655 542
f 542 655 650
f 547 553 549
f 545 547 549
f 656 547 654
f 553 547 656
f 548 550 554
f 546 550 548
f 657 655 548
f 554 657 548
f 549 553 551
f 553 656 658
f 553 658 551
f 551 658 552
f 554 550 552
f 554 552 659
f 659 552 658
f 657 554 659
f 561 660 664
f 561 556 555
f 561 555 660
f 660 555 661
f 557 562 662
f 557 662 555
f 555 662 661
f 562 563 663
f 662 562 663
f 663 563 665
f 558 568 564
f 561 664 668
f 561 668 558
f 561 558 559
f 568 558 668
f 556 561 559
f 557 560 562
f 565 562 560
f 565 569 562
f 569 563 562
f 669 665 563
f 569 669 563
f 566 670 675
f 570 566 675
f 568 566 564
f 568 671 566
f 671 670 566
f 668 671 568
f 565 567 569
f 571 573 672
f 567 571 672
f 567 672 669
f 567 669 569
f 672 573 676
f 572 677 679
f 574 572 679
f 675 572 570
f 677 572 675
f 573 575 576
f 571 575 573
f 680 676 573
f 576 680 573
f 574 679 577
f 679 684 577
f 576 578 581
f 575 578 576
f 681 680 576
f 681 576 582
f 582 576 581
f 681 582 685
f 579 686 690
f 583 579 690
f 684 579 577
f 686 579 684
f 578 580 581
f 584 581 580
f 584 586 581
f 586 582 581
f 687 685 582
f 687 582 587
f 587 582 586
f 687 587 691
f 585 592 588
f 692 583 690
f 692 592 583
f 692 593 592
f 592 585 583
f 692 695 593
f 586 589 594
f 584 589 586
f 587 586 595
f 595 586 594
f 696 691 587
f 595 696 587
f 590 598 596
f 590 588 592
f 590 592 598
f 598 592 599
f 699 593 697
f 699 599 593
f 599 592 593
f 695 697 593
f 589 591 594
f 597 594 591
f 597 600 594
f 600 595 594
f 700 696 595
f 600 700 595
f 598 604 601
f 596 598 601
f 599 605 598
f 605 604 598
f 704 599 699
f 605 599 704
f 600 602 606
f 597 602 600
f 701 700 600
f 701 600 607
f 607 600 606
f 701 607 705
f 601 604 603
f 608 603 604
f 608 604 612
f 612 604 605
f 706 605 704
f 706 613 605
f 613 612 605
f 706 707 613
f 606 609 614
f 602 609 606
f 607 606 615
f 615 606 614
f 708 705 607
f 615 708 607
f 608 612 610
f 616 610 612
f 616 612 619
f 619 612 613
f 710 613 707
f 619 613 710
f 609 611 614
f 617 614 611
f 617 620 614
f 620 615 614
f 711 708 615
f 620 711 615
f 619 623 621
f 616 619 621
f 714 619 710
f 623 619 714
f 617 618 620
f 620 618 622
f 620 622 711
f 711 622 715
f 623 627 624
f 621 623 624
f 716 623 714
f 716 628 623
f 628 627 623
f 716 719 628
f 622 625 715
f 715 625 720
f 624 627 626
f 629 626 627
f 629 627 632
f 632 627 628
f 724 628 719
f 632 628 724
f 633 725 721
f 633 721 720
f 633 720 630
f 630 720 625
f 632 641 634
f 629 632 634
f 726 632 724
f 726 642 632
f 642 641 632
f 726 729 642
f 631 725 633
f 631 635 725
f 635 730 725
f 630 631 633
f 641 646 643
f 634 641 643
f 642 647 641
f 647 646 641
f 737 642 729
f 647 642 737
f 636 644 648
f 738 636 648
f 738 731 636
f 731 637 636
f 638 637 732
f 637 731 732
f 639 638 733
f 638 732 733
f 640 639 734
f 639 733 734
f 730 635 640
f 734 730 640
f 643 646 645
f 649 645 646
f 649 646 653
f 653 646 647
f 742 647 737
f 653 647 742
f 648 743 739
f 648 644 743
f 644 650 743
f 738 648 739
f 649 653 651
f 653 742 744
f 653 744 651
f 651 744 652
f 744 654 652
f 747 654 744
f 650 655 743
f 743 655 748
f 654 747 656
f 747 750 656
f 655 657 748
f 748 657 751
f 656 750 752
f 658 656 752
f 659 658 753
f 658 752 753
f 751 657 659
f 753 751 659
f 660 666 664
f 759 666 660
f 759 660 755
f 755 660 661
f 662 756 661
f 661 756 755
f 663 757 662
f 662 757 756
f 665 667 758
f 665 758 663
f 663 758 757
f 758 667 760
f 666 673 668
f 664 666 668
f 765 666 759
f 673 666 765
f 667 669 674
f 665 669 667
f 766 760 667
f 674 766 667
f 670 767 772
f 675 670 772
f 671 768 670
f 670 768 767
f 673 671 668
f 673 769 671
f 769 768 671
f 765 769 673
f 669 672 674
f 676 678 770
f 672 676 770
f 672 770 766
f 672 766 674
f 770 678 773
f 677 774 776
f 679 677 776
f 772 677 675
f 774 677 772
f 678 680 682
f 676 680 678
f 775 773 678
f 775 678 683
f 683 678 682
f 775 683 777
f 778 688 684
f 778 684 776
f 776 684 679
f 778 779 688
f 680 681 682
f 685 682 681
f 685 689 682
f 689 683 682
f 780 777 683
f 689 780 683
f 686 693 690
f 686 684 688
f 686 688 693
f 693 688 694
f 781 688 779
f 694 688 781
f 685 687 689
f 689 687 691
f 689 691 780
f 780 691 782
f 690 693 692
f 783 693 694
f 783 695 693
f 783 786 695
f 692 693 695
f 781 783 694
f 784 696 698
f 784 782 696
f 782 691 696
f 784 698 787
f 697 702 699
f 697 789 702
f 697 695 789
f 695 786 789
f 698 700 703
f 696 700 698
f 790 787 698
f 703 790 698
f 702 791 793
f 702 793 699
f 699 793 704
f 789 791 702
f 700 701 703
f 703 701 705
f 703 705 790
f 790 705 794
f 704 793 795
f 706 704 795
f 707 796 709
f 707 706 796
f 706 795 796
f 796 799 709
f 705 708 794
f 794 708 800
f 709 712 710
f 707 709 710
f 801 709 799
f 801 713 709
f 713 712 709
f 801 802 713
f 708 711 800
f 800 711 803
f 712 717 714
f 710 712 714
f 713 718 712
f 718 717 712
f 804 713 802
f 718 713 804
f 711 715 803
f 803 715 805
f 714 717 716
f 719 716 717
f 719 717 722
f 722 717 718
f 808 718 804
f 722 718 808
f 723 809 806
f 723 806 805
f 723 805 720
f 720 805 715
f 722 727 724
f 719 722 724
f 810 722 808
f 810 728 722
f 728 727 722
f 810 811 728
f 721 809 723
f 721 725 809
f 725 812 809
f 720 721 723
f 724 727 726
f 729 726 727
f 729 727 735
f 735 727 728
f 815 728 811
f 735 728 815
f 736 816 813
f 736 813 812
f 736 812 730
f 730 812 725
f 735 740 737
f 729 735 737
f 820 735 815
f 740 735 820
f 731 738 741
f 821 731 741
f 821 817 731
f 817 732 731
f 733 732 818
f 732 817 818
f 816 736 734
f 816 734 818
f 818 734 733
f 730 734 736
f 740 745 742
f 737 740 742
f 826 740 820
f 745 740 826
f 739 743 746
f 739 746 827
f 738 739 827
f 738 827 822
f 738 822 741
f 821 741 822
f 742 745 744
f 747 828 749
f 744 828 747
f 744 826 828
f 744 745 826
f 828 832 749
f 746 833 829
f 746 743 833
f 743 748 833
f 827 746 829
f 749 754 750
f 747 749 750
f 836 749 832
f 754 749 836
f 748 751 833
f 833 751 837
f 750 754 752
f 754 836 838
f 754 838 752
f 752 838 753
f 837 751 753
f 838 837 753
f 755 761 759
f 755 756 762
f 761 755 762
f 756 757 763
f 762 756 763
f 757 758 764
f 763 757 764
f 758 760 764
f 761 840 843
f 761 843 759
f 759 843 765
f 762 840 761
f 841 840 762
f 763 841 762
f 842 841 763
f 842 771 844
f 842 763 771
f 763 764 771
f 760 766 771
f 764 760 771
f 767 845 853
f 772 767 853
f 768 846 767
f 767 846 845
f 769 847 768
f 768 847 846
f 843 769 765
f 847 769 843
f 771 848 844
f 766 848 771
f 766 770 848
f 770 849 848
f 849 770 773
f 854 849 773
f 774 855 859
f 776 774 859
f 853 774 772
f 855 774 853
f 773 856 854
f 775 856 773
f 856 775 777
f 860 856 777
f 776 859 861
f 778 776 861
f 861 779 778
f 865 779 861
f 777 780 860
f 860 780 866
f 779 865 781
f 865 871 781
f 867 782 785
f 867 866 782
f 866 780 782
f 867 785 872
f 783 788 786
f 783 876 788
f 783 781 876
f 781 871 876
f 782 784 785
f 785 784 787
f 785 787 872
f 872 787 877
f 788 792 789
f 786 788 789
f 881 788 876
f 792 788 881
f 787 790 877
f 877 790 882
f 791 797 793
f 791 789 792
f 791 792 797
f 797 792 798
f 886 792 881
f 798 792 886
f 790 794 882
f 882 794 887
f 793 797 795
f 796 795 797
f 798 796 797
f 798 799 796
f 798 886 799
f 886 891 799
f 794 800 887
f 887 800 892
f 799 891 893
f 801 799 893
f 893 802 801
f 897 802 893
f 800 803 892
f 892 803 898
f 802 897 804
f 897 902 804
f 807 903 899
f 807 899 898
f 807 898 805
f 805 898 803
f 804 902 808
f 902 905 808
f 806 903 807
f 806 809 903
f 809 906 903
f 805 806 807
f 808 905 907
f 810 808 907
f 811 908 814
f 811 810 908
f 810 907 908
f 908 912 814
f 809 812 906
f 906 812 913
f 814 819 815
f 811 814 815
f 916 814 912
f 819 814 916
f 813 917 914
f 816 917 813
f 913 812 813
f 914 913 813
f 819 823 820
f 815 819 820
f 918 819 916
f 918 824 819
f 824 823 819
f 918 921 824
f 817 821 825
f 922 817 825
f 922 919 817
f 919 818 817
f 917 816 818
f 919 917 818
f 823 830 826
f 820 823 826
f 824 831 823
f 831 830 823
f 926 824 921
f 831 824 926
f 822 927 923
f 827 927 822
f 825 821 822
f 825 822 924
f 924 822 923
f 922 825 924
f 826 830 828
f 832 828 830
f 832 830 834
f 834 830 831
f 929 829 926
f 929 835 829
f 926 829 831
f 833 834 829
f 831 829 834
f 829 835 930
f 829 930 827
f 827 930 927
f 834 839 836
f 832 834 836
f 833 837 839
f 833 839 834
f 929 931 835
f 930 835 931
f 836 839 838
f 837 838 839
f 840 850 843
f 840 841 851
f 850 840 851
f 841 842 852
f 851 841 852
f 842 844 852
f 845 857 853
f 939 857 845
f 939 845 933
f 933 845 846
f 847 934 846
f 846 934 933
f 850 847 843
f 850 935 847
f 935 934 847
f 851 935 850
f 936 935 851
f 852 936 851
f 937 936 852
f 844 937 852
f 844 848 937
f 848 938 937
f 858 940 938
f 858 938 849
f 849 938 848
f 849 854 858
f 855 862 859
f 855 853 857
f 855 857 862
f 862 857 863
f 947 857 939
f 863 857 947
f 858 941 940
f 864 948 941
f 856 864 941
f 856 941 858
f 856 858 854
f 856 860 864
f 859 862 861
f 865 861 862
f 865 862 868
f 868 862 863
f 949 863 947
f 949 869 863
f 869 868 863
f 949 956 869
f 870 948 864
f 957 948 870
f 860 866 870
f 864 860 870
f 868 873 871
f 865 868 871
f 869 874 868
f 874 873 868
f 963 869 956
f 874 869 963
f 870 958 957
f 875 964 958
f 867 875 958
f 867 958 870
f 867 870 866
f 867 872 875
f 873 878 876
f 871 873 876
f 874 879 873
f 879 878 873
f 969 874 963
f 879 874 969
f 880 964 875
f 970 964 880
f 872 877 880
f 875 872 880
f 878 883 881
f 876 878 881
f 879 884 878
f 884 883 878
f 974 879 969
f 884 879 974
f 885 970 880
f 975 970 885
f 877 882 885
f 880 877 885
f 883 888 886
f 881 883 886
f 884 889 883
f 889 888 883
f 979 884 974
f 889 884 979
f 890 975 885
f 980 975 890
f 882 887 890
f 885 882 890
f 888 894 891
f 886 888 891
f 889 895 888
f 895 894 888
f 984 889 979
f 895 889 984
f 896 980 890
f 985 980 896
f 887 892 896
f 890 887 896
f 891 894 893
f 897 893 894
f 897 894 900
f 900 894 895
f 989 895 984
f 900 895 989
f 901 985 896
f 990 985 901
f 892 898 901
f 896 892 901
f 900 904 902
f 897 900 902
f 994 900 989
f 904 900 994
f 899 990 901
f 899 903 990
f 903 995 990
f 898 899 901
f 904 909 905
f 902 904 905
f 996 904 994
f 996 910 904
f 910 909 904
f 996 1002 910
f 911 1003 997
f 911 997 995
f 911 995 906
f 906 995 903
f 905 909 907
f 908 907 909
f 910 908 909
f 910 912 908
f 910 1002 912
f 1002 1006 912
f 915 1003 911
f 1007 1003 915
f 906 913 915
f 911 906 915
f 912 1006 916
f 1006 1011 916
f 920 1012 1008
f 1007 920 1008
f 915 920 1007
f 915 917 920
f 915 914 917
f 913 914 915
f 916 1011 1013
f 918 916 1013
f 921 1014 925
f 921 918 1014
f 918 1013 1014
f 1014 1019 925
f 919 1012 920
f 919 922 1012
f 922 1020 1012
f 917 919 920
f 925 928 926
f 921 925 926
f 927 1021 923
f 927 925 1021
f 927 928 925
f 1019 1021 925
f 924 923 1022
f 923 1021 1022
f 1020 922 924
f 1022 1020 924
f 928 932 929
f 926 928 929
f 927 930 932
f 928 927 932
f 929 932 931
f 930 931 932
f 933 942 939
f 933 934 943
f 942 933 943
f 934 935 944
f 943 934 944
f 935 936 945
f 944 935 945
f 1026 945 936
f 1026 936 1025
f 1025 936 937
f 946 1027 1025
f 946 1025 938
f 938 1025 937
f 938 940 946
f 942 950 947
f 939 942 947
f 943 951 942
f 951 950 942
f 944 952 943
f 952 951 943
f 945 953 944
f 953 952 944
f 1029 945 1026
f 953 945 1029
f 954 1027 946
f 1030 1027 954
f 940 941 955
f 940 955 946
f 946 955 954
f 941 948 955
f 947 950 949
f 956 949 950
f 956 950 959
f 959 950 951
f 952 960 951
f 960 959 951
f 953 961 952
f 961 960 952
f 1033 953 1029
f 961 953 1033
f 954 1031 1030
f 1031 962 1034
f 1031 954 962
f 954 955 962
f 948 957 962
f 955 948 962
f 959 965 963
f 956 959 963
f 960 966 959
f 966 965 959
f 961 967 960
f 967 966 960
f 1038 961 1033
f 967 961 1038
f 962 1035 1034
f 968 1039 1035
f 958 968 1035
f 958 1035 962
f 958 962 957
f 958 964 968
f 965 971 969
f 963 965 969
f 966 972 965
f 972 971 965
f 967 973 966
f 973 972 966
f 1043 967 1038
f 973 967 1043
f 968 1040 1039
f 1040 968 964
f 1040 964 1044
f 1044 964 970
f 971 976 974
f 969 971 974
f 972 977 971
f 977 976 971
f 973 978 972
f 978 977 972
f 1047 973 1043
f 978 973 1047
f 970 975 1044
f 1044 975 1048
f 976 981 979
f 974 976 979
f 977 982 976
f 982 981 976
f 978 983 977
f 983 982 977
f 1051 978 1047
f 983 978 1051
f 975 980 1048
f 1048 980 1052
f 981 986 984
f 979 981 984
f 982 987 981
f 987 986 981
f 983 988 982
f 988 987 982
f 1055 983 1051
f 988 983 1055
f 980 985 1052
f 1052 985 1056
f 986 991 989
f 984 986 989
f 987 992 986
f 992 991 986
f 988 993 987
f 993 992 987
f 1059 988 1055
f 993 988 1059
f 985 990 1056
f 1056 990 1060
f 991 998 994
f 989 991 994
f 992 999 991
f 999 998 991
f 993 1000 992
f 1000 999 992
f 1065 993 1059
f 1000 993 1065
f 1001 1066 1061
f 1001 1061 1060
f 1001 1060 995
f 995 1060 990
f 994 998 996
f 1002 996 998
f 1002 998 1004
f 1004 998 999
f 1000 1005 999
f 1005 1004 999
f 1069 1000 1065
f 1005 1000 1069
f 997 1066 1001
f 997 1003 1066
f 1003 1070 1066
f 995 997 1001
f 1004 1009 1006
f 1002 1004 1006
f 1076 1005 1071
f 1076 1009 1005
f 1009 1004 1005
f 1069 1071 1005
f 1010 1077 1072
f 1010 1072 1070
f 1010 1070 1007
f 1007 1070 1003
f 1009 1015 1011
f 1006 1009 1011
f 1078 1009 1076
f 1078 1016 1009
f 1016 1015 1009
f 1016 1079 1017
f 1078 1079 1016
f 1017 1080 1018
f 1079 1080 1017
f 1077 1018 1080
f 1010 1018 1077
f 1010 1012 1018
f 1010 1008 1012
f 1007 1008 1010
f 1011 1015 1013
f 1014 1013 1015
f 1016 1014 1015
f 1019 1014 1016
f 1019 1016 1023
f 1023 1016 1017
f 1018 1024 1017
f 1024 1023 1017
f 1012 1020 1024
f 1018 1012 1024
f 1019 1023 1021
f 1022 1021 1023
f 1024 1022 1023
f 1020 1022 1024
f 1025 1028 1026
f 1025 1027 1028
f 1028 1032 1029
f 1026 1028 1029
f 1027 1030 1032
f 1028 1027 1032
f 1032 1036 1033
f 1029 1032 1033
f 1030 1031 1037
f 1030 1037 1032
f 1032 1037 1036
f 1031 1034 1037
f 1036 1041 1038
f 1033 1036 1038
f 1085 1037 1084
f 1085 1041 1037
f 1041 1036 1037
f 1042 1086 1084
f 1035 1042 1084
f 1035 1084 1037
f 1035 1037 1034
f 1035 1039 1042
f 1041 1045 1043
f 1038 1041 1043
f 1089 1041 1085
f 1045 1041 1089
f 1042 1087 1086
f 1046 1090 1087
f 1040 1046 1087
f 1040 1087 1042
f 1040 1042 1039
f 1040 1044 1046
f 1045 1049 1047
f 1043 1045 1047
f 1093 1045 1089
f 1049 1045 1093
f 1050 1090 1046
f 1094 1090 1050
f 1044 1048 1050
f 1046 1044 1050
f 1049 1053 1051
f 1047 1049 1051
f 1097 1049 1093
f 1053 1049 1097
f 1054 1094 1050
f 1098 1094 1054
f 1048 1052 1054
f 1050 1048 1054
f 1053 1057 1055
f 1051 1053 1055
f 1101 1053 1097
f 1057 1053 1101
f 1058 1098 1054
f 1102 1098 1058
f 1052 1056 1058
f 1054 1052 1058
f 1057 1062 1059
f 1055 1057 1059
f 1103 1057 1101
f 1103 1063 1057
f 1063 1062 1057
f 1103 1106 1063
f 1064 1102 1058
f 1107 1102 1064
f 1056 1060 1064
f 1058 1056 1064
f 1062 1067 1065
f 1059 1062 1065
f 1063 1068 1062
f 1068 1067 1062
f 1109 1063 1106
f 1068 1063 1109
f 1061 1107 1064
f 1061 1066 1107
f 1066 1110 1107
f 1060 1061 1064
f 1067 1073 1069
f 1065 1067 1069
f 1068 1074 1067
f 1074 1073 1067
f 1111 1068 1109
f 1111 1075 1068
f 1075 1074 1068
f 1075 1111 1110
f 1075 1110 1070
f 1070 1110 1066
f 1071 1081 1076
f 1071 1069 1073
f 1071 1073 1081
f 1081 1073 1082
f 1074 1083 1073
f 1083 1082 1073
f 1072 1077 1083
f 1072 1083 1075
f 1075 1083 1074
f 1070 1072 1075
f 1076 1081 1078
f 1079 1078 1081
f 1082 1079 1081
f 1080 1079 1082
f 1083 1080 1082
f 1077 1080 1083
f 1084 1088 1085
f 1084 1086 1088
f 1088 1091 1089
f 1085 1088 1089
f 1086 1087 1092
f 1086 1092 1088
f 1088 1092 1091
f 1087 1090 1092
f 1091 1095 1093
f 1089 1091 1093
f 1092 1096 1091
f 1096 1095 1091
f 1090 1094 1096
f 1092 1090 1096
f 1095 1099 1097
f 1093 1095 1097
f 1096 1100 1095
f 1100 1099 1095
f 1094 1098 1100
f 1096 1094 1100
f 1099 1104 1101
f 1097 1099 1101
f 1100 1105 1099
f 1105 1104 1099
f 1098 1102 1105
f 1100 1098 1105
f 1101 1104 1103
f 1106 1103 1104
f 1106 1104 1108
f 1108 1104 1105
f 1102 1107 1108
f 1105 1102 1108
f 1108 1112 1109
f 1106 1108 1109
f 1107 1110 1112
f 1108 1107 1112
f 1109 1112 1111
f 1110 1111 1112
