v 0.001932933 -0.001918691 0.001147297
v 0.001932933 -0.001918691 0.001147298
v 0.001832811 -0.001918691 0.00124742
v 0.001932933 -0.001918691 0.001147298
v 0.001932933 -0.00191869 0.001147298
v 0.001932934 -0.001918691 0.001147298
v 0.001932933 -0.001918691 0.001147299
v 0.002133181 -0.001718445 0.00124742
v 0.001443336 -0.001818568 0.001347544
v 0.001477591 -0.001818567 0.001347544
v 0.001532442 -0.001818567 0.001347544
v 0.001587292 -0.001818568 0.001347544
v 0.001832811 -0.001918691 0.00124742
v 0.001621547 -0.001818567 0.001347544
v 0.001832811 -0.001918691 0.00124742
v 0.001832811 -0.00191869 0.00124742
v 0.001832811 -0.001918691 0.00124742
v 0.001832811 -0.001918691 0.001247421
v 0.002133179 -0.001718445 0.00124742
v 0.002033057 -0.001718445 0.001347543
v 0.002133181 -0.001718445 0.00124742
v 0.002133181 -0.001718445 0.00124742
v 0.002133182 -0.001718445 0.00124742
v 0.002133181 -0.001718445 0.001247421
v 0.001430588 -0.001818567 0.001347544
v 0.001443336 -0.001818566 0.001347544
v 0.001443336 -0.001818568 0.001347543
v 0.001443336 -0.001818567 0.001347543
v 0.001477591 -0.001818566 0.001347543
v 0.001477591 -0.001818568 0.001347544
v 0.001477591 -0.001818568 0.001347543
v 0.001532442 -0.001818567 0.001347544
v 0.001532442 -0.001818568 0.001347544
v 0.001532442 -0.001818567 0.001347543
v 0.001532442 -0.001718445 0.001447667
v 0.001587292 -0.001818566 0.001347544
v 0.001587292 -0.001818568 0.001347543
v 0.001587292 -0.001818567 0.001347543
v 0.001758606 -0.001550459 0.001446657
v 0.001621547 -0.001818566 0.001347543
v 0.001621547 -0.001818568 0.001347544
v 0.001634295 -0.001818567 0.001347544
v 0.001621547 -0.001818568 0.001347543
v 0.00177897 -0.001544439 0.001447069
v 0.001783125 -0.001537098 0.001447323
v 0.001805518 -0.001536624 0.00144758
v 0.001809406 -0.001529801 0.00144784
v 0.001816164 -0.001521334 0.001448144
v 0.002033056 -0.001718445 0.001347544
v 0.001830791 -0.001524302 0.001448219
v 0.001835535 -0.001516807 0.001448493
v 0.002033057 -0.001718445 0.001347544
v 0.002033057 -0.001718445 0.001347544
v 0.002033058 -0.001718445 0.001347544
v 0.002033057 -0.001718445 0.001347544
v 0.0009960042 -0.001662168 0.001537504
v 0.00104412 -0.001661207 0.001544423
v 0.001113599 -0.001671639 0.001545199
v 0.001119921 -0.001652322 0.001557218
v 0.001196297 -0.001677449 0.001546311
v 0.001206819 -0.001656925 0.001558407
v 0.001304323 -0.001669358 0.001549814
v 0.001532442 -0.001718445 0.001447667
v 0.001394788 -0.001674205 0.001542847
v 0.001404112 -0.001646247 0.001555088
v 0.001450903 -0.001611892 0.001565939
v 0.001532442 -0.001718445 0.001447667
v 0.001532442 -0.001718445 0.001447667
v 0.001532442 -0.001718445 0.001447667
v 0.00175141 -0.001554911 0.001446434
v 0.001532442 -0.001718445 0.001447667
v 0.001444907 -0.001653224 0.001547826
v 0.001759804 -0.001552907 0.001446593
v 0.001756818 -0.00155061 0.00144661
v 0.001765571 -0.001544509 0.001446893
v 0.001764537 -0.001550103 0.001446702
v 0.00178121 -0.001546215 0.001447012
v 0.001778114 -0.001537278 0.001447238
v 0.001798087 -0.001527613 0.001447735
v 0.00179398 -0.001539099 0.001447326
v 0.001782157 -0.001537948 0.001447237
v 0.001742586 -0.001379172 0.001619158
v 0.001806056 -0.001537563 0.001447523
v 0.001822129 -0.001516726 0.001448311
v 0.001824167 -0.001530043 0.001447953
v 0.00182286 -0.001528464 0.001447954
v 0.001815993 -0.001525605 0.001447949
v 0.00181175 -0.001522524 0.001448003
v 0.001838089 -0.001522043 0.001448333
v 0.001835689 -0.001512764 0.001448591
v 0.001844457 -0.001516085 0.001448591
v 0.001844451 -0.001512137 0.001448697
v 0.001839148 -0.001517534 0.001448458
v 0.001833179 -0.001514691 0.001448474
v 0.0009839274 -0.001663226 0.001535058
v 0.0009990208 -0.00166443 0.001536553
v 0.0009988232 -0.001662193 0.001537964
v 0.00100184 -0.001664455 0.001537013
v 0.001039692 -0.001668298 0.001539845
v 0.001025773 -0.001658033 0.001544302
v 0.001092207 -0.00167393 0.001542832
v 0.001057358 -0.001660766 0.001546652
v 0.00110186 -0.001470179 0.001674181
v 0.001148568 -0.001679598 0.001543882
v 0.001096115 -0.00163724 0.001564945
v 0.001144503 -0.001668332 0.001550422
v 0.0011466 -0.001633623 0.001572023
v 0.001147241 -0.001497578 0.001654218
v 0.00113038 -0.001462678 0.001674699
v 0.001222746 -0.001677466 0.001547452
v 0.001177223 -0.00161504 0.00158233
v 0.001258458 -0.001618216 0.001582574
v 0.001234423 -0.001653145 0.001562857
v 0.001248761 -0.001543494 0.00161895
v 0.00121177 -0.001474317 0.001658077
v 0.001317198 -0.001675754 0.001547376
v 0.001299017 -0.001654328 0.001559956
v 0.001375927 -0.001636165 0.001564028
v 0.001418016 -0.001595959 0.001578339
v 0.001342339 -0.001657712 0.001556338
v 0.001322775 -0.001568999 0.001605217
v 0.001386422 -0.001538553 0.001606971
v 0.001350493 -0.001466629 0.001641352
v 0.001384892 -0.00167786 0.001543081
v 0.001450229 -0.001557383 0.001589333
v 0.001418182 -0.001678596 0.00153985
v 0.001481613 -0.001561887 0.001585037
v 0.001418311 -0.001664903 0.001546586
v 0.001420589 -0.001625939 0.001565138
v 0.001492592 -0.001467692 0.001618135
v 0.001473486 -0.001404892 0.001647658
v 0.001441255 -0.001667492 0.001542296
v 0.001467223 -0.001629252 0.001556444
v 0.001461566 -0.001653479 0.001546252
v 0.001456585 -0.001639652 0.001553638
v 0.001583054 -0.001454444 0.001614242
v 0.001609598 -0.001399526 0.001624684
v 0.001582129 -0.001374165 0.001637962
v 0.001716615 -0.001393477 0.001620248
v 0.00165396 -0.001427536 0.001622172
v 0.00168111 -0.00138607 0.001622238
v 0.001683645 -0.001333492 0.001634022
v 0.001738854 -0.001382578 0.001621476
v 0.001733892 -0.001370403 0.001620729
v 0.001749735 -0.001359585 0.001623425
v 0.001740389 -0.001330109 0.001628898
v 0.001750146 -0.001284121 0.001637953
v 0.001771192 -0.001282255 0.001637466
v 0.0005981528 -0.001617468 0.001743746
v 0.0006381706 -0.001590552 0.001756792
v 0.0006907323 -0.001570523 0.001760219
v 0.0007138636 -0.001551147 0.001770682
v 0.0007750891 -0.001543786 0.001761231
v 0.001091345 -0.001471604 0.001675066
v 0.0008336318 -0.001536264 0.001752915
v 0.001103757 -0.001481537 0.001668231
v 0.001098087 -0.001464897 0.001678672
v 0.001099832 -0.001456146 0.001682377
v 0.001103179 -0.001477195 0.001671639
v 0.001124648 -0.001498126 0.001657663
v 0.001113129 -0.00144834 0.001685357
v 0.00116622 -0.001560335 0.001617399
v 0.001147309 -0.001478001 0.001668516
v 0.00122002 -0.001598008 0.001596893
v 0.001161269 -0.001448752 0.001679623
v 0.001248182 -0.001527529 0.001635815
v 0.001250268 -0.001471274 0.001663594
v 0.001208688 -0.001450366 0.001675667
v 0.001282132 -0.001317952 0.001748036
v 0.001288682 -0.001571132 0.001610615
v 0.001269282 -0.001444035 0.001667266
v 0.001343691 -0.001561506 0.001611387
v 0.001384277 -0.001416588 0.001662017
v 0.00134959 -0.001530412 0.001626509
v 0.001343908 -0.001475715 0.001652162
v 0.001327964 -0.001435892 0.00166798
v 0.001282135 -0.001317951 0.001748036
v 0.001413821 -0.001560822 0.001599678
v 0.001470495 -0.001384342 0.001661641
v 0.001463141 -0.001472091 0.001637906
v 0.001436758 -0.001423444 0.001660444
v 0.001425384 -0.001401262 0.001666781
v 0.001432318 -0.001217828 0.001748036
v 0.001549256 -0.001480432 0.001618424
v 0.001555991 -0.001359183 0.001653539
v 0.001588784 -0.001429685 0.001638281
v 0.001549251 -0.001400129 0.001652468
v 0.001512343 -0.001378254 0.001661522
v 0.001582501 -0.001117706 0.001748036
v 0.001630627 -0.00143684 0.001629166
v 0.001653254 -0.001321837 0.00164573
v 0.001670033 -0.001421478 0.001628378
v 0.001719611 -0.00128872 0.001642184
v 0.001665691 -0.001406571 0.001634841
v 0.001649878 -0.00137403 0.00164498
v 0.001627405 -0.001341171 0.001652307
v 0.001582504 -0.001117705 0.001748036
v 0.00170664 -0.001398044 0.001626539
v 0.001754109 -0.001267168 0.001643243
v 0.001740224 -0.001367107 0.001627184
v 0.001752428 -0.001324737 0.001633651
v 0.00171337 -0.001363856 0.001635683
v 0.001720815 -0.001314298 0.001643871
v 0.001714556 -0.001290163 0.001646622
v 0.001732688 -0.001017583 0.001748036
v 0.00176762 -0.001282015 0.001640755
v 0.001774301 -0.001261822 0.001641424
v 0.00177986 -0.00126305 0.001641573
v 0.001762176 -0.001269034 0.001643951
v 0.0005894908 -0.001624402 0.001739918
v 0.0006038459 -0.001615466 0.001743985
v 0.0005911962 -0.001621502 0.001742055
v 0.0006021451 -0.001614395 0.001745434
v 0.0005978221 -0.001517345 0.001838114
v 0.0006331503 -0.001597495 0.001752037
v 0.0006123065 -0.001601683 0.00175402
v 0.0006594122 -0.001545082 0.001791654
v 0.0006344683 -0.001586537 0.001761485
v 0.0006146199 -0.001523862 0.001826317
v 0.0006679479 -0.001574966 0.001762519
v 0.0007418685 -0.001514103 0.001793776
v 0.0007293146 -0.001543447 0.001773306
v 0.0006731754 -0.0015569 0.001777118
v 0.0007875751 -0.001468889 0.00181779
v 0.0008080991 -0.001530264 0.001764001
v 0.0007849362 -0.001528163 0.001771342
v 0.0008283461 -0.001525977 0.001762393
v 0.0008773766 -0.001420873 0.001833353
v 0.0008469361 -0.001532795 0.00175244
v 0.0008315209 -0.001534573 0.001754757
v 0.000853783 -0.001534905 0.001749098
v 0.0008524348 -0.001532778 0.001751104
v 0.0009585222 -0.001379866 0.001847335
v 0.0009617793 -0.001374883 0.001849638
v 0.001104521 -0.001451406 0.001685998
v 0.001023778 -0.001352091 0.001855804
v 0.001014371 -0.00135427 0.001855346
v 0.001114779 -0.001451561 0.001685912
v 0.001115418 -0.001443631 0.001688742
v 0.001134315 -0.001448481 0.001685033
v 0.00128213 -0.001317952 0.001748036
v 0.001108269 -0.00144424 0.001690081
v 0.001049197 -0.001342046 0.001858546
v 0.001282132 -0.001317951 0.001748036
v 0.001282132 -0.001317952 0.001748036
v 0.001282132 -0.001317951 0.001748035
v 0.001232072 -0.001217828 0.001848159
v 0.001282135 -0.001317951 0.001748036
v 0.001282135 -0.001317952 0.001748036
v 0.001282137 -0.001317952 0.001748036
v 0.001432318 -0.001217828 0.001748036
v 0.001282135 -0.001317952 0.001748035
v 0.001432318 -0.001217829 0.001748036
v 0.001432318 -0.001217828 0.001748036
v 0.001432319 -0.001217828 0.001748036
v 0.001582499 -0.001117706 0.001748036
v 0.001432318 -0.001217828 0.001748036
v 0.001582501 -0.001117705 0.001748036
v 0.001582501 -0.001117706 0.001748036
v 0.001582501 -0.001117705 0.001748035
v 0.001582504 -0.001117705 0.001748036
v 0.001582504 -0.001117706 0.001748036
v 0.001582506 -0.001117706 0.001748036
v 0.001732687 -0.001017583 0.001748036
v 0.001582504 -0.001117706 0.001748035
v 0.001632564 -0.001017583 0.001848159
v 0.001732688 -0.001017583 0.001748036
v 0.001732688 -0.001017582 0.001748036
v 0.001732688 -0.001017583 0.001748036
v 0.001732688 -0.001017583 0.001748036
v 0.0005871786 -0.001517099 0.001842203
v 0.0005933932 -0.001520026 0.00183738
v 0.0006085298 -0.001512756 0.0018386
v 0.0006041009 -0.001515436 0.001837866
v 0.0005312107 -0.001418076 0.001948282
v 0.0006289701 -0.001522036 0.001823345
v 0.0006504512 -0.001509351 0.001826894
v 0.0007218941 -0.001494491 0.001815816
v 0.0006655024 -0.001502068 0.001828921
v 0.0007302494 -0.001317912 0.001948252
v 0.0006988025 -0.001519661 0.001802752
v 0.00076984 -0.001464524 0.0018263
v 0.0007926658 -0.00149374 0.001797185
v 0.0007767217 -0.001467594 0.00182385
v 0.0007528766 -0.001467261 0.001830387
v 0.0007313887 -0.001317949 0.001948282
v 0.0008783772 -0.001421832 0.001833299
v 0.0008313059 -0.001434408 0.001834276
v 0.0009189268 -0.001392433 0.001845613
v 0.0008873005 -0.001408427 0.001841992
v 0.0007325115 -0.001317987 0.001948311
v 0.0009654908 -0.001376194 0.001849286
v 0.0009687995 -0.001369004 0.001852345
v 0.0009917963 -0.001363011 0.001853832
v 0.0009711921 -0.001369079 0.001852574
v 0.001026119 -0.001200206 0.001947712
v 0.001021441 -0.001352485 0.001856072
v 0.001004343 -0.001355917 0.001855585
v 0.00104484 -0.001343938 0.001858153
v 0.001041493 -0.001344556 0.001858243
v 0.001025977 -0.001348843 0.001857455
v 0.001074895 -0.001185509 0.001947987
v 0.001055768 -0.001340049 0.001859087
v 0.001044035 -0.001342887 0.0018586
v 0.001061133 -0.001337846 0.001859674
v 0.001232072 -0.001217828 0.001848159
v 0.001055366 -0.001339491 0.001859429
v 0.001134109 -0.001167628 0.001948314
v 0.001145383 -0.001164221 0.001948359
v 0.001232072 -0.001217829 0.001848159
v 0.001232072 -0.001217828 0.001848159
v 0.001232073 -0.001217828 0.001848159
v 0.001232072 -0.001217828 0.001848159
v 0.001191844 -0.001150129 0.001948587
v 0.001222501 -0.001140815 0.001948732
v 0.001432318 -0.001017583 0.001948282
v 0.001632564 -0.001017583 0.001848159
v 0.001632564 -0.001017583 0.001848159
v 0.001632564 -0.001017582 0.001848159
v 0.001632564 -0.001017583 0.001848159
v 0.001632564 -0.001017583 0.001848159
v 0.0005312105 -0.001418076 0.001948282
v 0.000431087 -0.001317952 0.002048405
v 0.0005312107 -0.001418076 0.001948282
v 0.0005312107 -0.001418075 0.001948282
v 0.0005312109 -0.001418076 0.001948282
v 0.000729878 -0.001317899 0.001948241
v 0.0005312107 -0.001418076 0.001948282
v 0.0007304476 -0.001317917 0.001948257
v 0.0007300824 -0.001317906 0.001948246
v 0.0007305926 -0.001317922 0.001948259
v 0.0006813937 -0.001217829 0.002048406
v 0.0007316146 -0.001317955 0.001948286
v 0.0007312289 -0.001317945 0.001948276
v 0.0007318302 -0.001317964 0.00194829
v 0.0006813967 -0.001217829 0.002048406
v 0.0007326369 -0.001317991 0.001948312
v 0.0007324018 -0.001317985 0.001948308
v 0.0007329627 -0.001318003 0.001948322
v 0.001015117 -0.001203517 0.00194765
v 0.0007325272 -0.001317989 0.001948309
v 0.0009427668 -0.001077706 0.002048326
v 0.001033995 -0.001197834 0.00194776
v 0.001018494 -0.001202504 0.001947671
v 0.001035952 -0.001197251 0.001947776
v 0.0009463556 -0.001077394 0.002048394
v 0.0009462394 -0.001077488 0.002048388
v 0.001074531 -0.001185627 0.001947998
v 0.001049307 -0.001193232 0.00194785
v 0.001106786 -0.001175908 0.001948169
v 0.001090872 -0.001180714 0.001948096
v 0.0009499021 -0.001077093 0.002048461
v 0.0009499666 -0.001077156 0.002048458
v 0.001117037 -0.001172814 0.001948244
v 0.001158341 -0.001160323 0.001948435
v 0.001147585 -0.001163574 0.001948404
v 0.001146427 -0.001163931 0.001948397
v 0.00113904 -0.001166173 0.001948351
v 0.001185201 -0.001152156 0.001948572
v 0.001196455 -0.001148745 0.00194861
v 0.001188271 -0.00115124 0.001948586
v 0.001221692 -0.001141069 0.001948733
v 0.001225051 -0.001140042 0.001948738
v 0.001235531 -0.001136854 0.001948788
v 0.001432318 -0.001017583 0.001948282
v 0.001224242 -0.001140297 0.00194874
v 0.001432318 -0.001017583 0.001948282
v 0.001432318 -0.001017582 0.001948282
v 0.001432319 -0.001017583 0.001948282
v 0.001432318 -0.001017583 0.001948282
v 0.0004310869 -0.001317952 0.002048405
v 0.000431087 -0.001317952 0.002048405
v 0.000431087 -0.001317951 0.002048405
v 0.0004310871 -0.001317952 0.002048405
v 0.000431087 -0.001317952 0.002048406
v 0.0006813917 -0.001217829 0.002048405
v 0.0006813937 -0.001217829 0.002048406
v 0.0006813937 -0.00121783 0.002048405
v 0.0006813937 -0.001217829 0.002048404
v 0.0006313338 -0.001117706 0.002148527
v 0.0006813967 -0.001217829 0.002048405
v 0.0006813967 -0.00121783 0.002048406
v 0.0006813987 -0.001217829 0.002048405
v 0.0009415227 -0.00107777 0.002048306
v 0.0006813967 -0.001217829 0.002048404
v 0.0007314566 -0.001017583 0.002148527
v 0.0009432911 -0.00107761 0.002048339
v 0.0009420453 -0.001077772 0.002048314
v 0.0009436715 -0.001077696 0.002048341
v 0.000943613 -0.001077606 0.002048345
v 0.0009469549 -0.00107731 0.002048408
v 0.0009465709 -0.001077499 0.002048394
v 0.0009480625 -0.001077273 0.002048427
v 0.0009450176 -0.001077572 0.002048368
v 0.0009505641 -0.001077041 0.002048474
v 0.0009492837 -0.001077274 0.002048443
v 0.0009519337 -0.001076966 0.002048496
v 0.0009515123 -0.001077058 0.002048486
v 0.0009513811 -0.001077029 0.002048487
v 0.0009492029 -0.00107726 0.002048444
v 0.0006313336 -0.001117706 0.002148528
v 0.0006313338 -0.001117707 0.002148528
v 0.0006313338 -0.001117706 0.002148528
v 0.000631334 -0.001117706 0.002148528
v 0.0007314564 -0.001017583 0.002148528
v 0.0006313338 -0.001117706 0.002148529
v 0.0007314566 -0.001017583 0.002148528
v 0.0007314566 -0.001017582 0.002148528
v 0.0007314567 -0.001017583 0.002148528
v 0.0007314566 -0.001017583 0.002148529
f 1 2 4
f 2 1 5
f 1 4 6
f 5 1 6
f 3 13 15
f 13 3 16
f 2 7 4
f 3 15 17
f 3 17 16
f 2 5 7
f 4 7 6
f 5 6 7
f 8 19 21
f 19 8 22
f 8 21 23
f 22 8 23
f 9 25 26
f 25 9 27
f 10 9 26
f 29 10 26
f 30 27 9
f 10 30 9
f 11 10 29
f 32 11 29
f 33 30 10
f 11 33 10
f 12 11 32
f 36 12 32
f 37 33 11
f 12 37 11
f 14 12 36
f 40 14 36
f 41 37 12
f 14 41 12
f 13 18 15
f 14 40 42
f 16 18 13
f 41 14 42
f 15 18 17
f 16 17 18
f 20 49 52
f 49 20 53
f 19 24 21
f 20 52 54
f 20 54 53
f 19 22 24
f 21 24 23
f 22 23 24
f 25 28 26
f 25 27 28
f 28 31 29
f 26 28 29
f 27 30 31
f 28 27 31
f 31 34 32
f 29 31 32
f 34 31 30
f 34 30 33
f 35 63 67
f 63 35 68
f 34 38 36
f 32 34 36
f 33 37 38
f 33 38 34
f 67 69 35
f 70 73 39
f 68 35 69
f 70 39 74
f 38 43 40
f 36 38 40
f 37 41 43
f 38 37 43
f 44 39 73
f 77 44 73
f 75 74 39
f 75 39 45
f 45 39 44
f 75 45 78
f 40 43 42
f 41 42 43
f 46 44 77
f 83 46 77
f 45 44 47
f 47 44 46
f 79 78 45
f 79 45 48
f 48 45 47
f 79 48 84
f 46 83 85
f 85 89 50
f 85 50 46
f 46 50 47
f 48 47 51
f 51 47 50
f 90 84 48
f 51 90 48
f 49 55 52
f 49 53 55
f 50 89 91
f 51 50 91
f 92 51 91
f 90 51 92
f 52 55 54
f 53 54 55
f 56 95 96
f 95 56 97
f 57 56 96
f 99 57 96
f 100 97 56
f 57 100 56
f 58 101 104
f 99 101 58
f 99 58 57
f 57 58 59
f 105 100 57
f 59 105 57
f 60 58 104
f 110 60 104
f 59 58 61
f 61 58 60
f 111 105 59
f 61 111 59
f 62 60 110
f 116 62 110
f 117 112 61
f 117 61 62
f 62 61 60
f 111 61 112
f 64 62 116
f 124 64 116
f 118 117 62
f 118 62 65
f 65 62 64
f 65 66 119
f 118 65 119
f 119 66 125
f 63 71 67
f 64 124 126
f 68 71 63
f 72 64 132
f 72 65 64
f 64 126 132
f 133 127 66
f 133 66 72
f 72 66 65
f 125 66 127
f 67 71 69
f 69 71 68
f 70 76 73
f 132 134 72
f 72 134 133
f 70 74 76
f 76 80 77
f 73 76 77
f 74 75 81
f 74 81 76
f 76 81 80
f 78 81 75
f 82 139 143
f 139 82 144
f 80 86 83
f 77 80 83
f 81 87 80
f 87 86 80
f 143 145 82
f 78 79 81
f 81 79 88
f 81 88 87
f 82 145 144
f 79 84 88
f 83 86 85
f 89 85 86
f 89 86 93
f 93 86 87
f 88 94 87
f 94 93 87
f 84 90 94
f 88 84 94
f 89 93 91
f 92 91 93
f 94 92 93
f 90 92 94
f 95 98 96
f 95 97 98
f 98 102 99
f 96 98 99
f 102 98 97
f 102 97 100
f 103 154 156
f 154 103 157
f 101 106 104
f 101 99 102
f 101 102 106
f 106 102 107
f 100 105 102
f 105 107 102
f 156 108 103
f 156 160 108
f 158 157 103
f 158 103 109
f 109 103 108
f 158 109 161
f 106 113 110
f 104 106 110
f 164 107 162
f 164 113 107
f 113 106 107
f 108 162 114
f 108 160 162
f 114 162 111
f 107 105 162
f 111 162 105
f 109 108 115
f 115 108 114
f 165 161 109
f 115 165 109
f 113 120 116
f 110 113 116
f 170 112 164
f 170 121 112
f 164 112 113
f 117 120 112
f 113 112 120
f 112 114 111
f 112 121 114
f 121 122 114
f 115 114 123
f 123 114 122
f 171 165 115
f 123 171 115
f 120 128 124
f 116 120 124
f 170 172 121
f 117 118 120
f 120 118 129
f 120 129 128
f 121 178 122
f 121 172 178
f 122 178 119
f 129 118 178
f 119 178 118
f 125 122 119
f 125 130 122
f 130 123 122
f 173 171 123
f 173 123 131
f 131 123 130
f 173 131 179
f 124 128 126
f 132 126 128
f 132 128 135
f 135 128 129
f 184 127 178
f 184 136 127
f 178 127 129
f 133 135 127
f 129 127 135
f 127 130 125
f 127 136 130
f 136 137 130
f 131 130 138
f 138 130 137
f 185 179 131
f 138 185 131
f 132 135 134
f 184 190 140
f 184 140 136
f 133 134 135
f 137 136 141
f 141 136 140
f 138 137 142
f 142 137 141
f 191 185 138
f 142 191 138
f 140 190 192
f 139 198 143
f 139 140 198
f 139 141 140
f 140 192 198
f 144 141 139
f 144 146 141
f 146 142 141
f 193 191 142
f 193 142 147
f 147 142 146
f 193 147 199
f 143 198 200
f 145 143 200
f 146 144 145
f 146 145 201
f 201 145 200
f 201 206 148
f 201 148 146
f 146 148 147
f 207 199 147
f 148 207 147
f 148 206 208
f 207 148 208
f 149 210 211
f 210 149 212
f 150 149 211
f 215 150 211
f 216 212 149
f 150 216 149
f 151 150 215
f 220 151 215
f 217 216 150
f 217 150 152
f 152 150 151
f 217 152 221
f 151 220 222
f 222 225 153
f 222 153 151
f 151 153 152
f 226 221 152
f 153 226 152
f 155 153 225
f 229 155 225
f 230 226 153
f 155 230 153
f 154 159 156
f 155 229 231
f 155 231 230
f 154 157 159
f 159 163 160
f 156 159 160
f 157 163 159
f 157 235 163
f 157 158 235
f 235 238 163
f 235 158 161
f 239 235 161
f 162 166 164
f 162 160 163
f 162 163 166
f 166 163 167
f 240 163 238
f 240 168 163
f 168 167 163
f 241 244 169
f 239 165 240
f 239 161 165
f 165 168 240
f 241 169 245
f 166 174 170
f 164 166 170
f 167 175 166
f 175 174 166
f 168 176 167
f 176 175 167
f 165 171 168
f 171 176 168
f 244 177 169
f 244 248 177
f 249 245 169
f 177 249 169
f 170 174 172
f 178 172 174
f 178 174 180
f 180 174 175
f 176 181 175
f 181 180 175
f 248 250 177
f 171 173 176
f 176 173 182
f 176 182 181
f 173 179 182
f 250 249 177
f 183 251 253
f 251 183 254
f 180 186 184
f 178 180 184
f 181 187 180
f 187 186 180
f 182 188 181
f 188 187 181
f 179 185 188
f 179 188 182
f 253 255 183
f 256 258 189
f 254 183 255
f 256 189 259
f 186 194 190
f 184 186 190
f 187 195 186
f 195 194 186
f 188 196 187
f 196 195 187
f 185 191 196
f 188 185 196
f 197 189 258
f 261 197 258
f 262 259 189
f 197 262 189
f 190 194 192
f 198 192 194
f 198 194 202
f 202 194 195
f 196 203 195
f 203 202 195
f 191 193 204
f 191 204 196
f 196 204 203
f 197 261 263
f 199 204 193
f 264 267 205
f 262 197 263
f 264 205 268
f 198 202 200
f 201 200 202
f 203 201 202
f 206 201 203
f 206 203 209
f 209 203 204
f 199 207 209
f 204 199 209
f 205 267 269
f 268 205 269
f 206 209 208
f 207 208 209
f 210 213 211
f 212 213 210
f 214 271 272
f 271 214 273
f 213 218 215
f 211 213 215
f 212 216 213
f 216 218 213
f 272 219 214
f 272 276 219
f 277 273 214
f 219 277 214
f 218 223 220
f 215 218 220
f 218 217 223
f 218 216 217
f 223 217 281
f 219 276 217
f 281 217 276
f 221 224 278
f 217 221 278
f 217 278 277
f 217 277 219
f 278 224 282
f 220 223 222
f 225 283 227
f 222 283 225
f 222 281 283
f 222 223 281
f 226 283 221
f 226 227 283
f 221 283 224
f 287 228 283
f 224 283 228
f 288 282 224
f 228 288 224
f 227 232 229
f 225 227 229
f 226 230 227
f 230 232 227
f 287 233 228
f 287 292 233
f 289 288 228
f 289 228 234
f 234 228 233
f 289 234 293
f 229 232 231
f 292 297 236
f 292 236 233
f 230 231 232
f 234 233 237
f 237 233 236
f 298 293 234
f 237 298 234
f 235 242 238
f 236 297 299
f 239 242 235
f 243 236 303
f 243 237 236
f 236 299 303
f 304 298 237
f 243 304 237
f 238 242 240
f 240 242 239
f 241 246 244
f 303 305 243
f 241 245 246
f 305 304 243
f 247 306 310
f 306 247 311
f 246 252 248
f 244 246 248
f 245 249 252
f 245 252 246
f 310 312 247
f 311 247 312
f 248 252 250
f 249 250 252
f 251 257 253
f 251 254 257
f 253 257 255
f 254 255 257
f 256 260 258
f 256 259 260
f 260 265 261
f 258 260 261
f 265 260 259
f 265 259 262
f 266 317 318
f 317 266 319
f 261 265 263
f 263 265 262
f 264 270 267
f 318 320 266
f 266 320 319
f 264 268 270
f 267 270 269
f 268 269 270
f 271 274 272
f 273 274 271
f 275 322 324
f 322 275 325
f 274 279 276
f 272 274 276
f 273 277 279
f 273 279 274
f 324 326 275
f 327 329 280
f 325 275 326
f 327 280 330
f 279 284 281
f 276 279 281
f 277 278 285
f 277 285 279
f 279 285 284
f 286 280 329
f 286 329 333
f 285 278 282
f 334 330 280
f 286 334 280
f 281 284 283
f 287 283 284
f 287 284 290
f 290 284 285
f 282 288 285
f 288 290 285
f 333 291 286
f 333 337 291
f 338 334 286
f 291 338 286
f 290 294 292
f 287 290 292
f 337 339 291
f 288 289 290
f 290 289 295
f 290 295 294
f 289 293 295
f 339 338 291
f 296 340 343
f 340 296 344
f 294 300 297
f 292 294 297
f 295 301 294
f 301 300 294
f 293 298 295
f 298 301 295
f 343 302 296
f 343 348 302
f 349 344 296
f 302 349 296
f 297 300 299
f 303 299 300
f 303 300 307
f 307 300 301
f 298 304 301
f 304 307 301
f 348 308 302
f 348 354 308
f 350 349 302
f 350 302 309
f 309 302 308
f 350 309 355
f 303 307 305
f 305 307 304
f 306 313 310
f 354 356 308
f 311 313 306
f 314 308 359
f 314 309 308
f 308 356 359
f 360 355 309
f 314 360 309
f 310 313 312
f 359 362 315
f 359 315 314
f 311 312 313
f 363 360 314
f 315 363 314
f 315 362 364
f 365 367 316
f 363 315 364
f 365 316 368
f 316 367 369
f 368 316 369
f 317 321 318
f 317 319 321
f 318 321 320
f 319 320 321
f 323 371 372
f 371 323 373
f 322 328 324
f 323 372 374
f 325 328 322
f 373 323 374
f 324 328 326
f 325 326 328
f 327 331 329
f 330 331 327
f 332 376 377
f 376 332 378
f 331 335 333
f 329 331 333
f 330 334 331
f 334 335 331
f 377 336 332
f 377 381 336
f 382 378 332
f 336 382 332
f 335 341 337
f 333 335 337
f 334 338 341
f 334 341 335
f 381 383 336
f 384 387 342
f 382 336 383
f 384 342 388
f 337 341 339
f 338 339 341
f 340 345 343
f 346 342 387
f 346 387 391
f 345 340 344
f 389 388 342
f 389 342 347
f 347 342 346
f 389 347 392
f 345 351 348
f 343 345 348
f 344 349 345
f 349 351 345
f 391 352 346
f 391 395 352
f 347 346 353
f 353 346 352
f 396 392 347
f 353 396 347
f 351 357 354
f 348 351 354
f 395 397 352
f 349 350 351
f 351 350 358
f 351 358 357
f 397 398 353
f 397 353 352
f 350 355 358
f 396 353 398
f 354 357 356
f 359 356 357
f 359 357 361
f 361 357 358
f 355 360 361
f 358 355 361
f 361 366 362
f 359 361 362
f 360 363 366
f 361 360 366
f 362 366 364
f 363 364 366
f 365 370 367
f 365 368 370
f 367 370 369
f 368 369 370
f 371 375 372
f 371 373 375
f 372 375 374
f 373 374 375
f 376 379 377
f 378 379 376
f 380 401 402
f 401 380 403
f 379 385 381
f 377 379 381
f 378 382 385
f 378 385 379
f 402 404 380
f 405 407 386
f 403 380 404
f 405 386 408
f 381 385 383
f 382 383 385
f 384 390 387
f 386 407 409
f 388 390 384
f 408 386 409
f 390 393 391
f 387 390 391
f 388 389 394
f 388 394 390
f 390 394 393
f 389 392 394
f 393 399 395
f 391 393 395
f 394 400 393
f 400 399 393
f 392 396 400
f 394 392 400
f 395 399 397
f 398 397 399
f 400 398 399
f 396 398 400
f 401 406 402
f 401 403 406
f 402 406 404
f 403 404 406
f 405 410 407
f 405 408 410
f 407 410 409
f 408 409 410
