v 0.000667039 -0.002618259 0.0002829588
v 0.0006670028 -0.002618251 0.0002830337
v 0.001532749 -0.002418014 0.0002474778
v 0.0006671186 -0.00261826 0.0002828792
v 0.0006670585 -0.002618246 0.0002829547
v 0.0006671146 -0.002618273 0.0002828988
v 0.0006670641 -0.002618248 0.0002830014
v 0.0006670437 -0.002618268 0.0002829996
v 0.0006670123 -0.002618258 0.0002830589
v 0.0006670811 -0.002618263 0.0002830017
v 0.001532744 -0.002418014 0.0002474824
v 0.001532749 -0.002418018 0.0002474824
v 0.001532749 -0.002418009 0.0002474824
v 0.001532753 -0.002418014 0.0002474824
v 0.001532749 -0.002418014 0.0002474869
v 0.0006671936 -0.002618268 0.0002828431
v 0.0006671594 -0.002618251 0.000282884
v 0.0006671612 -0.002618271 0.0002829045
v 0.0006671615 -0.002618256 0.0002829215
v 0.0006672187 -0.002618261 0.0002828529
v 0.0005315187 -0.00261826 0.000547847
v 0.0005315141 -0.00261826 0.0005478517
v 0.0005315187 -0.002618264 0.0005478517
v 0.0005315187 -0.002618255 0.0005478517
v 0.0005315234 -0.00261826 0.0005478517
v 0.0005315187 -0.00261826 0.0005478561
v 0.001032134 -0.00261826 0.0006479695
v 0.001032129 -0.00261826 0.0006479742
v 0.0009320105 -0.00261826 0.0007480928
v 0.001032134 -0.002618264 0.0006479742
v 0.001032134 -0.002618255 0.0006479742
v 0.001032138 -0.00261826 0.0006479742
v 0.001032134 -0.00261826 0.0006479789
v 0.001432626 -0.002518137 0.0007981295
v 0.0006316411 -0.00261826 0.0008482162
v 0.0009320058 -0.00261826 0.0007480975
v 0.0009320105 -0.002618264 0.0007480975
v 0.0009320105 -0.002618255 0.0007480975
v 0.0009320151 -0.00261826 0.0007480975
v 0.0009320105 -0.00261826 0.0007481023
v 0.001432649 -0.002518127 0.000798146
v 0.001432617 -0.002518113 0.000798146
v 0.001432635 -0.002518159 0.000798146
v 0.001432603 -0.002518146 0.000798146
v 0.0006316367 -0.00261826 0.0008482209
v 0.0006316411 -0.002618264 0.0008482209
v 0.0006316411 -0.002618255 0.0008482209
v 0.0006316458 -0.00261826 0.0008482209
v 0.0006316411 -0.00261826 0.0008482253
v 0.001082182 -0.002518146 0.0009483668
v 0.001082209 -0.002518127 0.0009483668
v 0.001432649 -0.002518146 0.0007981728
v 0.001432635 -0.002518113 0.0007981728
v 0.001432617 -0.002518159 0.0007981728
v 0.001432603 -0.002518127 0.0007981728
v 0.001432626 -0.002518137 0.0007981893
v 0.001082166 -0.002518137 0.0009483437
v 0.001082182 -0.002518113 0.0009483531
v 0.001082182 -0.002518159 0.0009483346
v 0.001082182 -0.002518127 0.0009483209
v 0.001082209 -0.002518113 0.0009483346
v 0.001082209 -0.002518159 0.0009483531
v 0.001082225 -0.002518137 0.0009483437
v 0.001082209 -0.002518146 0.0009483209
f 1 4 5
f 4 1 6
f 2 1 5
f 7 2 5
f 8 6 1
f 2 8 1
f 2 7 9
f 8 2 9
f 3 11 12
f 11 3 13
f 3 12 14
f 13 3 14
f 4 16 17
f 5 4 17
f 16 4 6
f 18 16 6
f 19 10 7
f 19 7 17
f 17 7 5
f 10 19 18
f 10 18 8
f 8 18 6
f 7 10 9
f 8 9 10
f 11 15 12
f 11 13 15
f 12 15 14
f 13 14 15
f 16 20 17
f 16 18 20
f 17 20 19
f 18 19 20
f 21 22 23
f 22 21 24
f 21 23 25
f 24 21 25
f 22 26 23
f 22 24 26
f 23 26 25
f 24 25 26
f 27 28 30
f 28 27 31
f 27 30 32
f 31 27 32
f 29 36 37
f 36 29 38
f 28 33 30
f 29 37 39
f 29 39 38
f 28 31 33
f 30 33 32
f 31 32 33
f 34 41 42
f 41 34 43
f 34 42 44
f 43 34 44
f 35 45 46
f 45 35 47
f 35 46 48
f 47 35 48
f 36 40 37
f 36 38 40
f 37 40 39
f 38 39 40
f 41 52 53
f 42 41 53
f 52 41 43
f 54 52 43
f 42 53 55
f 44 42 55
f 54 43 44
f 55 54 44
f 45 49 46
f 45 47 49
f 46 49 48
f 47 48 49
f 50 57 58
f 57 50 59
f 51 50 58
f 61 51 58
f 62 59 50
f 51 62 50
f 51 61 63
f 62 51 63
f 52 56 53
f 52 54 56
f 53 56 55
f 54 55 56
f 57 60 58
f 57 59 60
f 60 64 61
f 58 60 61
f 59 62 64
f 60 59 64
f 61 64 63
f 62 63 64
