v 0.0008791554 -0.002770443 -0.00006809284
v 0.0008723349 -0.00266817 -0.00007339286
v 0.0008767532 -0.002584124 -0.00006849247
v 0.0009738793 -0.002797225 -0.00008964292
v 0.0009551725 -0.002688562 -0.00009720371
v 0.0009497133 -0.002594066 -0.00009131181
v 0.000948743 -0.002517472 -0.00006728253
v 0.001046233 -0.002865092 -0.0000833271
v 0.001064639 -0.002774202 -0.0001068319
v 0.00104672 -0.002695901 -0.0001126228
v 0.00103785 -0.0026018 -0.0001090084
v 0.001033881 -0.002520224 -0.00009086772
v 0.001035198 -0.00246404 -0.00006081774
v 0.001137127 -0.002878131 -0.00008028754
v 0.001136343 -0.002794747 -0.0001026967
v 0.001137449 -0.00270055 -0.0001163598
v 0.001133747 -0.002604908 -0.00011693
v 0.001128628 -0.002517427 -0.0001021099
v 0.001118947 -0.002454581 -0.00007181911
v 0.00122036 -0.002813958 -0.00009008074
v 0.001225391 -0.002714237 -0.0001075969
v 0.001231763 -0.002609732 -0.0001141396
v 0.00123254 -0.002510967 -0.0001053282
v 0.001223637 -0.002436485 -0.00007551036
v 0.001299668 -0.002734584 -0.00009102884
v 0.001330498 -0.002622544 -0.00009903737
v 0.001333243 -0.002511154 -0.000101026
v 0.001343654 -0.002409481 -0.00007978299
v 0.001422992 -0.002516222 -0.00008500893
v 0.001427486 -0.00242137 -0.00008248564
v 0.00145082 -0.002337231 -0.00006627183
v 0.001489645 -0.002435214 -0.00006363221
v 0.001503248 -0.00235861 -0.00005580782
v 0.001516675 -0.002300307 -0.00004674831
v 0.0008162435 -0.002845332 -0.00002835341
v 0.0007935127 -0.002739028 -0.00003379656
v 0.0008116355 -0.002636658 -0.00004498468
v 0.0007480675 -0.002673596 -0.000006057322
v 0.0007797614 -0.002594446 -0.00001028743
v 0.0007941084 -0.00254989 0.00001246592
v 0.0008944024 -0.002868586 -0.00005401301
v 0.0008311824 -0.002573715 -0.00004468136
v 0.0008765163 -0.002536353 -0.00005056703
v 0.0008419026 -0.002984396 0.00001492832
v 0.0008446439 -0.002921292 -0.00001830537
v 0.0008357096 -0.002538517 -0.00001948782
v 0.0009618258 -0.002890914 -0.00006567021
v 0.0009109519 -0.002494619 -0.00002134282
v 0.0009969989 -0.00293915 -0.00005098361
v 0.0009812302 -0.002467228 -0.0000403292
v 0.0009055257 -0.003020826 0.00001768072
v 0.0009173677 -0.002954564 -0.00002682631
v 0.001075361 -0.002943603 -0.00005207005
v 0.00103482 -0.002440078 -0.00002509756
v 0.0009994488 -0.003007632 -0.000005817851
v 0.001154489 -0.002933146 -0.00005522785
v 0.001102159 -0.002424313 -0.00003004043
v 0.001200014 -0.002887309 -0.00007119619
v 0.001129604 -0.002999598 -0.00001170339
v 0.001255823 -0.00285942 -0.00006922091
v 0.001194089 -0.002402188 -0.00003171742
v 0.001291408 -0.002805356 -0.00007737819
v 0.001238306 -0.003005082 0.000006898678
v 0.001234342 -0.002928321 -0.00004050375
v 0.001346174 -0.002762409 -0.00006950484
v 0.001320426 -0.002361141 -0.00002216618
v 0.001378972 -0.002680801 -0.00007576281
v 0.001411577 -0.002598284 -0.00008044203
v 0.001400961 -0.002336252 -0.00005567246
v 0.001319407 -0.00301001 0.00002908916
v 0.001326601 -0.002936541 -0.000008394537
v 0.001330448 -0.002843759 -0.00004704029
v 0.001460468 -0.002553858 -0.00006566785
v 0.001445919 -0.002308613 -0.00005251511
v 0.001486335 -0.002497836 -0.00006054
v 0.001488499 -0.002291156 -0.00003602232
v 0.001397957 -0.00295428 0.00002688399
v 0.001424385 -0.002855623 -8.270346e-8
v 0.001421576 -0.002741064 -0.00003651259
v 0.001451357 -0.002627319 -0.00005185569
v 0.001427005 -0.002310036 -0.00002168899
v 0.001526256 -0.002460949 -0.00003516869
v 0.001526025 -0.002278328 -0.00003634222
v 0.001546488 -0.002392614 -0.00002358129
v 0.001560044 -0.002315947 -0.000007612809
v 0.00154044 -0.002283473 -0.00003050242
v 0.00149678 -0.002761193 0.00001795066
v 0.001504169 -0.00265526 -0.000001765611
v 0.001513308 -0.002544337 -0.00002523745
v 0.00153735 -0.002282903 -2.574682e-7
v 0.001607959 -0.002320432 0.00005086371
v 0.0004776685 -0.002741457 0.0001675142
v 0.0005409363 -0.002797784 0.0001283504
v 0.0005339101 -0.002720926 0.0001487842
v 0.0006868182 -0.002699727 0.00004284872
v 0.0007233543 -0.00263298 0.00002770883
v 0.0007460528 -0.002582435 0.00003805336
v 0.0006209258 -0.002878562 0.00009480946
v 0.0006059878 -0.002800117 0.00009107708
v 0.000608649 -0.002727523 0.0001005509
v 0.0007223948 -0.002747106 0.000009051072
v 0.0007817531 -0.002544999 0.00004721856
v 0.0007833128 -0.002999393 0.00005411318
v 0.0007724231 -0.002922622 0.0000199496
v 0.0007405265 -0.002824666 0.000008068833
v 0.0007054997 -0.002963356 0.00007925215
v 0.0006978704 -0.002880729 0.00004853739
v 0.0006655088 -0.002795279 0.00005328767
v 0.0007414504 -0.002568588 0.00008180609
v 0.0008449459 -0.003044162 0.00005850598
v 0.0008445859 -0.002514254 0.00003089098
v 0.0007955416 -0.002534444 0.00009412852
v 0.0009349943 -0.003074032 0.00006097766
v 0.0009220724 -0.002478003 0.00003414937
v 0.0009844756 -0.002454166 0.00000413394
v 0.0009137102 -0.003114697 0.0001146441
v 0.0008863138 -0.002497488 0.0001023062
v 0.001049215 -0.003069041 0.00004563124
v 0.00107309 -0.002425775 0.000030292
v 0.0009888752 -0.003113602 0.0001040807
v 0.0009522436 -0.002481829 0.0001421204
v 0.0009874137 -0.002458378 0.00007856591
v 0.001158065 -0.00306402 0.0000446889
v 0.001155872 -0.0024006 0.00001253347
v 0.00108714 -0.003109576 0.00009821742
v 0.001252417 -0.003058277 0.0000515565
v 0.001238129 -0.002377162 0.00002945265
v 0.00118725 -0.003101253 0.00009675047
v 0.001311067 -0.003050032 0.00005698797
v 0.001317299 -0.002352676 0.00005137081
v 0.001372941 -0.003027334 0.00006689594
v 0.001288329 -0.00308321 0.00009713749
v 0.001448055 -0.002972176 0.00006123085
v 0.001401943 -0.002324872 0.00005035767
v 0.001474948 -0.002905978 0.0000420892
v 0.001500041 -0.002836587 0.00003536775
v 0.001483493 -0.0022941 0.00002429415
v 0.001451577 -0.003018375 0.000105347
v 0.001553089 -0.002791308 0.00007189055
v 0.00153903 -0.002291697 0.00006571226
v 0.001558853 -0.002689546 0.00006218582
v 0.001565165 -0.002577739 0.00004495685
v 0.001574753 -0.002460918 0.00002467253
v 0.001596851 -0.002366936 0.00003263561
v 0.001529325 -0.00300663 0.0001449226
v 0.00152207 -0.002941199 0.00009279956
v 0.001532932 -0.002867099 0.00006814257
v 0.001635106 -0.002348026 0.00008980562
v 0.00158944 -0.002297785 0.0000652547
v 0.00163182 -0.002316372 0.00009802476
v 0.001590842 -0.002947343 0.0001454439
v 0.001594536 -0.002857454 0.0001243385
v 0.0004371205 -0.00274694 0.0001843417
v 0.0003872105 -0.00283229 0.0002146395
v 0.0004529167 -0.002794541 0.000172454
v 0.000436855 -0.002720231 0.000200804
v 0.0005007909 -0.002850834 0.0001508407
v 0.0004333021 -0.002924233 0.0002088156
v 0.0004554033 -0.002863883 0.0001778392
v 0.0005506264 -0.002877608 0.0001307779
v 0.0004848255 -0.002693118 0.000198138
v 0.0005842611 -0.002931418 0.000131087
v 0.0005161379 -0.00300613 0.0002132645
v 0.0005184668 -0.0029236 0.0001643702
v 0.0006370114 -0.002962033 0.0001166053
v 0.0005727343 -0.002660932 0.0001690702
v 0.0006789841 -0.003013957 0.0001259993
v 0.0006766777 -0.002628965 0.00009476062
v 0.0006082575 -0.003061854 0.0002136987
v 0.0006038591 -0.002999794 0.0001606678
v 0.0006385506 -0.002611874 0.0001725958
v 0.0007627948 -0.003047393 0.0001071962
v 0.0007188672 -0.002573203 0.0001532463
v 0.0006919668 -0.003067596 0.0001729479
v 0.0008515096 -0.003091804 0.0001073314
v 0.0008080034 -0.002534581 0.0001712919
v 0.0008662101 -0.003121686 0.0001498352
v 0.0007921009 -0.003101881 0.0001612672
v 0.000930601 -0.003133107 0.0001588176
v 0.0008934487 -0.002510752 0.0001904177
v 0.001020829 -0.003135174 0.0001578577
v 0.0009742136 -0.002492718 0.0002063529
v 0.001012493 -0.002465402 0.0001473706
v 0.001074909 -0.002439306 0.0001157052
v 0.001118311 -0.003131161 0.0001542409
v 0.001166436 -0.002405321 0.00008599024
v 0.001135851 -0.002433999 0.0001606533
v 0.001213539 -0.003122031 0.0001512164
v 0.001265884 -0.002377923 0.000102732
v 0.001211896 -0.002414315 0.0001680481
v 0.001296172 -0.003111121 0.0001561276
v 0.001352171 -0.00235292 0.0001123755
v 0.00137049 -0.003073231 0.0001250658
v 0.001355341 -0.003102431 0.00017545
v 0.001302764 -0.002391809 0.0001803609
v 0.001441782 -0.003068716 0.0001747607
v 0.001412713 -0.002334764 0.0001149997
v 0.001485355 -0.002318532 0.0001202288
v 0.001406307 -0.002364739 0.0001858571
v 0.001546949 -0.003046833 0.0002128471
v 0.001579881 -0.002308707 0.0001414216
v 0.001591394 -0.002998202 0.000177066
v 0.001616297 -0.002737805 0.0001476113
v 0.001602215 -0.002622194 0.0001111072
v 0.001620607 -0.002511298 0.0001177717
v 0.001627367 -0.002408404 0.00009089665
v 0.001543948 -0.002327962 0.0001855475
v 0.001638664 -0.002961801 0.0001982727
v 0.001628116 -0.002812096 0.0001541515
v 0.001651491 -0.002375002 0.0001262078
v 0.001635459 -0.002311095 0.0001404592
v 0.001635784 -0.00290565 0.0001744969
v 0.00164551 -0.002851861 0.0001793093
v 0.001664679 -0.002345617 0.0001610479
v 0.00161941 -0.003012059 0.0002188081
v 0.001644361 -0.002800626 0.0001798724
v 0.001655788 -0.002507025 0.0002007792
v 0.001660367 -0.002423694 0.0001728655
v 0.001671877 -0.002989015 0.0002593589
v 0.001690531 -0.002337266 0.0002136055
v 0.0003031646 -0.002839944 0.0002717304
v 0.0002610985 -0.002988244 0.0003371958
v 0.000235561 -0.002927769 0.0003278666
v 0.000247283 -0.002879069 0.000311709
v 0.0003586895 -0.002896403 0.0002398186
v 0.000338647 -0.002778578 0.0002504606
v 0.0003810356 -0.002954293 0.0002451587
v 0.0003962907 -0.002751686 0.000217077
v 0.000328437 -0.003043555 0.0003298784
v 0.0003177956 -0.002999588 0.0003028429
v 0.0003073951 -0.002937995 0.0002842963
v 0.0003433178 -0.002732734 0.0002713551
v 0.000435008 -0.002990611 0.0002367955
v 0.0004069028 -0.002695726 0.0002612062
v 0.0004684646 -0.003038356 0.000257173
v 0.0003903055 -0.00306833 0.0003157781
v 0.0003842292 -0.00301715 0.0002797469
v 0.0005528815 -0.003080034 0.0002721054
v 0.0004997388 -0.002648517 0.0002657729
v 0.000621684 -0.003091879 0.0002470333
v 0.0005848621 -0.002621368 0.0002257286
v 0.0004563361 -0.0030776 0.0003013242
v 0.0006640103 -0.003094159 0.0002265941
v 0.000648942 -0.002592569 0.0002338375
v 0.0006600819 -0.003110197 0.0002821405
v 0.0007373919 -0.003110894 0.0002234972
v 0.0007318869 -0.002565785 0.0002440414
v 0.0007703997 -0.003126652 0.0002914065
v 0.0008461994 -0.003130331 0.0002132131
v 0.0008214781 -0.002544091 0.0002597257
v 0.0008782814 -0.003135811 0.0002938481
v 0.0009512929 -0.003141425 0.0002216265
v 0.0009110085 -0.002527345 0.0002752319
v 0.0009841628 -0.00313971 0.0002934798
v 0.001051696 -0.003142725 0.0002197207
v 0.001000217 -0.00251126 0.0002880874
v 0.001064699 -0.002468965 0.0002063783
v 0.001090039 -0.00313983 0.0002859067
v 0.001150102 -0.003139032 0.0002124655
v 0.001154068 -0.002454326 0.0002337288
v 0.001192358 -0.003137082 0.0002678843
v 0.001237858 -0.003131949 0.0002035671
v 0.001241169 -0.002437257 0.0002502167
v 0.001303809 -0.003122562 0.000200768
v 0.001270982 -0.003130718 0.000242689
v 0.001354729 -0.003112786 0.000237066
v 0.001337407 -0.002419839 0.0002675865
v 0.001458354 -0.003091206 0.0002564123
v 0.001452412 -0.002407741 0.0002982169
v 0.001498653 -0.002352734 0.0002152416
v 0.001535333 -0.003076812 0.0002803559
v 0.001548894 -0.00234525 0.0002272789
v 0.001655468 -0.002771551 0.0002180344
v 0.001652099 -0.002696053 0.0002356283
v 0.001640597 -0.002604802 0.0001936535
v 0.001597262 -0.002341619 0.0002311462
v 0.00155023 -0.002375999 0.0002806465
v 0.001612218 -0.003045159 0.000279635
v 0.001663962 -0.002828812 0.0002148217
v 0.001669262 -0.00254467 0.0002695017
v 0.001643423 -0.002322731 0.0001991626
v 0.001682848 -0.002901301 0.0002529993
v 0.001678894 -0.002466599 0.000253464
v 0.001698029 -0.002387191 0.0002701544
v 0.00167593 -0.002814492 0.0002586623
v 0.001670951 -0.002750352 0.0002817508
v 0.00166413 -0.002357451 0.0002678444
v 0.001679906 -0.003023498 0.000323174
v 0.001704584 -0.002962493 0.000278401
v 0.001696523 -0.002339827 0.0002318767
v 0.001673598 -0.002322452 0.0001922214
v 0.001709324 -0.002989697 0.0003035507
v 0.001691717 -0.002326523 0.0002162245
v 0.001741961 -0.002419292 0.0003681144
v 0.001683206 -0.002335926 0.0002290598
v 0.001768663 -0.002416415 0.0004085891
v 0.0001986432 -0.00299795 0.0003993632
v 0.0001998808 -0.002949619 0.0003660193
v 0.0001866111 -0.002884234 0.0003668652
v 0.0001623009 -0.002809297 0.0004088401
v 0.0001744464 -0.002753207 0.0004329789
v 0.0002651802 -0.003042761 0.0003852075
v 0.0002297013 -0.002817179 0.0003347555
v 0.0003238495 -0.00307497 0.0003740991
v 0.0002867953 -0.002765071 0.0003038045
v 0.0002257961 -0.002754083 0.0003754565
v 0.000366097 -0.003081724 0.0003458574
v 0.0003104558 -0.002706462 0.0003479547
v 0.0003709624 -0.003097734 0.0003871324
v 0.0004160416 -0.003095936 0.0003425621
v 0.0004021178 -0.002660351 0.0003555521
v 0.0004400683 -0.003111406 0.0003857965
v 0.0004662705 -0.003105687 0.0003412099
v 0.0004901135 -0.00262901 0.0003700074
v 0.0005116866 -0.00310304 0.0003249117
v 0.0005732267 -0.002611778 0.0002991615
v 0.0004994717 -0.003114603 0.0003673217
v 0.0005765117 -0.003113123 0.0003565265
v 0.0006525545 -0.002590114 0.0003198861
v 0.0006939574 -0.003121478 0.0003684047
v 0.0007421357 -0.002573967 0.000336957
v 0.0008057534 -0.003126216 0.0003745297
v 0.0008369185 -0.002560433 0.0003506037
v 0.0009140262 -0.003128493 0.0003754656
v 0.0009299614 -0.002548029 0.0003649727
v 0.001024225 -0.003129814 0.0003704157
v 0.001021687 -0.002534804 0.0003796184
v 0.001089094 -0.002495425 0.0003019956
v 0.001143343 -0.0031303 0.0003569869
v 0.001176029 -0.002480712 0.0003180694
v 0.001150833 -0.003121655 0.0004229292
v 0.001265681 -0.003128147 0.0003118927
v 0.001264897 -0.002466934 0.000335106
v 0.001216972 -0.003125059 0.0003917888
v 0.001376 -0.003115689 0.0003162763
v 0.001360497 -0.002456859 0.0003583349
v 0.001304976 -0.003122682 0.0003792523
v 0.001472581 -0.003099825 0.000341248
v 0.001449817 -0.002456602 0.0003911563
v 0.001388384 -0.003115931 0.0003845169
v 0.001558491 -0.003077498 0.0003350739
v 0.001566237 -0.002438351 0.0003917881
v 0.001661952 -0.002627154 0.0002783787
v 0.001631396 -0.002389118 0.0003225289
v 0.001621762 -0.003057847 0.0003651353
v 0.001666257 -0.002687319 0.0002968583
v 0.001675153 -0.002586676 0.0003340376
v 0.001705516 -0.002400223 0.0003575114
v 0.001720161 -0.002905198 0.0003549214
v 0.001693083 -0.002815398 0.0003359481
v 0.001678101 -0.002714749 0.0003486997
v 0.001697525 -0.002488508 0.0003553756
v 0.001670785 -0.002648845 0.0003375293
v 0.001687715 -0.002441843 0.0004060325
v 0.001687327 -0.003033921 0.0003947732
v 0.001721228 -0.00295555 0.0003171471
v 0.00174065 -0.00243429 0.0004030574
v 0.001739876 -0.002402855 0.0003662985
v 0.00172332 -0.002996774 0.0003629283
v 0.001736534 -0.002956022 0.0003730314
v 0.001770474 -0.002423183 0.0004360243
v 0.00176844 -0.002410925 0.000408133
v 0.001782096 -0.00241431 0.0004308154
v 0.00009958188 -0.002834364 0.0004854474
v 0.0001335714 -0.002778742 0.0004655544
v 0.00005379054 -0.002943339 0.0005467868
v 0.0001294715 -0.002874856 0.0004298776
v 0.0001552797 -0.002743358 0.0004831093
v 0.0001479033 -0.003000475 0.0004569584
v 0.0001435699 -0.002943136 0.0004242605
v 0.00009773139 -0.002972469 0.0004966858
v 0.00008879657 -0.002909129 0.0004857418
v 0.0002023035 -0.003041437 0.000453924
v 0.0002228159 -0.002713079 0.0004480592
v 0.0002923454 -0.003081453 0.0004424185
v 0.0003146698 -0.002672515 0.0004443172
v 0.0003850111 -0.003107848 0.0004531734
v 0.0004073851 -0.002643442 0.0004570298
v 0.0004945838 -0.003117062 0.0004418656
v 0.0004970581 -0.00262376 0.0004603078
v 0.0005708038 -0.002609099 0.0003883821
v 0.0005656293 -0.002613323 0.0004602077
v 0.0006144661 -0.003118139 0.0004538966
v 0.0006506775 -0.002599715 0.0004227628
v 0.0007320973 -0.003117127 0.0004607766
v 0.0007563126 -0.002588648 0.0004302461
v 0.0008440469 -0.003114837 0.0004642668
v 0.0008529414 -0.002579507 0.0004421699
v 0.0008414543 -0.003105005 0.0005213197
v 0.0009486533 -0.003114292 0.0004623535
v 0.0009468311 -0.002569451 0.0004588095
v 0.0008854747 -0.003105888 0.0005075535
v 0.001068812 -0.003116238 0.0004535618
v 0.001044374 -0.002556616 0.0004777997
v 0.001139375 -0.003113552 0.0004719237
v 0.001110559 -0.002519929 0.0003889573
v 0.001189287 -0.003118461 0.000443705
v 0.001195153 -0.00250654 0.0003997186
v 0.001191299 -0.003109267 0.000494806
v 0.001132589 -0.002536088 0.0004585005
v 0.001250553 -0.003118069 0.0004402258
v 0.001283661 -0.002496792 0.0004190979
v 0.001271844 -0.00310676 0.0004988887
v 0.001204688 -0.002529083 0.0004818063
v 0.00132878 -0.003115997 0.0004368143
v 0.001381804 -0.002491039 0.000442841
v 0.00135877 -0.003103866 0.0004883712
v 0.00130076 -0.002521072 0.0005028263
v 0.001391968 -0.003112268 0.0004342214
v 0.001492333 -0.002488215 0.000466905
v 0.001443711 -0.003106685 0.0004077732
v 0.00142985 -0.003101184 0.0004584625
v 0.001410263 -0.002519072 0.0005255317
v 0.00152004 -0.003083508 0.0004282394
v 0.001599068 -0.002486325 0.0004962814
v 0.001548931 -0.002533352 0.0005543042
v 0.001627056 -0.003053594 0.000450645
v 0.001659949 -0.002469331 0.0004674523
v 0.001711617 -0.002857168 0.0004513487
v 0.001689797 -0.002754164 0.0004136203
v 0.001674869 -0.002629794 0.000425758
v 0.001684078 -0.002508854 0.00046405
v 0.001729175 -0.002432166 0.0004386291
v 0.001641255 -0.002566619 0.0005308359
v 0.001694146 -0.003029483 0.0004604355
v 0.001735523 -0.002928655 0.0004144126
v 0.001740966 -0.002436241 0.0004438077
v 0.001752112 -0.002418037 0.0004285917
v 0.001723554 -0.003012141 0.0004220738
v 0.001738862 -0.002974894 0.0004287936
v 0.001731722 -0.002933011 0.0004730317
v 0.001719957 -0.00246446 0.0004959721
v 0.001761762 -0.002436965 0.0004740884
v 0.001777688 -0.002418895 0.0004484768
v 0.001781414 -0.002421691 0.0004544423
v 0.001772411 -0.002432046 0.0004790267
v 0.00003564508 -0.002965558 0.0006087456
v 0.0000688862 -0.002988783 0.0005575495
v 0.00002801837 -0.002922906 0.0005953775
v 0.00005275209 -0.002878386 0.0005537741
v 0.000071738 -0.002826544 0.0005446342
v 0.0001064438 -0.002779677 0.0005327294
v 0.00002579369 -0.002885255 0.0006201742
v 0.0001265053 -0.003024995 0.0005303103
v 0.0001655517 -0.002723101 0.0005475529
v 0.0001054142 -0.002759432 0.0006003162
v 0.0002083148 -0.00306954 0.0005310056
v 0.0002444788 -0.002686364 0.0005207105
v 0.0003021655 -0.003098671 0.0005354505
v 0.0003190517 -0.002661186 0.0005448558
v 0.0004088298 -0.003113836 0.0005431669
v 0.0004323022 -0.002638399 0.0005696851
v 0.00052185 -0.002622999 0.0005154148
v 0.000529926 -0.003116632 0.0005499035
v 0.000589872 -0.002616431 0.0005124139
v 0.0005268321 -0.002627375 0.0005709833
v 0.0006536276 -0.003111488 0.0005562615
v 0.0006770337 -0.002610058 0.0005121322
v 0.0006464169 -0.003106593 0.0006198282
v 0.0005974447 -0.002624112 0.0005900349
v 0.0007759457 -0.003104639 0.0005545071
v 0.0007728468 -0.00260407 0.0005192857
v 0.0008339477 -0.003101371 0.0005464578
v 0.0006963172 -0.003103466 0.0006042822
v 0.0006916202 -0.002620258 0.0005976397
v 0.000861407 -0.003101235 0.0005375659
v 0.000865686 -0.002597324 0.0005321769
v 0.0008511642 -0.003097984 0.0005750047
v 0.0007858099 -0.002616172 0.0006028469
v 0.0008873135 -0.003100231 0.000540959
v 0.0009558672 -0.002588085 0.000558703
v 0.0009228009 -0.003103042 0.0005237929
v 0.0009082706 -0.003097743 0.0005644657
v 0.0008688103 -0.002610618 0.0006132357
v 0.0009786376 -0.003100921 0.0005476358
v 0.001027897 -0.002574187 0.0005556699
v 0.001098763 -0.003100497 0.000548163
v 0.001105921 -0.002557119 0.0005471688
v 0.001198462 -0.003094577 0.0005701807
v 0.001211361 -0.002543118 0.0005702947
v 0.001300195 -0.003089671 0.000567109
v 0.001316616 -0.002534867 0.0005877516
v 0.001421078 -0.003081482 0.0005393194
v 0.001423381 -0.002536642 0.0006078108
v 0.001547718 -0.003055438 0.0005442997
v 0.001501964 -0.0025559 0.0006302815
v 0.001587997 -0.002610644 0.0006142339
v 0.001632717 -0.00250634 0.0005491158
v 0.001605821 -0.003023962 0.0005998263
v 0.001648411 -0.003033068 0.0005212001
v 0.001647591 -0.002652 0.0005332911
v 0.001646318 -0.002522348 0.0005623027
v 0.001688798 -0.002479401 0.0005322601
v 0.001703007 -0.002920084 0.0005811475
v 0.001698085 -0.002833584 0.0005390301
v 0.001680774 -0.002748267 0.0005092167
v 0.00173599 -0.002446963 0.0004878321
v 0.001674421 -0.002996944 0.0005667353
v 0.001679112 -0.002800162 0.0006195847
v 0.001646076 -0.002702512 0.000589857
v 0.001699922 -0.003013475 0.0005086091
v 0.001731416 -0.002966706 0.0004951789
v 0.001691232 -0.002505874 0.0005476326
v 0.001759415 -0.002436942 0.0004847056
v 0.001726267 -0.003001382 0.0004723958
v 0.001721461 -0.002479293 0.000539635
v 0.001743299 -0.002458754 0.0005210381
v 0.001715119 -0.002983891 0.0005244286
v 0.001704222 -0.002914872 0.0006723331
v 0.001734046 -0.00245975 0.0005231292
v 0.00002993884 -0.002973035 0.0006875691
v 0.00001562912 -0.002924967 0.0006569623
v 0.00007045327 -0.003010659 0.0006180977
v 0.00001855465 -0.002870008 0.0006850481
v 0.00005633546 -0.002821125 0.0006153451
v 0.0001344639 -0.003052617 0.0006171568
v 0.00008743705 -0.00276563 0.000675296
v 0.0001389935 -0.002727747 0.0006315041
v 0.0002163902 -0.003085809 0.0006211321
v 0.0002169586 -0.002690946 0.0006213405
v 0.0003129341 -0.0031073 0.0006351953
v 0.0003118243 -0.002661281 0.0006540548
v 0.000429426 -0.003117918 0.0006563756
v 0.0003885211 -0.002646467 0.000684526
v 0.0003954071 -0.003125094 0.0007438892
v 0.0005750568 -0.003112829 0.0006590044
v 0.0004940323 -0.002634299 0.0006633063
v 0.0006374088 -0.003105608 0.0006471339
v 0.0004719956 -0.003123354 0.0007336049
v 0.0006674262 -0.003102943 0.0006369312
v 0.0006037992 -0.002627748 0.000680807
v 0.000659369 -0.003103575 0.0006761036
v 0.0006957505 -0.003100476 0.0006401443
v 0.0007070865 -0.002624271 0.0006806657
v 0.0007352261 -0.003099552 0.0006215366
v 0.0007181602 -0.003098616 0.0006635325
v 0.0007865376 -0.00309634 0.000646671
v 0.0007986751 -0.002621077 0.0006755368
v 0.0008948245 -0.003092248 0.0006382134
v 0.0008690597 -0.002615202 0.0006769492
v 0.0009245723 -0.002603984 0.0006346572
v 0.0009185798 -0.002603973 0.0006846828
v 0.00100338 -0.003088307 0.0006481648
v 0.0009995491 -0.002582815 0.0006405489
v 0.001110269 -0.003083514 0.000656617
v 0.001115921 -0.002557938 0.0006510275
v 0.001217063 -0.003076703 0.0006607759
v 0.00122421 -0.00254266 0.000661079
v 0.001329989 -0.003067608 0.0006502928
v 0.001329572 -0.00253442 0.0006729699
v 0.00144633 -0.00305154 0.0006450819
v 0.001428452 -0.002536551 0.0006906526
v 0.00153561 -0.003037561 0.0006312304
v 0.001462916 -0.002531321 0.0007394391
v 0.001566246 -0.003017501 0.0006699511
v 0.001512678 -0.0025634 0.0006975419
v 0.00166253 -0.002783328 0.0007069665
v 0.001623422 -0.00269843 0.0006825367
v 0.001567135 -0.002615025 0.0007099897
v 0.001675389 -0.002504073 0.0005748981
v 0.001496457 -0.002543354 0.0007466372
v 0.001633169 -0.002984437 0.0006658978
v 0.001686351 -0.002826573 0.0006825506
v 0.001682859 -0.00250928 0.0005819257
v 0.001699073 -0.002493807 0.0005794077
v 0.001694638 -0.002502857 0.0005926453
v 0.001682358 -0.002940865 0.0007122376
v 0.001700194 -0.002874164 0.0006785123
v 0.001700482 -0.002501888 0.0005854397
v 0.001718328 -0.002479757 0.000560181
v 0.001703371 -0.002910866 0.0007170094
v 0.001716774 -0.002487656 0.0005659005
v 0.001708019 -0.002494897 0.000587469
v 0.00002705036 -0.002971878 0.0007779723
v 0.000010761 -0.002912165 0.0007477634
v 0.00007581421 -0.003024861 0.0007150316
v 0.00001471718 -0.002854887 0.0007512205
v 0.00003991203 -0.002814946 0.0007154104
v 0.00005565037 -0.003009415 0.0008077984
v 0.00003109302 -0.0028179 0.0007823643
v 0.0001475188 -0.00306679 0.0006944461
v 0.00007695422 -0.002767101 0.0007723592
v 0.0001424696 -0.002722129 0.0007085703
v 0.0002181693 -0.003092174 0.0007210669
v 0.0002191691 -0.002686366 0.0007343676
v 0.0003155447 -0.003116159 0.0007433148
v 0.0003067115 -0.002660609 0.0007592827
v 0.0003520979 -0.003128838 0.0007936347
v 0.0002983529 -0.003124295 0.0008258577
v 0.0004130129 -0.003132014 0.0008028787
v 0.0004036943 -0.002642093 0.0007676582
v 0.0004839805 -0.003129094 0.0008033263
v 0.0005085254 -0.002628843 0.0007719432
v 0.0005364434 -0.003119934 0.0007488527
v 0.00054248 -0.003123131 0.000801523
v 0.0006080522 -0.003112384 0.0007557974
v 0.0006219517 -0.002619969 0.0007786896
v 0.0006814717 -0.00260606 0.0008267144
v 0.0007110907 -0.003100119 0.0007340773
v 0.0007336196 -0.002619332 0.0007487662
v 0.0007696687 -0.002604193 0.0007989817
v 0.000812825 -0.003091578 0.0007411389
v 0.0008160698 -0.002616397 0.0007319116
v 0.0008739706 -0.002609557 0.0007223675
v 0.0008409271 -0.002602719 0.0007689942
v 0.0009153459 -0.00308421 0.0007470088
v 0.0009159856 -0.002587727 0.0007490743
v 0.001018403 -0.003077602 0.0007552864
v 0.001021184 -0.002561562 0.0007455794
v 0.001124223 -0.003069856 0.000762832
v 0.001131525 -0.00254203 0.0007469651
v 0.001239899 -0.003057442 0.0007642149
v 0.001239375 -0.002529166 0.0007481026
v 0.001301041 -0.003040054 0.0008164633
v 0.001354917 -0.003046329 0.0007313329
v 0.001340119 -0.002519861 0.0007577821
v 0.001412322 -0.002520053 0.0007518721
v 0.001388615 -0.003029298 0.0007928298
v 0.001429569 -0.003035306 0.0007255682
v 0.001432368 -0.00251526 0.0007832899
v 0.001498212 -0.003028615 0.0006980752
v 0.001461767 -0.003021196 0.000763718
v 0.001542336 -0.003002918 0.0007539321
v 0.001471546 -0.002527517 0.0007878209
v 0.001652211 -0.002794707 0.0007770979
v 0.001625608 -0.002731854 0.0007591867
v 0.001574186 -0.002646561 0.0007939771
v 0.001521143 -0.002566287 0.0007757914
v 0.001544775 -0.002615551 0.0008686974
v 0.001620669 -0.002969616 0.0007744553
v 0.001684515 -0.002839077 0.0007307478
v 0.001667295 -0.002942524 0.0007989628
v 0.001698132 -0.00288607 0.0007499143
v 0.001695273 -0.002920589 0.000768872
v 0.00001926189 -0.002915572 0.0008491942
v 0.00001748614 -0.00285746 0.0008140333
v 0.00003051247 -0.002972922 0.000847855
v 0.00004739521 -0.002800459 0.0008422186
v 0.00006807232 -0.003001863 0.000888188
v 0.00003446822 -0.002949096 0.0008992083
v 0.0001246856 -0.003054193 0.0007982664
v 0.00009350983 -0.002749559 0.0008567501
v 0.0001427875 -0.002717651 0.0008019062
v 0.0001406576 -0.002715748 0.0008710495
v 0.0002201598 -0.003099143 0.0008361458
v 0.0002140077 -0.002685027 0.000843913
v 0.0002726894 -0.003125684 0.0008995645
v 0.0003475708 -0.003135436 0.0008608163
v 0.000316447 -0.002652814 0.0008549217
v 0.0004334738 -0.003140527 0.000893517
v 0.000416013 -0.002629531 0.0008598579
v 0.000508744 -0.00313138 0.000850767
v 0.0005751708 -0.00312344 0.0008561893
v 0.0005152602 -0.002610015 0.000874269
v 0.0006028741 -0.002602911 0.0008644567
v 0.0005109694 -0.0031365 0.000905186
v 0.000654869 -0.003109577 0.0008208457
v 0.0006417609 -0.002588342 0.0008925836
v 0.0007340366 -0.003099903 0.0008344675
v 0.0007187392 -0.002582814 0.0008743368
v 0.0008302975 -0.003088899 0.0008448163
v 0.0008234484 -0.002575566 0.0008416449
v 0.0009277973 -0.003079751 0.0008545285
v 0.0009289797 -0.002552504 0.0008383283
v 0.001027426 -0.003071608 0.0008658382
v 0.001036215 -0.00252857 0.0008474841
v 0.001085752 -0.002498803 0.0009150173
v 0.001134573 -0.003060945 0.0008806633
v 0.001154727 -0.002518172 0.0008315107
v 0.001225726 -0.003048301 0.0008568001
v 0.001185984 -0.002495651 0.0009032401
v 0.001266761 -0.003039518 0.0008871173
v 0.001254303 -0.002510127 0.0008255639
v 0.001279466 -0.00249574 0.0008866938
v 0.001342167 -0.003028238 0.0008756475
v 0.001322706 -0.002504799 0.000826016
v 0.001381366 -0.002508298 0.0008027129
v 0.001348688 -0.00249909 0.000858899
v 0.00144938 -0.00301011 0.0008498176
v 0.00141301 -0.002507421 0.0008467485
v 0.001532128 -0.002637086 0.0009104459
v 0.001548365 -0.002980636 0.0008527385
v 0.001563909 -0.002661944 0.0008626431
v 0.001514612 -0.002585902 0.0009144769
v 0.001475157 -0.002528924 0.0008496941
v 0.001640727 -0.00281454 0.0008326706
v 0.001598247 -0.002735682 0.0008427267
v 0.001519802 -0.002568701 0.0008618028
v 0.001554559 -0.002688248 0.000897718
v 0.001616881 -0.00295173 0.0008541564
v 0.001675532 -0.002853202 0.000792824
v 0.001658232 -0.002928596 0.0008522624
v 0.001687929 -0.002897208 0.0008068272
v 0.001684889 -0.002923336 0.0008172555
v 0.001674315 -0.002908157 0.000844624
v 0.00003748477 -0.002842458 0.000889681
v 0.00004855009 -0.002890073 0.0009413334
v 0.00007670134 -0.002778893 0.0009107054
v 0.00009985919 -0.002994939 0.0009766016
v 0.00005821838 -0.002953013 0.0009480296
v 0.0001166417 -0.002735808 0.0009121796
v 0.00007150933 -0.002816036 0.0009508667
v 0.0001409926 -0.003054053 0.0009153633
v 0.0001642082 -0.002707625 0.0009149356
v 0.00009761094 -0.002832581 0.001005139
v 0.0001413151 -0.002743892 0.0009794548
v 0.0002081385 -0.00309895 0.0009460356
v 0.0002364795 -0.002674512 0.0009417447
v 0.0002578929 -0.003127013 0.0009713233
v 0.0002233577 -0.003107784 0.001011395
v 0.000290089 -0.002640851 0.001006391
v 0.0003313225 -0.003141991 0.000955357
v 0.0003385368 -0.002634192 0.0009375365
v 0.0003670428 -0.002610835 0.001002255
v 0.0004009288 -0.003150341 0.0009875364
v 0.0004246966 -0.002609716 0.0009392445
v 0.0004416555 -0.00258847 0.0009964305
v 0.0004844001 -0.003145676 0.0009875217
v 0.0004841973 -0.002592636 0.0009496707
v 0.0005573362 -0.003133251 0.0009387032
v 0.0005573394 -0.00258016 0.000945722
v 0.0004925384 -0.002579449 0.0009820302
v 0.0006448926 -0.003117613 0.000922442
v 0.0006531691 -0.002562031 0.0009469452
v 0.0006778591 -0.002529181 0.001010429
v 0.0007480343 -0.003101842 0.0009379086
v 0.0007473409 -0.002548724 0.0009345733
v 0.0007763941 -0.002511323 0.001003445
v 0.000840931 -0.003089277 0.0009478892
v 0.0008461843 -0.002533214 0.0009227437
v 0.000876579 -0.002495497 0.0009917379
v 0.0009327636 -0.003079954 0.0009633763
v 0.0009383807 -0.002516457 0.0009191062
v 0.001004858 -0.002501341 0.0009301724
v 0.0009540831 -0.002488616 0.0009758575
v 0.001028677 -0.003071769 0.0009800101
v 0.001023907 -0.002477497 0.0009850138
v 0.001108356 -0.003065038 0.0009988572
v 0.001119899 -0.002475834 0.0009825259
v 0.001196527 -0.003051104 0.0009442201
v 0.001104506 -0.003069622 0.001059754
v 0.001279642 -0.00303745 0.0009514507
v 0.001223979 -0.002483726 0.0009683383
v 0.001376821 -0.003020241 0.0009640289
v 0.001333288 -0.002496134 0.0009304045
v 0.001360199 -0.003028213 0.001047921
v 0.001400039 -0.00267456 0.001054641
v 0.001481572 -0.002989116 0.00094738
v 0.001419854 -0.002510325 0.0009167774
v 0.001518655 -0.002676288 0.0009428952
v 0.001479512 -0.002616891 0.0009703541
v 0.00143833 -0.00300892 0.00104377
v 0.001471233 -0.002710554 0.001001852
v 0.001430728 -0.002643035 0.001022785
v 0.001557361 -0.002951943 0.0009295194
v 0.001548194 -0.002738959 0.0009259743
v 0.001487661 -0.002562782 0.0009488991
v 0.001475384 -0.002529452 0.0009112852
v 0.00160057 -0.002809218 0.0008915827
v 0.001499399 -0.002549543 0.0009185973
v 0.001503892 -0.003008292 0.001092029
v 0.00155409 -0.002899234 0.0009678523
v 0.001534823 -0.002813747 0.0009698023
v 0.001473898 -0.002537517 0.0009473685
v 0.001612576 -0.002920882 0.0009020269
v 0.001653654 -0.002868746 0.0008537342
v 0.001647737 -0.002903311 0.000876608
v 0.001605462 -0.002872129 0.0009131907
v 0.0001240115 -0.002974016 0.00104005
v 0.00009049832 -0.002917528 0.001011614
v 0.000172784 -0.003048486 0.00103119
v 0.0001289042 -0.002853933 0.001058087
v 0.0002296664 -0.003101456 0.001058785
v 0.0001566728 -0.002780892 0.001056016
v 0.000191218 -0.002717686 0.001050493
v 0.0002236351 -0.002679534 0.001022825
v 0.0001594042 -0.002978614 0.001081362
v 0.0001410809 -0.002914917 0.001076313
v 0.0002820833 -0.003131106 0.001036752
v 0.0002750189 -0.002648444 0.001056561
v 0.0002708687 -0.003112958 0.001094203
v 0.0001928581 -0.002930128 0.001122412
v 0.0001991319 -0.002826442 0.001114635
v 0.0002249208 -0.002726649 0.001095485
v 0.0002411587 -0.002678712 0.001071581
v 0.0003521409 -0.003147412 0.001033552
v 0.0003262674 -0.002622455 0.00105101
v 0.0002774965 -0.002734071 0.001142617
v 0.0003180958 -0.002647379 0.001106891
v 0.0004183599 -0.003150543 0.00106237
v 0.0004015449 -0.002590792 0.001061205
v 0.000473256 -0.002556018 0.001094935
v 0.0005076164 -0.003147027 0.001097922
v 0.000496292 -0.002564607 0.001026705
v 0.0005751257 -0.003135934 0.001017183
v 0.0005868411 -0.002546313 0.001014992
v 0.000539045 -0.002539881 0.001070798
v 0.0006716587 -0.003120141 0.00104082
v 0.000611949 -0.002523409 0.00107469
v 0.0005925257 -0.003137136 0.001098544
v 0.0007668447 -0.003102393 0.001023797
v 0.0007071439 -0.002503162 0.001075435
v 0.0007362928 -0.002494679 0.001142012
v 0.0008403031 -0.003092601 0.001051067
v 0.0008208345 -0.002476586 0.001074761
v 0.0008999096 -0.002446327 0.001111404
v 0.0009338334 -0.003082351 0.001072964
v 0.0009426057 -0.00246308 0.001043717
v 0.0009901559 -0.00243794 0.001102209
v 0.001040653 -0.003073948 0.001096177
v 0.001050654 -0.002453907 0.001049308
v 0.001103101 -0.003071232 0.001098256
v 0.001078162 -0.002436823 0.001106988
v 0.001123311 -0.003069203 0.001071072
v 0.00115405 -0.002464823 0.001058709
v 0.001153616 -0.003062194 0.001036425
v 0.001220476 -0.003049877 0.001009756
v 0.001137053 -0.003067184 0.001092375
v 0.001139949 -0.00244412 0.001125237
v 0.001285256 -0.00304085 0.001037325
v 0.001266069 -0.002497173 0.001032275
v 0.001314805 -0.003039808 0.001101326
v 0.001364157 -0.002682846 0.001083434
v 0.001310915 -0.002672107 0.001116876
v 0.001276411 -0.002569624 0.001101478
v 0.001264578 -0.002521272 0.001080864
v 0.001158491 -0.002445483 0.001145757
v 0.001380575 -0.003028273 0.001095487
v 0.001396012 -0.002735209 0.001074967
v 0.001360894 -0.002650099 0.001077258
v 0.001363268 -0.002513014 0.000988298
v 0.001390241 -0.002629735 0.001051445
v 0.001350186 -0.002793986 0.001136322
v 0.001351429 -0.002596996 0.001065555
v 0.001319837 -0.00253616 0.001051201
v 0.001439074 -0.003022528 0.001117736
v 0.001462819 -0.002789727 0.00103512
v 0.001415938 -0.002594811 0.001021144
v 0.001432924 -0.002525761 0.0009631665
v 0.001503326 -0.002957282 0.001041197
v 0.001487311 -0.002864061 0.001036907
v 0.001449923 -0.00255807 0.0009810169
v 0.001432447 -0.002892916 0.001114612
v 0.001425524 -0.002817285 0.001081388
v 0.001390765 -0.002548591 0.001015479
v 0.001515517 -0.003023401 0.00113007
v 0.001537157 -0.003002665 0.001103154
v 0.001547676 -0.003020129 0.001114185
v 0.00156384 -0.003027764 0.001124867
v 0.0002058583 -0.003007611 0.001114322
v 0.0002341754 -0.003071861 0.001104068
v 0.0002417655 -0.002959282 0.001157184
v 0.0002908766 -0.003091818 0.00113836
v 0.0002513071 -0.002879647 0.001163342
v 0.0002705204 -0.002800664 0.001163752
v 0.0002768787 -0.003027777 0.001164432
v 0.0003495939 -0.003129862 0.001115688
v 0.0003240518 -0.002749319 0.001180383
v 0.000354918 -0.002678264 0.001166942
v 0.0003870565 -0.002617004 0.001151778
v 0.0004109784 -0.002584691 0.001122863
v 0.0003536173 -0.003077967 0.001193595
v 0.0003417254 -0.003010489 0.001214156
v 0.0003122656 -0.002932416 0.001200209
v 0.0003232567 -0.002822882 0.00119607
v 0.0004363279 -0.003144956 0.001135475
v 0.0004677928 -0.002559464 0.001138445
v 0.0003994369 -0.00303137 0.001246354
v 0.0003910867 -0.002952407 0.001244771
v 0.0003923863 -0.002851392 0.001233154
v 0.0004108974 -0.002727823 0.001211708
v 0.0004296914 -0.002628485 0.001182182
v 0.0004351411 -0.002584467 0.001157384
v 0.0004922121 -0.003140728 0.001177241
v 0.000539845 -0.002539474 0.001126322
v 0.0005106264 -0.002630955 0.001210721
v 0.0004912039 -0.002575338 0.001169456
v 0.0005725749 -0.003136363 0.001178111
v 0.0006368042 -0.002518364 0.00113284
v 0.0006446004 -0.003128175 0.001134781
v 0.0006648366 -0.002535266 0.00118332
v 0.0006142354 -0.002596195 0.001222297
v 0.0005747124 -0.002558356 0.001177503
v 0.0007362871 -0.003109917 0.001124133
v 0.0007241066 -0.002517676 0.00118571
v 0.0007899328 -0.002500098 0.001184996
v 0.0008278607 -0.00246292 0.001140837
v 0.0008361857 -0.003092705 0.001154275
v 0.0008843195 -0.002444768 0.001149915
v 0.0008526251 -0.002651798 0.001272558
v 0.0008325591 -0.00255777 0.001226979
v 0.0008586298 -0.002488197 0.0011929
v 0.0008512071 -0.002462253 0.001170149
v 0.0009311744 -0.00308056 0.00117708
v 0.0009469552 -0.002437831 0.001144187
v 0.0009440689 -0.00258967 0.001237293
v 0.0009217765 -0.002502799 0.001201378
v 0.000905816 -0.002457136 0.001173583
v 0.001009916 -0.003073185 0.001200005
v 0.001026961 -0.002434158 0.001142504
v 0.00106567 -0.002597944 0.001215955
v 0.001014381 -0.00251005 0.001196398
v 0.0009798135 -0.002457719 0.001172895
v 0.001115637 -0.003066323 0.001170236
v 0.001098118 -0.00243168 0.00114551
v 0.00119533 -0.003057623 0.001086308
v 0.001237055 -0.002676343 0.001164948
v 0.00122104 -0.002611048 0.00115103
v 0.001191276 -0.002502505 0.001123325
v 0.001165061 -0.002685939 0.00120929
v 0.001150896 -0.002575188 0.001176602
v 0.001110343 -0.002498817 0.001173395
v 0.001061139 -0.002454168 0.001167814
v 0.001253794 -0.003050239 0.001106541
v 0.001259784 -0.002738875 0.001175957
v 0.001150587 -0.002456766 0.001155391
v 0.001138549 -0.002430785 0.001150396
v 0.001265869 -0.003048508 0.001154316
v 0.00128754 -0.002814302 0.00119447
v 0.001148056 -0.002434935 0.001156714
v 0.001208229 -0.00305682 0.001152659
v 0.001220145 -0.002786136 0.001225649
v 0.001122387 -0.002442492 0.001161339
v 0.001337076 -0.003034799 0.001165505
v 0.001345917 -0.002874745 0.001185028
v 0.00140187 -0.002946269 0.001185817
v 0.001426422 -0.003018062 0.001175827
v 0.001496304 -0.002977621 0.001125797
v 0.001464418 -0.002997114 0.001168033
v 0.001508546 -0.003019009 0.001149802
v 0.001551103 -0.003011514 0.001123434
v 0.001534059 -0.003012875 0.001138524
v 0.00155551 -0.003026271 0.001133188
v 0.001568506 -0.003022696 0.001120138
v 0.001575968 -0.003028887 0.001126609
v 0.001568513 -0.003024132 0.001128419
v 0.0004203804 -0.003080342 0.001242376
v 0.0004332428 -0.00311952 0.001202081
v 0.0004560429 -0.003046255 0.001274895
v 0.000460764 -0.002978952 0.001279683
v 0.0004627786 -0.002883381 0.00127001
v 0.0004711296 -0.002784406 0.001253552
v 0.0004973898 -0.002705613 0.001240448
v 0.0004828412 -0.003085741 0.001267991
v 0.0005288014 -0.003119686 0.00124429
v 0.0005637857 -0.002667801 0.001247017
v 0.0005459692 -0.003083077 0.001296036
v 0.0005378728 -0.00301831 0.001310133
v 0.0005385957 -0.002910308 0.001302858
v 0.0005373582 -0.002809556 0.001282573
v 0.0005344921 -0.002735253 0.001262948
v 0.0006021806 -0.003121739 0.001246179
v 0.0006223862 -0.002644151 0.001252337
v 0.0006590711 -0.003120821 0.00120367
v 0.0006554337 -0.002609601 0.001242303
v 0.0006285026 -0.002930936 0.001337945
v 0.0006192249 -0.002823836 0.001309578
v 0.0006057441 -0.002720683 0.001275945
v 0.0007459534 -0.00310003 0.001223631
v 0.0007129131 -0.002570153 0.001223765
v 0.0007863097 -0.002734291 0.001307878
v 0.0007574173 -0.002644981 0.001266548
v 0.0007030244 -0.002921099 0.001361066
v 0.0007217756 -0.002839004 0.001340168
v 0.0006929511 -0.002732871 0.001296163
v 0.0006739217 -0.002649437 0.001261684
v 0.0008398591 -0.003080385 0.001246563
v 0.0008777508 -0.002735275 0.001311087
v 0.0009264774 -0.002673666 0.00127855
v 0.0009370525 -0.003067707 0.0012656
v 0.001002207 -0.002668805 0.001262616
v 0.0009640958 -0.00273986 0.001304926
v 0.001032444 -0.003063314 0.001269739
v 0.001076241 -0.00268544 0.001247802
v 0.001110763 -0.00273984 0.001260554
v 0.001019933 -0.002820678 0.001337411
v 0.001046436 -0.002743655 0.001286706
v 0.001109955 -0.003059494 0.001275222
v 0.001159157 -0.002771946 0.001254191
v 0.001191695 -0.002830572 0.001269459
v 0.001096992 -0.002885137 0.001356087
v 0.001116676 -0.002814371 0.001299426
v 0.001210384 -0.003049476 0.001238244
v 0.001266352 -0.00286734 0.001242748
v 0.001199831 -0.002904989 0.001314975
v 0.001299898 -0.003019324 0.001262875
v 0.001330248 -0.002916773 0.001227099
v 0.001374134 -0.002987945 0.00122484
v 0.001338616 -0.002953347 0.001243263
v 0.001281447 -0.002972196 0.00129601
v 0.001285782 -0.002926095 0.001268027
v 0.0006011785 -0.003056959 0.001327422
v 0.0006181852 -0.003007668 0.001344074
v 0.0005987206 -0.00309857 0.001293311
v 0.0006804437 -0.002979133 0.001359816
v 0.0006677741 -0.003102303 0.001272979
v 0.0006684583 -0.003067897 0.001324291
v 0.0006605569 -0.003029938 0.001349799
v 0.0007513486 -0.003073256 0.001298287
v 0.0007394977 -0.002952473 0.001370858
v 0.0007591103 -0.002898436 0.00136892
v 0.0007770218 -0.002857769 0.001361195
v 0.0007526252 -0.003014992 0.001354222
v 0.0008518482 -0.003049536 0.001320487
v 0.0008249784 -0.002818585 0.001348042
v 0.0008770371 -0.003001188 0.001370542
v 0.0008175913 -0.002941558 0.001378278
v 0.0008116736 -0.002879643 0.001371379
v 0.0009690055 -0.003039954 0.001341247
v 0.0009230888 -0.002809866 0.001344638
v 0.0009714258 -0.002867969 0.001371535
v 0.000975565 -0.002994492 0.001391299
v 0.0009101516 -0.002953126 0.001390321
v 0.0008918997 -0.002886304 0.001376959
v 0.001060116 -0.003051684 0.001329716
v 0.001031222 -0.002888266 0.00137681
v 0.001073333 -0.002928839 0.001393347
v 0.0009987217 -0.00293737 0.001398193
v 0.001131385 -0.003047204 0.001337797
v 0.001141846 -0.002947656 0.001384369
v 0.001203287 -0.003035621 0.00135135
v 0.001208324 -0.002977377 0.001368455
v 0.001237661 -0.003011248 0.00135452
v 0.001046073 -0.00299322 0.001410891
v 0.001060002 -0.003028418 0.001384695
v 0.00109711 -0.002978861 0.001415163
v 0.001098838 -0.003013634 0.001416989
v 0.001138439 -0.003033111 0.001397716
v 0.001166485 -0.002995756 0.001412185
v 0.001146461 -0.003016371 0.001423078
v 0.001178754 -0.003031205 0.001409126
v 0.001204144 -0.003010747 0.001400829
v 0.001205393 -0.003026637 0.001397745
v 0.001183838 -0.003020731 0.001419952
f 1 35 41
f 1 2 36
f 35 1 36
f 2 3 37
f 36 2 37
f 37 3 42
f 4 1 41
f 47 4 41
f 2 1 5
f 5 1 4
f 3 2 6
f 6 2 5
f 43 42 3
f 43 3 7
f 7 3 6
f 43 7 48
f 8 49 53
f 47 49 8
f 47 8 4
f 4 8 9
f 5 4 10
f 10 4 9
f 6 5 11
f 11 5 10
f 7 6 12
f 12 6 11
f 50 48 7
f 50 7 13
f 13 7 12
f 50 13 54
f 14 8 53
f 56 14 53
f 9 8 15
f 15 8 14
f 10 9 16
f 16 9 15
f 11 10 17
f 17 10 16
f 12 11 18
f 18 11 17
f 13 12 19
f 19 12 18
f 57 54 13
f 19 57 13
f 14 56 58
f 58 60 20
f 58 20 14
f 14 20 15
f 16 15 21
f 21 15 20
f 17 16 22
f 22 16 21
f 18 17 23
f 23 17 22
f 19 18 24
f 24 18 23
f 61 57 19
f 24 61 19
f 20 60 62
f 62 65 25
f 62 25 20
f 20 25 21
f 22 21 26
f 26 21 25
f 23 22 27
f 27 22 26
f 24 23 28
f 28 23 27
f 66 61 24
f 28 66 24
f 25 65 67
f 26 25 67
f 68 26 67
f 68 73 29
f 68 29 26
f 26 29 27
f 28 27 30
f 30 27 29
f 69 66 28
f 69 28 31
f 31 28 30
f 69 31 74
f 29 73 75
f 75 82 32
f 75 32 29
f 29 32 30
f 31 30 33
f 33 30 32
f 76 74 31
f 76 31 34
f 34 31 33
f 76 34 83
f 32 82 84
f 33 32 84
f 85 33 84
f 34 33 85
f 86 34 85
f 83 34 86
f 38 95 101
f 38 39 96
f 95 38 96
f 39 40 97
f 96 39 97
f 97 40 102
f 44 103 110
f 44 45 104
f 103 44 104
f 45 41 35
f 45 35 104
f 104 35 105
f 101 36 38
f 101 105 36
f 105 35 36
f 37 38 36
f 39 38 37
f 42 39 37
f 42 46 39
f 46 40 39
f 111 102 40
f 46 111 40
f 51 44 110
f 113 51 110
f 45 44 52
f 52 44 51
f 41 52 47
f 45 52 41
f 42 43 46
f 46 43 48
f 46 48 111
f 111 48 114
f 55 51 113
f 118 55 113
f 49 55 53
f 49 52 55
f 52 51 55
f 47 52 49
f 48 115 114
f 50 115 48
f 115 50 54
f 119 115 54
f 59 55 118
f 123 59 118
f 53 59 56
f 55 59 53
f 54 57 119
f 119 57 124
f 63 59 123
f 126 63 123
f 56 64 58
f 56 59 64
f 59 63 64
f 58 64 60
f 57 61 124
f 124 61 127
f 70 63 126
f 129 70 126
f 64 63 71
f 71 63 70
f 60 72 62
f 60 64 72
f 64 71 72
f 62 72 65
f 61 66 127
f 127 66 130
f 70 129 131
f 131 133 77
f 131 77 70
f 70 77 71
f 72 71 78
f 78 71 77
f 65 79 67
f 65 72 79
f 72 78 79
f 67 80 68
f 79 80 67
f 68 80 73
f 81 66 69
f 81 134 66
f 134 130 66
f 69 74 81
f 77 133 135
f 78 77 135
f 136 78 135
f 136 139 87
f 136 87 78
f 78 87 79
f 80 79 88
f 88 79 87
f 73 89 75
f 73 80 89
f 80 88 89
f 75 89 82
f 81 137 134
f 90 140 137
f 76 90 137
f 76 137 81
f 76 81 74
f 76 83 90
f 87 139 141
f 88 87 141
f 142 88 141
f 89 88 142
f 143 89 142
f 82 89 143
f 82 143 84
f 84 143 144
f 91 144 148
f 91 85 144
f 85 84 144
f 90 149 140
f 90 85 149
f 90 86 85
f 91 149 85
f 83 86 90
f 91 148 150
f 149 91 150
f 92 153 155
f 153 92 156
f 93 157 160
f 155 157 93
f 155 93 92
f 92 93 94
f 161 156 92
f 94 161 92
f 98 162 165
f 160 162 98
f 160 98 93
f 93 98 99
f 94 93 100
f 100 93 99
f 166 161 94
f 100 166 94
f 106 167 172
f 165 167 106
f 165 106 98
f 98 106 107
f 99 98 108
f 108 98 107
f 95 108 101
f 95 100 108
f 100 99 108
f 100 168 166
f 100 95 168
f 95 96 168
f 109 173 168
f 109 168 97
f 97 168 96
f 97 102 109
f 103 106 172
f 103 172 110
f 110 172 175
f 104 106 103
f 107 106 104
f 105 107 104
f 108 107 105
f 101 108 105
f 112 173 109
f 176 173 112
f 102 111 112
f 109 102 112
f 116 177 179
f 116 175 177
f 116 113 175
f 113 110 175
f 117 176 112
f 180 176 117
f 111 114 117
f 112 111 117
f 120 116 179
f 181 120 179
f 113 120 118
f 116 120 113
f 121 180 117
f 182 180 121
f 114 115 122
f 114 122 117
f 117 122 121
f 115 119 122
f 125 120 181
f 185 125 181
f 118 125 123
f 120 125 118
f 121 183 182
f 122 183 121
f 184 183 122
f 184 122 119
f 184 119 186
f 186 119 124
f 128 125 185
f 188 128 185
f 123 128 126
f 125 128 123
f 124 127 186
f 186 127 189
f 132 128 188
f 191 132 188
f 126 132 129
f 128 132 126
f 127 130 189
f 189 130 192
f 132 191 193
f 138 193 196
f 131 193 138
f 131 132 193
f 131 129 132
f 131 138 133
f 130 134 192
f 192 134 197
f 145 138 196
f 200 145 196
f 133 146 135
f 133 138 146
f 138 145 146
f 135 147 136
f 146 147 135
f 136 147 139
f 134 198 197
f 137 198 134
f 198 137 140
f 201 198 140
f 145 200 202
f 202 208 151
f 202 151 145
f 145 151 146
f 147 146 152
f 152 146 151
f 139 147 152
f 139 152 203
f 139 203 141
f 203 152 209
f 142 141 204
f 141 203 204
f 143 142 205
f 142 204 205
f 144 143 206
f 143 205 206
f 206 148 144
f 210 148 206
f 140 149 201
f 201 149 211
f 151 208 212
f 152 151 212
f 213 152 212
f 209 152 213
f 148 210 214
f 150 148 214
f 211 149 150
f 214 211 150
f 154 221 225
f 221 154 226
f 158 227 233
f 225 227 158
f 225 158 154
f 154 158 159
f 155 153 228
f 155 228 154
f 155 154 159
f 226 154 228
f 228 153 156
f 234 228 156
f 163 235 238
f 233 235 163
f 233 163 158
f 158 163 164
f 157 164 160
f 157 159 164
f 159 158 164
f 155 159 157
f 156 161 234
f 234 161 239
f 169 240 243
f 238 240 169
f 238 169 163
f 163 169 170
f 162 170 165
f 162 164 170
f 164 163 170
f 160 164 162
f 241 166 171
f 241 239 166
f 239 161 166
f 241 171 244
f 174 169 243
f 246 174 243
f 167 174 172
f 167 170 174
f 170 169 174
f 165 170 167
f 166 168 171
f 171 168 173
f 171 173 244
f 244 173 247
f 178 174 246
f 249 178 246
f 172 178 175
f 174 178 172
f 173 176 247
f 247 176 250
f 177 178 249
f 177 249 179
f 179 249 252
f 175 178 177
f 176 180 250
f 250 180 253
f 179 252 181
f 252 255 181
f 180 182 253
f 253 182 256
f 181 255 185
f 255 259 185
f 182 257 256
f 183 257 182
f 187 260 257
f 187 257 184
f 184 257 183
f 184 186 187
f 185 259 188
f 259 262 188
f 190 260 187
f 263 260 190
f 186 189 190
f 187 186 190
f 264 194 191
f 264 191 262
f 262 191 188
f 264 266 194
f 195 263 190
f 267 263 195
f 189 192 195
f 190 189 195
f 191 194 193
f 194 196 193
f 194 266 196
f 266 268 196
f 199 267 195
f 269 267 199
f 192 197 199
f 195 192 199
f 196 268 200
f 268 271 200
f 199 270 269
f 207 272 270
f 198 207 270
f 198 270 199
f 198 199 197
f 198 201 207
f 215 202 200
f 215 200 278
f 278 200 271
f 202 215 208
f 216 279 273
f 216 203 209
f 216 273 203
f 273 274 203
f 204 203 275
f 203 274 275
f 217 275 280
f 217 205 275
f 205 204 275
f 205 218 206
f 217 218 205
f 207 276 272
f 210 206 218
f 276 207 201
f 276 201 281
f 281 201 211
f 219 215 278
f 288 219 278
f 208 215 219
f 208 219 282
f 208 282 212
f 282 219 289
f 279 216 213
f 279 213 282
f 282 213 212
f 209 213 216
f 217 280 283
f 218 217 283
f 284 218 283
f 220 284 290
f 214 284 220
f 214 218 284
f 214 210 218
f 214 220 291
f 214 291 211
f 211 291 281
f 219 288 292
f 289 219 292
f 220 290 293
f 291 220 293
f 222 297 302
f 222 223 298
f 297 222 298
f 223 224 299
f 298 223 299
f 299 224 303
f 229 304 307
f 302 304 229
f 302 229 222
f 222 229 230
f 223 222 231
f 231 222 230
f 221 231 225
f 221 224 231
f 224 223 231
f 226 232 305
f 221 226 305
f 221 305 303
f 221 303 224
f 305 232 308
f 236 229 307
f 310 236 307
f 230 229 237
f 237 229 236
f 227 237 233
f 227 231 237
f 231 230 237
f 225 231 227
f 226 228 232
f 232 228 234
f 232 234 308
f 308 234 311
f 242 236 310
f 313 242 310
f 235 242 238
f 235 237 242
f 237 236 242
f 233 237 235
f 234 239 311
f 311 239 314
f 240 245 243
f 242 313 315
f 315 238 242
f 315 318 238
f 240 238 245
f 245 238 318
f 239 316 314
f 241 316 239
f 316 241 244
f 319 316 244
f 245 248 246
f 243 245 246
f 320 245 318
f 248 245 320
f 244 247 319
f 319 247 321
f 248 251 249
f 246 248 249
f 322 248 320
f 251 248 322
f 247 250 321
f 321 250 323
f 251 254 252
f 249 251 252
f 324 251 322
f 254 251 324
f 250 253 323
f 323 253 325
f 254 258 255
f 252 254 255
f 326 254 324
f 258 254 326
f 253 256 325
f 325 256 327
f 258 261 259
f 255 258 259
f 329 258 326
f 261 258 329
f 256 328 327
f 257 328 256
f 328 257 260
f 330 328 260
f 261 265 262
f 259 261 262
f 332 261 329
f 265 261 332
f 260 263 330
f 330 263 333
f 262 265 264
f 265 266 264
f 265 332 266
f 332 335 266
f 263 267 333
f 333 267 336
f 266 335 268
f 335 338 268
f 267 269 336
f 336 269 339
f 268 338 271
f 338 341 271
f 277 269 270
f 277 342 269
f 342 339 269
f 270 272 277
f 271 341 278
f 341 345 278
f 273 279 285
f 273 286 274
f 285 286 273
f 346 274 286
f 346 343 274
f 343 275 274
f 343 280 275
f 347 280 343
f 277 344 342
f 287 348 344
f 276 287 344
f 276 344 277
f 276 277 272
f 276 281 287
f 278 345 288
f 345 355 288
f 282 356 349
f 289 356 282
f 285 279 282
f 285 282 350
f 350 282 349
f 286 285 350
f 351 286 350
f 346 286 351
f 280 347 352
f 283 280 352
f 294 352 357
f 294 284 352
f 284 283 352
f 295 284 287
f 295 290 284
f 287 284 348
f 294 358 284
f 348 284 358
f 281 291 295
f 287 281 295
f 288 355 359
f 292 288 359
f 356 289 292
f 359 356 292
f 296 294 357
f 361 296 357
f 294 296 362
f 294 362 358
f 295 293 290
f 291 293 295
f 296 361 363
f 362 296 363
f 300 364 367
f 300 301 365
f 364 300 365
f 365 301 368
f 297 369 373
f 302 297 373
f 298 370 297
f 297 370 369
f 367 299 300
f 367 370 299
f 370 298 299
f 303 300 299
f 303 306 300
f 306 301 300
f 374 368 301
f 306 374 301
f 304 309 307
f 304 375 309
f 304 302 375
f 302 373 375
f 303 305 306
f 306 305 308
f 306 308 374
f 374 308 376
f 309 312 310
f 307 309 310
f 377 309 375
f 312 309 377
f 308 311 376
f 376 311 378
f 312 317 313
f 310 312 313
f 379 312 377
f 317 312 379
f 311 314 378
f 378 314 380
f 313 317 315
f 317 318 315
f 317 379 318
f 379 383 318
f 314 381 380
f 316 381 314
f 381 316 319
f 384 381 319
f 318 383 320
f 383 385 320
f 319 321 384
f 384 321 386
f 320 385 322
f 385 387 322
f 321 323 386
f 386 323 388
f 322 387 324
f 387 390 324
f 323 325 388
f 388 325 391
f 324 390 326
f 390 393 326
f 325 327 391
f 391 327 394
f 331 395 397
f 331 393 395
f 331 329 393
f 329 326 393
f 327 396 394
f 328 396 327
f 396 328 330
f 398 396 330
f 334 331 397
f 401 334 397
f 329 334 332
f 331 334 329
f 330 333 398
f 398 333 402
f 337 334 401
f 405 337 401
f 332 337 335
f 334 337 332
f 333 336 402
f 402 336 406
f 340 337 405
f 409 340 405
f 335 340 338
f 337 340 335
f 336 339 406
f 406 339 410
f 340 409 411
f 411 338 340
f 411 414 338
f 414 341 338
f 339 342 410
f 410 342 415
f 341 414 345
f 414 417 345
f 343 346 353
f 343 353 347
f 354 342 344
f 354 418 342
f 418 415 342
f 344 348 354
f 345 417 355
f 417 425 355
f 349 356 360
f 426 349 360
f 426 419 349
f 419 350 349
f 351 350 420
f 350 419 420
f 353 346 351
f 353 351 421
f 421 351 420
f 347 353 421
f 347 421 352
f 352 421 422
f 422 354 352
f 422 418 354
f 352 354 357
f 423 427 354
f 357 354 427
f 423 354 348
f 423 348 428
f 428 348 358
f 355 425 429
f 359 355 429
f 360 356 359
f 360 359 430
f 430 359 429
f 426 360 430
f 357 427 361
f 427 433 361
f 358 362 428
f 428 362 434
f 361 433 435
f 363 361 435
f 434 362 363
f 435 434 363
f 366 437 438
f 437 366 439
f 371 366 438
f 444 371 438
f 440 439 366
f 440 366 372
f 372 366 371
f 372 367 364
f 372 364 440
f 440 364 441
f 365 442 364
f 364 442 441
f 442 365 368
f 445 442 368
f 369 371 444
f 369 444 373
f 373 444 447
f 370 371 369
f 372 371 370
f 367 372 370
f 368 374 445
f 445 374 448
f 373 447 375
f 447 449 375
f 374 376 448
f 448 376 450
f 375 449 377
f 449 451 377
f 376 378 450
f 450 378 452
f 377 451 379
f 451 454 379
f 453 380 382
f 453 452 380
f 452 378 380
f 453 382 455
f 379 454 383
f 454 457 383
f 380 381 382
f 382 381 384
f 382 384 455
f 455 384 458
f 383 457 385
f 457 461 385
f 384 386 458
f 458 386 462
f 389 463 466
f 389 461 463
f 389 387 461
f 387 385 461
f 386 388 462
f 462 388 467
f 392 389 466
f 470 392 466
f 387 392 390
f 389 392 387
f 388 391 467
f 467 391 471
f 392 470 472
f 472 390 392
f 472 475 390
f 475 393 390
f 391 394 471
f 471 394 476
f 395 399 397
f 395 477 399
f 395 393 477
f 393 475 477
f 400 394 396
f 400 478 394
f 478 476 394
f 396 398 400
f 399 403 401
f 397 399 401
f 479 399 477
f 403 399 479
f 404 478 400
f 480 478 404
f 398 402 404
f 400 398 404
f 403 407 405
f 401 403 405
f 481 403 479
f 407 403 481
f 408 480 404
f 482 480 408
f 402 406 408
f 404 402 408
f 407 412 409
f 405 407 409
f 483 407 481
f 412 407 483
f 413 482 408
f 484 482 413
f 406 410 413
f 408 406 413
f 409 412 411
f 412 414 411
f 412 483 414
f 483 485 414
f 416 484 413
f 486 484 416
f 410 415 416
f 413 410 416
f 414 485 417
f 485 490 417
f 424 491 487
f 492 416 488
f 492 424 416
f 486 416 487
f 487 416 424
f 488 416 415
f 488 415 493
f 493 415 418
f 417 490 425
f 490 501 425
f 431 502 494
f 431 419 426
f 431 494 419
f 494 495 419
f 420 419 496
f 419 495 496
f 491 424 421
f 491 421 496
f 496 421 420
f 424 422 421
f 424 503 422
f 424 492 503
f 503 432 422
f 418 432 493
f 418 422 432
f 493 432 497
f 427 423 432
f 497 432 423
f 497 423 428
f 504 497 428
f 425 501 505
f 429 425 505
f 502 431 430
f 502 430 505
f 505 430 429
f 426 430 431
f 432 503 506
f 432 433 427
f 432 507 433
f 432 506 507
f 436 433 507
f 436 507 504
f 436 504 434
f 434 504 428
f 433 436 435
f 434 435 436
f 437 511 513
f 438 437 513
f 439 443 512
f 439 512 437
f 437 512 511
f 512 443 514
f 438 513 444
f 513 516 444
f 439 440 443
f 443 515 514
f 443 440 515
f 440 441 515
f 446 517 515
f 446 515 442
f 442 515 441
f 442 445 446
f 444 516 447
f 516 519 447
f 446 518 517
f 518 446 445
f 518 445 520
f 520 445 448
f 447 519 449
f 519 521 449
f 448 450 520
f 520 450 522
f 449 521 451
f 521 523 451
f 450 452 522
f 522 452 524
f 451 523 454
f 523 526 454
f 456 452 453
f 456 527 452
f 527 524 452
f 453 455 456
f 459 528 530
f 459 526 528
f 459 457 526
f 457 454 526
f 460 527 456
f 531 527 460
f 455 458 460
f 456 455 460
f 464 459 530
f 533 464 530
f 457 464 461
f 459 464 457
f 465 531 460
f 534 531 465
f 458 462 465
f 460 458 465
f 463 468 466
f 464 533 535
f 535 461 464
f 535 537 461
f 463 461 468
f 468 461 537
f 469 534 465
f 538 534 469
f 462 467 469
f 465 462 469
f 468 473 470
f 466 468 470
f 539 468 537
f 473 468 539
f 474 538 469
f 540 538 474
f 467 471 474
f 469 467 474
f 470 473 472
f 473 475 472
f 473 539 475
f 539 543 475
f 474 541 540
f 541 474 471
f 541 471 544
f 544 471 476
f 475 543 477
f 543 545 477
f 476 478 544
f 544 478 546
f 477 545 479
f 545 547 479
f 478 480 546
f 546 480 548
f 479 547 481
f 547 549 481
f 480 482 548
f 548 482 550
f 481 549 483
f 549 551 483
f 482 484 550
f 550 484 552
f 553 489 485
f 553 485 551
f 551 485 483
f 553 555 489
f 484 486 552
f 552 486 556
f 489 498 490
f 485 489 490
f 562 489 555
f 498 489 562
f 499 563 557
f 499 558 500
f 557 558 499
f 500 487 491
f 500 558 487
f 558 559 487
f 488 560 492
f 560 564 492
f 487 556 486
f 487 559 556
f 560 488 493
f 565 560 493
f 498 508 501
f 490 498 501
f 567 494 562
f 567 509 494
f 562 494 498
f 502 508 494
f 498 494 508
f 499 568 563
f 499 494 568
f 499 495 494
f 509 568 494
f 496 495 499
f 500 496 499
f 491 496 500
f 492 564 503
f 564 569 503
f 510 493 497
f 510 570 493
f 570 565 493
f 497 504 510
f 501 508 505
f 509 567 571
f 502 505 508
f 568 509 571
f 503 569 572
f 506 503 572
f 570 510 507
f 570 507 572
f 572 507 506
f 504 507 510
f 511 574 576
f 513 511 576
f 512 575 511
f 511 575 574
f 575 512 514
f 577 575 514
f 513 576 516
f 576 581 516
f 514 578 577
f 515 578 514
f 578 515 517
f 582 578 517
f 516 581 519
f 581 584 519
f 517 583 582
f 518 583 517
f 583 518 520
f 585 583 520
f 519 584 521
f 584 586 521
f 520 522 585
f 585 522 587
f 525 588 590
f 525 586 588
f 525 523 586
f 523 521 586
f 522 524 587
f 587 524 591
f 529 525 590
f 592 529 590
f 523 529 526
f 525 529 523
f 524 527 591
f 591 527 593
f 528 532 530
f 529 592 594
f 594 526 529
f 594 596 526
f 528 526 532
f 532 526 596
f 527 531 593
f 593 531 597
f 532 536 533
f 530 532 533
f 599 532 596
f 536 532 599
f 531 534 597
f 597 534 600
f 533 536 535
f 536 537 535
f 536 599 537
f 599 602 537
f 534 538 600
f 600 538 603
f 537 602 539
f 602 606 539
f 604 540 542
f 604 603 540
f 603 538 540
f 604 542 607
f 539 606 543
f 606 608 543
f 540 541 542
f 542 541 544
f 542 544 607
f 607 544 609
f 543 608 545
f 608 610 545
f 544 546 609
f 609 546 611
f 545 610 547
f 610 612 547
f 546 548 611
f 611 548 613
f 547 612 549
f 612 615 549
f 548 550 613
f 613 550 616
f 549 615 551
f 615 619 551
f 617 552 554
f 617 616 552
f 616 550 552
f 617 554 620
f 551 619 621
f 553 551 621
f 621 555 553
f 623 555 621
f 554 556 561
f 552 556 554
f 624 620 554
f 561 624 554
f 555 623 562
f 623 630 562
f 557 631 625
f 563 631 557
f 558 557 626
f 557 625 626
f 559 558 627
f 558 626 627
f 566 564 560
f 561 556 628
f 628 556 559
f 628 559 627
f 561 628 624
f 560 565 566
f 562 630 567
f 630 632 567
f 563 568 631
f 631 568 633
f 566 573 569
f 564 566 569
f 565 570 573
f 566 565 573
f 567 632 634
f 571 567 634
f 633 568 571
f 634 633 571
f 569 573 572
f 570 572 573
f 574 579 576
f 637 579 574
f 637 574 635
f 635 574 575
f 577 580 636
f 577 636 575
f 575 636 635
f 636 580 638
f 579 639 641
f 579 641 576
f 576 641 581
f 637 639 579
f 577 578 580
f 580 578 582
f 580 582 638
f 638 582 642
f 581 641 584
f 641 645 584
f 582 643 642
f 583 643 582
f 643 583 585
f 646 643 585
f 589 647 648
f 589 645 647
f 589 586 645
f 586 584 645
f 585 587 646
f 646 587 649
f 588 589 648
f 588 648 590
f 590 648 650
f 586 589 588
f 587 591 649
f 649 591 651
f 652 595 592
f 652 592 650
f 650 592 590
f 652 653 595
f 591 593 651
f 651 593 654
f 592 595 594
f 595 596 594
f 595 653 596
f 653 657 596
f 655 597 598
f 655 654 597
f 654 593 597
f 655 598 658
f 596 657 599
f 657 659 599
f 598 600 601
f 597 600 598
f 660 658 598
f 601 660 598
f 599 659 602
f 659 661 602
f 601 603 605
f 600 603 601
f 662 660 601
f 605 662 601
f 602 661 606
f 661 663 606
f 603 604 605
f 605 604 607
f 605 607 662
f 662 607 664
f 606 663 608
f 663 665 608
f 607 609 664
f 664 609 666
f 608 665 610
f 665 668 610
f 609 611 666
f 666 611 669
f 670 614 612
f 670 612 668
f 668 612 610
f 670 672 614
f 611 613 669
f 669 613 673
f 614 618 615
f 612 614 615
f 675 614 672
f 618 614 675
f 613 616 673
f 673 616 676
f 618 622 619
f 615 618 619
f 679 618 675
f 622 618 679
f 616 677 676
f 617 677 616
f 677 617 620
f 680 677 620
f 619 622 621
f 622 623 621
f 622 679 623
f 679 682 623
f 629 683 681
f 681 684 629
f 620 624 680
f 680 624 685
f 623 682 630
f 682 690 630
f 625 691 686
f 631 691 625
f 626 625 687
f 625 686 687
f 683 629 627
f 683 627 687
f 687 627 626
f 629 684 688
f 629 688 627
f 627 688 628
f 685 624 628
f 688 685 628
f 630 690 632
f 690 692 632
f 631 633 691
f 691 633 693
f 632 692 694
f 634 632 694
f 693 633 634
f 694 693 634
f 635 640 637
f 697 640 635
f 697 635 696
f 696 635 636
f 696 636 638
f 698 696 638
f 639 699 703
f 641 639 703
f 640 639 637
f 640 700 639
f 700 699 639
f 697 700 640
f 701 642 644
f 701 698 642
f 698 638 642
f 701 644 704
f 641 703 645
f 703 707 645
f 642 643 644
f 644 643 646
f 644 646 704
f 704 646 708
f 647 709 712
f 648 647 712
f 707 647 645
f 709 647 707
f 646 649 708
f 708 649 713
f 648 712 650
f 712 715 650
f 649 651 713
f 713 651 716
f 656 652 650
f 656 650 718
f 718 650 715
f 652 656 653
f 651 654 716
f 716 654 719
f 656 718 720
f 720 653 656
f 720 723 653
f 723 657 653
f 654 721 719
f 655 721 654
f 721 655 658
f 724 721 658
f 657 723 659
f 723 726 659
f 658 660 724
f 724 660 727
f 659 726 661
f 726 729 661
f 660 662 727
f 727 662 730
f 661 729 663
f 729 732 663
f 662 664 730
f 730 664 733
f 663 732 665
f 732 736 665
f 734 666 667
f 734 733 666
f 733 664 666
f 734 667 737
f 665 736 668
f 736 738 668
f 667 669 671
f 666 669 667
f 739 737 667
f 671 739 667
f 668 738 740
f 670 668 740
f 740 672 670
f 742 672 740
f 671 673 674
f 669 673 671
f 743 739 671
f 674 743 671
f 672 742 675
f 742 744 675
f 674 676 678
f 673 676 674
f 745 743 674
f 678 745 674
f 675 744 679
f 744 748 679
f 676 677 678
f 678 677 680
f 678 680 745
f 745 680 749
f 679 748 682
f 748 755 682
f 689 756 750
f 689 681 683
f 689 750 681
f 750 751 681
f 751 684 681
f 757 684 751
f 680 685 749
f 749 685 758
f 682 755 690
f 755 765 690
f 686 766 759
f 691 766 686
f 756 689 687
f 756 687 759
f 759 687 686
f 683 687 689
f 684 757 760
f 688 684 760
f 758 685 688
f 760 758 688
f 767 695 692
f 767 692 765
f 765 692 690
f 695 767 766
f 695 766 693
f 693 766 691
f 692 695 694
f 693 694 695
f 696 702 697
f 696 698 702
f 699 769 771
f 703 699 771
f 700 770 699
f 699 770 769
f 697 770 700
f 697 705 770
f 697 702 705
f 772 770 705
f 698 701 706
f 698 706 702
f 702 706 705
f 701 704 706
f 710 773 779
f 710 771 773
f 710 707 771
f 707 703 771
f 705 774 772
f 706 774 705
f 775 774 706
f 706 704 708
f 706 708 776
f 706 776 775
f 711 776 708
f 776 711 780
f 709 710 779
f 709 779 712
f 712 779 786
f 707 710 709
f 711 713 714
f 708 713 711
f 787 780 711
f 714 787 711
f 712 786 715
f 786 790 715
f 714 716 717
f 713 716 714
f 791 787 714
f 717 791 714
f 715 790 718
f 790 793 718
f 717 719 722
f 716 719 717
f 794 791 717
f 722 794 717
f 718 793 795
f 720 718 795
f 795 723 720
f 798 723 795
f 719 721 722
f 724 725 796
f 721 724 796
f 721 796 794
f 721 794 722
f 796 725 799
f 723 798 726
f 798 801 726
f 725 727 728
f 724 727 725
f 802 799 725
f 728 802 725
f 726 801 729
f 801 804 729
f 728 730 731
f 727 730 728
f 805 802 728
f 731 805 728
f 729 804 732
f 804 807 732
f 731 733 735
f 730 733 731
f 808 805 731
f 735 808 731
f 732 807 736
f 807 810 736
f 733 734 735
f 735 734 737
f 735 737 808
f 808 737 811
f 741 812 814
f 741 810 812
f 741 738 810
f 738 736 810
f 737 739 811
f 811 739 815
f 741 814 816
f 738 741 816
f 738 816 740
f 740 816 817
f 817 742 740
f 820 742 817
f 739 743 815
f 815 743 821
f 746 822 828
f 746 820 822
f 746 744 820
f 744 742 820
f 747 829 823
f 823 830 747
f 743 745 821
f 821 745 831
f 752 746 828
f 836 752 828
f 744 752 748
f 746 752 744
f 753 829 747
f 837 829 753
f 832 747 830
f 832 754 747
f 754 753 747
f 832 838 754
f 745 749 831
f 831 749 839
f 761 752 836
f 846 761 836
f 761 840 752
f 761 847 840
f 752 840 748
f 762 755 840
f 748 840 755
f 762 841 763
f 840 841 762
f 837 763 841
f 753 763 837
f 753 756 763
f 753 750 756
f 751 750 753
f 754 751 753
f 757 842 764
f 751 842 757
f 751 838 842
f 751 754 838
f 764 842 839
f 764 839 758
f 758 839 749
f 761 846 848
f 762 768 765
f 762 765 755
f 761 848 847
f 759 766 768
f 759 768 763
f 763 768 762
f 756 759 763
f 757 764 760
f 758 760 764
f 765 768 767
f 766 767 768
f 769 777 771
f 769 770 778
f 777 769 778
f 770 772 778
f 773 781 779
f 773 851 781
f 771 851 773
f 771 850 851
f 771 777 850
f 850 782 852
f 850 777 782
f 777 778 782
f 772 774 783
f 772 783 778
f 778 783 782
f 774 775 784
f 783 774 784
f 775 776 785
f 784 775 785
f 776 780 785
f 781 853 857
f 781 857 779
f 779 857 786
f 851 853 781
f 782 854 852
f 783 854 782
f 855 854 783
f 855 788 858
f 855 783 788
f 783 784 788
f 785 789 784
f 789 788 784
f 780 787 789
f 785 780 789
f 786 857 790
f 857 866 790
f 788 859 858
f 789 859 788
f 860 859 789
f 789 787 791
f 789 791 861
f 789 861 860
f 792 861 791
f 861 792 867
f 790 866 793
f 866 874 793
f 792 794 797
f 791 794 792
f 875 867 792
f 797 875 792
f 800 795 793
f 800 793 878
f 878 793 874
f 795 800 798
f 794 796 797
f 797 796 799
f 797 799 875
f 875 799 879
f 800 878 880
f 880 798 800
f 880 884 798
f 884 801 798
f 803 885 881
f 803 881 879
f 803 879 802
f 802 879 799
f 801 884 804
f 884 888 804
f 803 886 885
f 803 802 805
f 803 805 887
f 803 887 886
f 806 887 805
f 887 806 889
f 804 888 807
f 888 894 807
f 806 808 809
f 805 808 806
f 895 889 806
f 809 895 806
f 807 894 810
f 894 899 810
f 809 811 813
f 808 811 809
f 900 895 809
f 813 900 809
f 812 818 814
f 812 904 818
f 812 810 904
f 810 899 904
f 813 815 819
f 811 815 813
f 905 900 813
f 819 905 813
f 814 818 816
f 818 904 906
f 818 906 816
f 816 906 817
f 906 820 817
f 914 820 906
f 824 915 907
f 824 908 825
f 907 908 824
f 825 909 826
f 908 909 825
f 821 909 815
f 821 826 909
f 815 909 819
f 916 827 909
f 819 909 827
f 917 905 819
f 827 917 819
f 822 918 924
f 828 822 924
f 914 822 820
f 918 822 914
f 833 925 919
f 915 833 919
f 824 833 915
f 824 829 833
f 824 823 829
f 830 823 824
f 830 824 834
f 834 824 825
f 826 835 825
f 835 834 825
f 821 831 835
f 821 835 826
f 916 920 827
f 917 827 920
f 828 924 836
f 924 927 836
f 843 928 926
f 925 843 926
f 925 833 843
f 833 844 843
f 829 837 844
f 833 829 844
f 830 834 832
f 838 832 834
f 838 834 845
f 845 834 835
f 831 839 845
f 835 831 845
f 836 927 846
f 927 930 846
f 840 928 843
f 840 847 928
f 847 931 928
f 841 840 843
f 844 841 843
f 837 841 844
f 838 845 842
f 839 842 845
f 849 848 846
f 849 846 933
f 933 846 930
f 848 849 934
f 848 934 847
f 847 934 931
f 849 933 935
f 934 849 935
f 850 856 851
f 850 852 856
f 853 862 857
f 853 851 856
f 853 856 862
f 862 856 863
f 852 854 864
f 852 864 856
f 856 864 863
f 854 855 865
f 864 854 865
f 855 858 865
f 862 937 938
f 862 938 857
f 857 938 866
f 937 868 939
f 937 862 868
f 862 863 868
f 864 869 863
f 869 868 863
f 865 870 864
f 870 869 864
f 858 859 871
f 858 871 865
f 865 871 870
f 859 860 872
f 871 859 872
f 860 861 873
f 872 860 873
f 861 867 873
f 866 938 874
f 938 945 874
f 868 940 939
f 869 940 868
f 941 940 869
f 870 941 869
f 942 941 870
f 871 942 870
f 943 942 871
f 943 876 946
f 943 871 876
f 871 872 876
f 873 877 872
f 877 876 872
f 867 875 877
f 873 867 877
f 874 945 878
f 945 952 878
f 882 946 876
f 953 946 882
f 877 883 876
f 883 882 876
f 875 879 883
f 877 875 883
f 878 952 954
f 880 878 954
f 954 884 880
f 959 884 954
f 882 955 953
f 881 885 960
f 881 960 882
f 881 882 883
f 882 960 955
f 879 881 883
f 884 959 888
f 959 967 888
f 890 968 961
f 890 962 891
f 961 962 890
f 886 892 891
f 886 891 960
f 886 960 885
f 962 960 891
f 886 887 893
f 892 886 893
f 887 889 893
f 888 967 894
f 967 970 894
f 890 969 968
f 969 896 971
f 969 890 896
f 890 891 896
f 892 897 891
f 897 896 891
f 893 898 892
f 898 897 892
f 889 895 898
f 893 889 898
f 894 970 899
f 970 973 899
f 901 971 896
f 974 971 901
f 897 902 896
f 902 901 896
f 898 903 897
f 903 902 897
f 895 900 903
f 898 895 903
f 899 973 904
f 973 978 904
f 910 979 975
f 974 910 975
f 974 901 910
f 901 911 910
f 902 912 901
f 912 911 901
f 903 913 902
f 913 912 902
f 900 905 913
f 903 900 913
f 921 906 904
f 921 904 983
f 983 904 978
f 906 921 914
f 922 984 980
f 979 922 980
f 910 922 979
f 910 915 922
f 910 907 915
f 908 907 910
f 911 908 910
f 909 908 911
f 912 909 911
f 916 909 912
f 916 912 923
f 923 912 913
f 905 917 923
f 913 905 923
f 918 921 983
f 918 983 924
f 924 983 986
f 914 921 918
f 919 984 922
f 919 925 984
f 925 987 984
f 915 919 922
f 916 923 920
f 917 920 923
f 988 929 927
f 988 927 986
f 986 927 924
f 929 926 928
f 929 988 926
f 988 989 926
f 987 925 926
f 989 987 926
f 929 932 930
f 927 929 930
f 928 931 932
f 929 928 932
f 932 936 933
f 930 932 933
f 931 934 936
f 932 931 936
f 933 936 935
f 934 935 936
f 937 944 938
f 937 939 944
f 944 947 945
f 938 944 945
f 939 940 948
f 939 948 944
f 944 948 947
f 940 941 949
f 948 940 949
f 941 942 950
f 949 941 950
f 942 943 951
f 950 942 951
f 943 946 951
f 947 992 994
f 947 994 945
f 945 994 952
f 948 992 947
f 993 992 948
f 993 956 995
f 993 948 956
f 948 949 956
f 950 957 949
f 957 956 949
f 951 958 950
f 958 957 950
f 946 953 958
f 951 946 958
f 952 994 996
f 954 952 996
f 996 959 954
f 999 959 996
f 963 995 956
f 1000 995 963
f 957 964 956
f 964 963 956
f 958 965 957
f 965 964 957
f 953 955 966
f 953 966 958
f 958 966 965
f 955 960 966
f 959 999 967
f 999 1004 967
f 963 1001 1000
f 964 1001 963
f 1002 1001 964
f 961 968 1005
f 961 1005 964
f 961 964 965
f 964 1005 1002
f 962 961 965
f 966 962 965
f 960 962 966
f 967 1004 970
f 1004 1009 970
f 972 968 969
f 972 1010 968
f 1010 1005 968
f 969 971 972
f 970 1009 973
f 1009 1015 973
f 976 1016 1011
f 1010 976 1011
f 1010 972 976
f 972 977 976
f 971 974 977
f 972 971 977
f 973 1015 978
f 1015 1019 978
f 981 1020 1017
f 1016 981 1017
f 1016 976 981
f 976 982 981
f 975 979 982
f 975 982 977
f 977 982 976
f 974 975 977
f 978 1019 983
f 1019 1021 983
f 985 1020 981
f 1022 1020 985
f 980 984 985
f 980 985 982
f 982 985 981
f 979 980 982
f 1023 990 986
f 1023 986 1021
f 1021 986 983
f 1022 990 1023
f 1022 985 990
f 985 991 990
f 984 987 991
f 985 984 991
f 986 990 988
f 989 988 990
f 991 989 990
f 987 989 991
f 992 997 994
f 992 993 998
f 997 992 998
f 993 995 998
f 994 997 996
f 999 996 997
f 999 997 1003
f 1003 997 998
f 995 1000 1003
f 998 995 1003
f 1003 1006 1004
f 999 1003 1004
f 1000 1001 1007
f 1000 1007 1003
f 1003 1007 1006
f 1001 1002 1008
f 1007 1001 1008
f 1002 1005 1008
f 1006 1012 1009
f 1004 1006 1009
f 1007 1013 1006
f 1013 1012 1006
f 1008 1014 1007
f 1014 1013 1007
f 1005 1010 1014
f 1008 1005 1014
f 1012 1024 1025
f 1012 1025 1009
f 1009 1025 1015
f 1024 1018 1026
f 1024 1012 1018
f 1012 1013 1018
f 1011 1016 1018
f 1011 1018 1014
f 1014 1018 1013
f 1010 1011 1014
f 1015 1025 1019
f 1025 1028 1019
f 1017 1026 1018
f 1017 1020 1026
f 1020 1029 1026
f 1016 1017 1018
f 1019 1028 1021
f 1028 1031 1021
f 1020 1022 1029
f 1029 1022 1032
f 1021 1031 1033
f 1023 1021 1033
f 1032 1022 1023
f 1033 1032 1023
f 1024 1027 1025
f 1024 1026 1027
f 1027 1030 1028
f 1025 1027 1028
f 1026 1029 1030
f 1027 1026 1030
f 1030 1034 1031
f 1028 1030 1031
f 1029 1032 1034
f 1030 1029 1034
f 1031 1034 1033
f 1032 1033 1034
