v -0.002567436 0.0009821714 -0.002952646
v -0.002767682 0.001082294 -0.002852523
v -0.002567441 0.0009821714 -0.002952641
v -0.002567436 0.0009821667 -0.002952641
v -0.002567436 0.0009821758 -0.002952641
v -0.002567431 0.0009821714 -0.002952641
v -0.002567436 0.0009821714 -0.002952636
v -0.002467312 0.000882048 -0.002852523
v -0.002767686 0.001082294 -0.002852518
v -0.002771499 0.0009095132 -0.00275261
v -0.002767682 0.001082289 -0.002852518
v -0.002767682 0.001082299 -0.002852518
v -0.002767677 0.001082294 -0.002852518
v -0.002746591 0.0008767092 -0.002752279
v -0.002760277 0.0008947422 -0.002752456
v -0.002761191 0.0008961377 -0.002752471
v -0.002767682 0.001082294 -0.002852513
v -0.002737208 0.0008644809 -0.002752141
v -0.002746383 0.0008766289 -0.00275227
v -0.002467317 0.000882048 -0.002852518
v -0.002567436 0.0006818022 -0.002752399
v -0.002467312 0.0008820433 -0.002852518
v -0.002467312 0.0008820528 -0.002852518
v -0.002467308 0.000882048 -0.002852518
v -0.002467312 0.000882048 -0.002852513
v -0.002367189 0.0005816787 -0.002752399
v -0.003068051 0.000882048 -0.002580107
v -0.003068051 0.001082294 -0.002652276
v -0.002775039 0.0009140493 -0.002752674
v -0.002769999 0.0009074099 -0.002752601
v -0.002773649 0.0009123227 -0.002752661
v -0.002746736 0.0008768667 -0.002752313
v -0.002758961 0.0008928956 -0.002752468
v -0.002769177 0.0009063515 -0.002752615
v -0.002738294 0.0008658326 -0.002752177
v -0.002769167 0.0009065885 -0.002752592
v -0.002760435 0.0008952054 -0.002752486
v -0.002717667 0.0006817898 -0.002652272
v -0.002741254 0.0008698028 -0.002752246
v -0.002755359 0.0008882659 -0.002752447
v -0.002764931 0.0009009643 -0.002752564
v -0.0027344 0.0008608372 -0.002752122
v -0.002751401 0.0008833431 -0.002752359
v -0.002567441 0.0006818022 -0.002752395
v -0.002736131 0.0008631878 -0.002752139
v -0.002741932 0.0008708774 -0.002752237
v -0.002717609 0.0006817956 -0.002652268
v -0.002737554 0.0008650779 -0.002752186
v -0.002749564 0.0008808633 -0.002752361
v -0.002567436 0.0006817975 -0.002752395
v -0.002567436 0.0006818066 -0.002752395
v -0.002567431 0.0006818022 -0.002752395
v -0.002567436 0.0006818022 -0.00275239
v -0.002367194 0.0005816787 -0.002752395
v -0.002467312 0.0005816787 -0.002652276
v -0.002367189 0.000581674 -0.002752395
v -0.002367189 0.0005816834 -0.002752395
v -0.002367184 0.0005816787 -0.002752395
v -0.002367189 0.0005816787 -0.00275239
v -0.003068071 0.0008818622 -0.002580214
v -0.003068056 0.001082294 -0.002652272
v -0.003068008 0.0008810738 -0.002580163
v -0.003068093 0.0008830222 -0.002580163
v -0.003068051 0.001082289 -0.002652272
v -0.003068051 0.001082299 -0.002652272
v -0.003068031 0.0008822338 -0.002580214
v -0.003068046 0.001082294 -0.002652272
v -0.003067998 0.0008802547 -0.002580274
v -0.003068104 0.0008838413 -0.002580274
v -0.003068051 0.001082294 -0.002652267
v -0.002717677 0.0006817968 -0.002652277
v -0.002717655 0.0006817988 -0.002652282
v -0.002717632 0.0006817982 -0.002652266
v -0.00271764 0.0006818087 -0.00265228
v -0.0027176 0.0006818098 -0.002652278
v -0.002717575 0.0006818018 -0.002652259
v -0.002717563 0.0006818073 -0.002652266
v -0.002717586 0.0006818119 -0.002652268
v -0.002467317 0.0005816787 -0.002652272
v -0.002567436 0.0003814326 -0.002552154
v -0.002467312 0.000581674 -0.002652272
v -0.002467312 0.0005816834 -0.002652272
v -0.002467308 0.0005816787 -0.002652272
v -0.002467312 0.0005816787 -0.002652267
v -0.003177687 0.000772974 -0.002452555
v -0.00306803 0.0008807866 -0.002580382
v -0.003068104 0.0008825614 -0.002580378
v -0.003068132 0.0008836914 -0.002580297
v -0.003167998 0.0007614951 -0.002452003
v -0.003170273 0.0007642463 -0.002452142
v -0.003178899 0.0007744748 -0.002452627
v -0.003067975 0.0008798059 -0.00258037
v -0.003068127 0.0008842901 -0.00258037
v -0.00306797 0.0008804046 -0.002580297
v -0.003067998 0.0008815347 -0.002580378
v -0.003068072 0.0008833095 -0.002580382
v -0.003158865 0.0007507441 -0.00245146
v -0.003067982 0.0008804377 -0.002580419
v -0.003068051 0.000882048 -0.00258045
v -0.00306812 0.0008836584 -0.002580419
v -0.002867805 0.0005816787 -0.002452031
v -0.002567441 0.0003814326 -0.002552149
v -0.002567436 0.000381428 -0.002552149
v -0.002567436 0.0003814372 -0.002552149
v -0.002567431 0.0003814326 -0.002552149
v -0.002567436 0.0003814326 -0.002552144
v -0.002567436 0.0004815555 -0.002452031
v -0.003178255 0.0007736234 -0.002452557
v -0.003174021 0.0007686066 -0.002452324
v -0.003180177 0.000775928 -0.002452659
v -0.003167482 0.0007608635 -0.002451933
v -0.003181721 0.000777801 -0.002452765
v -0.003173556 0.0007680824 -0.002452259
v -0.003160902 0.0007530919 -0.002451563
v -0.003180597 0.0007765166 -0.002452699
v -0.003162577 0.000755173 -0.002451658
v -0.003174083 0.0007688007 -0.002452326
v -0.003162479 0.0007549682 -0.002451616
v -0.003167756 0.0007612754 -0.00245192
v -0.003178196 0.0007736444 -0.002452533
v -0.003155957 0.0007472751 -0.002451258
v -0.00315525 0.0007465075 -0.002451225
v -0.003153674 0.0007446209 -0.002451129
v -0.003018002 0.0005816693 -0.00235188
v -0.003157196 0.000748778 -0.002451315
v -0.00286781 0.0005816787 -0.002452026
v -0.003017976 0.0005816883 -0.00235188
v -0.002867805 0.000581674 -0.002452026
v -0.002867805 0.0005816834 -0.002452026
v -0.0028678 0.0005816787 -0.002452026
v -0.002867805 0.0005816787 -0.002452021
v -0.002567441 0.0004815555 -0.002452026
v -0.002567436 0.0004815509 -0.002452026
v -0.002567436 0.0004815601 -0.002452026
v -0.002567431 0.0004815555 -0.002452026
v -0.002567436 0.0004815555 -0.002452021
v -0.003018018 0.0005816786 -0.002351902
v -0.003018002 0.000581702 -0.002351893
v -0.003018002 0.0005816555 -0.002351912
v -0.003018002 0.0005816883 -0.002351926
v -0.003017976 0.000581702 -0.002351912
v -0.003017976 0.0005816555 -0.002351893
v -0.003017959 0.0005816786 -0.002351902
v -0.003017976 0.0005816693 -0.002351926
v -0.003468534 0.0004314803 -0.00205151
v -0.003468552 0.0004315078 -0.00205151
v -0.00346852 0.0004314803 -0.002051543
v -0.00346852 0.0004315078 -0.002051524
v -0.003468543 0.0004314634 -0.002051533
v -0.003468543 0.0004315248 -0.002051533
v -0.003468566 0.0004314803 -0.002051524
v -0.003468566 0.0004315078 -0.002051543
v -0.003468552 0.0004314803 -0.002051556
v -0.003468534 0.0004315078 -0.002051556
f 1 3 4
f 3 1 5
f 1 4 6
f 5 1 6
f 2 9 11
f 9 2 12
f 2 11 13
f 12 2 13
f 3 7 4
f 3 5 7
f 8 20 22
f 4 7 6
f 8 23 20
f 5 6 7
f 8 22 24
f 23 8 24
f 10 29 30
f 29 10 31
f 14 32 35
f 14 15 33
f 32 14 33
f 30 33 15
f 30 15 10
f 10 15 16
f 36 31 10
f 36 10 16
f 11 9 17
f 9 12 17
f 18 14 35
f 42 18 35
f 15 14 19
f 19 14 18
f 43 37 16
f 43 16 19
f 19 16 15
f 11 17 13
f 16 37 36
f 12 13 17
f 21 44 50
f 42 45 18
f 44 21 51
f 19 18 45
f 46 19 45
f 43 19 46
f 21 50 52
f 51 21 52
f 20 25 22
f 20 23 25
f 26 54 56
f 54 26 57
f 22 25 24
f 23 24 25
f 26 56 58
f 57 26 58
f 27 60 62
f 60 27 63
f 28 61 64
f 61 28 65
f 27 62 66
f 63 27 66
f 28 64 67
f 65 28 67
f 29 34 30
f 29 31 34
f 38 71 72
f 39 35 32
f 73 71 38
f 32 33 40
f 39 32 40
f 33 30 34
f 33 34 40
f 40 34 41
f 31 36 41
f 34 31 41
f 47 38 72
f 75 47 72
f 73 38 47
f 73 47 76
f 35 39 42
f 42 39 48
f 40 49 39
f 49 48 39
f 37 43 49
f 37 49 41
f 41 49 40
f 36 37 41
f 44 53 50
f 47 75 77
f 48 45 42
f 47 77 76
f 51 53 44
f 46 45 48
f 49 46 48
f 43 46 49
f 55 79 81
f 50 53 52
f 55 82 79
f 51 52 53
f 54 59 56
f 55 81 83
f 55 83 82
f 54 57 59
f 56 59 58
f 57 58 59
f 68 86 92
f 68 62 60
f 68 60 86
f 86 60 87
f 63 69 88
f 63 88 60
f 60 88 87
f 70 64 61
f 93 88 69
f 61 65 70
f 68 92 94
f 62 68 94
f 62 94 66
f 66 94 95
f 69 63 66
f 69 66 96
f 96 66 95
f 64 70 67
f 69 96 93
f 65 67 70
f 71 74 72
f 71 73 74
f 74 78 75
f 72 74 75
f 73 76 78
f 74 73 78
f 80 102 103
f 102 80 104
f 75 78 77
f 76 77 78
f 80 103 105
f 104 80 105
f 79 84 81
f 79 82 84
f 81 84 83
f 82 83 84
f 85 108 109
f 108 85 110
f 89 111 114
f 109 111 89
f 109 89 85
f 85 89 90
f 112 110 85
f 112 85 91
f 91 85 90
f 112 91 115
f 97 89 114
f 121 97 114
f 86 98 92
f 90 97 116
f 90 89 97
f 97 122 116
f 91 90 117
f 90 116 117
f 99 86 87
f 99 98 86
f 87 88 100
f 87 100 99
f 117 115 91
f 88 93 100
f 97 121 123
f 92 98 94
f 97 123 122
f 95 94 98
f 99 95 98
f 96 95 99
f 100 96 99
f 93 96 100
f 101 126 128
f 126 101 129
f 101 128 130
f 129 101 130
f 102 106 103
f 104 106 102
f 107 132 133
f 132 107 134
f 103 106 105
f 107 133 135
f 104 105 106
f 134 107 135
f 108 113 109
f 108 110 113
f 111 118 114
f 111 109 113
f 111 113 118
f 118 113 119
f 110 112 120
f 110 120 113
f 113 120 119
f 112 115 120
f 124 137 138
f 121 114 118
f 121 118 125
f 139 137 124
f 116 122 125
f 116 125 119
f 119 125 118
f 117 116 119
f 120 117 119
f 115 117 120
f 127 124 138
f 141 127 138
f 124 127 142
f 124 142 139
f 125 123 121
f 122 123 125
f 126 131 128
f 127 141 143
f 127 143 142
f 126 129 131
f 128 131 130
f 129 130 131
f 132 136 133
f 132 134 136
f 133 136 135
f 134 135 136
f 137 140 138
f 137 139 140
f 140 144 141
f 138 140 141
f 139 142 144
f 140 139 144
f 141 144 143
f 142 143 144
f 145 147 149
f 145 146 148
f 147 145 148
f 148 146 150
f 145 149 151
f 146 145 151
f 152 146 151
f 150 146 152
f 147 153 149
f 147 148 154
f 153 147 154
f 148 150 154
f 149 153 151
f 152 151 153
f 154 152 153
f 150 152 154
