v -0.002902016 0.000806831 -0.00323
v -0.002837763 0.0007833756 -0.003237802
v -0.002770555 0.0007620754 -0.003237268
v -0.002720189 0.0007482102 -0.003226053
v -0.00332425 0.0008300201 -0.003147227
v -0.003248793 0.0007957395 -0.003168955
v -0.003261104 0.0008668914 -0.003149766
v -0.003188374 0.0007382883 -0.003173534
v -0.003178963 0.0007863414 -0.003186496
v -0.003169974 0.0008412781 -0.003177523
v -0.00298728 0.0008063789 -0.003212354
v -0.003104069 0.0007089016 -0.003175959
v -0.003101463 0.0007768998 -0.003195201
v -0.00290128 0.0007543237 -0.003228041
v -0.002928332 0.0008481385 -0.003211565
v -0.002995753 0.0007157507 -0.003195784
v -0.002897662 0.000891538 -0.003182249
v -0.002812019 0.0007271906 -0.003232767
v -0.002850546 0.0008395856 -0.003214963
v -0.002871964 0.0006852674 -0.003206825
v -0.002829951 0.0008853299 -0.003176582
v -0.002735648 0.0007141118 -0.003226388
v -0.002791004 0.0008056648 -0.003226527
v -0.002763475 0.0006614452 -0.003206123
v -0.00268661 0.0007166017 -0.003207784
v -0.002736605 0.000788667 -0.003216518
v -0.00268552 0.0007558638 -0.003196962
v -0.002692115 0.0006166088 -0.003180989
v -0.002678861 0.0006675937 -0.00319595
v -0.002641803 0.000624094 -0.003174314
v -0.003366048 0.0008149238 -0.003135545
v -0.003415882 0.000812603 -0.003097366
v -0.003433938 0.0008659786 -0.003072142
v -0.003335476 0.0007762056 -0.003138478
v -0.003373117 0.0008423516 -0.003127022
v -0.003341225 0.0008852591 -0.00311587
v -0.003391439 0.0007388027 -0.003093216
v -0.003398031 0.000865883 -0.003099667
v -0.003267164 0.0007416066 -0.003155475
v -0.00327714 0.0009200386 -0.003115459
v -0.003240018 0.0007002515 -0.003141864
v -0.003313205 0.0007108928 -0.003118726
v -0.00325435 0.0009661192 -0.003077822
v -0.003168208 0.0006750539 -0.003141342
v -0.003190333 0.0009253842 -0.003129123
v -0.003119749 0.0008903443 -0.003169029
v -0.003201775 0.0009771162 -0.003080537
v -0.003063098 0.0006470705 -0.003141697
v -0.003076067 0.0008501571 -0.003191886
v -0.002997023 0.0008932977 -0.003177088
v -0.003082414 0.0005948153 -0.003089206
v -0.003070677 0.0008936058 -0.003175537
v -0.002939124 0.0006351587 -0.003160875
v -0.00292548 0.000944084 -0.003136552
v -0.002999699 0.0005859199 -0.003103842
v -0.00293565 0.0009888569 -0.003092031
v -0.002826646 0.0006165512 -0.003172627
v -0.00284815 0.0009308523 -0.003133757
v -0.002788891 0.0009072534 -0.003136513
v -0.00288231 0.0005581126 -0.003114193
v -0.002747005 0.0006028633 -0.003175916
v -0.002762641 0.0008482424 -0.003179692
v -0.002700509 0.0005664807 -0.003152801
v -0.002745544 0.0004255472 -0.003070685
v -0.002794016 0.000491534 -0.003090351
v -0.002767431 0.0005531793 -0.003138352
v -0.002734825 0.0008965905 -0.003112347
v -0.002645361 0.0005818526 -0.003144963
v -0.002700954 0.0008040176 -0.0031793
v -0.002631231 0.0006964153 -0.003153585
v -0.002656047 0.0007759912 -0.003151239
v -0.002667444 0.0004799062 -0.003099209
v -0.002614523 0.0006118478 -0.003149196
v -0.002631141 0.000648681 -0.003174093
v -0.002619051 0.0006278926 -0.003167304
v -0.00255286 0.0002191873 -0.00305698
v -0.002569488 0.0002683539 -0.003066147
v -0.002572883 0.0003510074 -0.003064758
v -0.002561972 0.0004702994 -0.003055345
v -0.002610394 0.0006352001 -0.003150774
v -0.002525599 0.0002107404 -0.003050941
v -0.00252993 0.0002569803 -0.003059871
v -0.003480633 0.0008069483 -0.003040774
v -0.003465587 0.0008446396 -0.003051245
v -0.003527391 0.0007704134 -0.002986819
v -0.003458595 0.0007554541 -0.003052514
v -0.003461197 0.0008813682 -0.003028815
v -0.003429956 0.0007139352 -0.003056981
v -0.003480347 0.0006944811 -0.003003263
v -0.003376363 0.0006749147 -0.003056647
v -0.00340408 0.0009146268 -0.003049456
v -0.003326905 0.0009444572 -0.003072127
v -0.00342342 0.0006279371 -0.002987837
v -0.003363627 0.0009667595 -0.003020838
v -0.003256994 0.0006502946 -0.003089834
v -0.003303771 0.0009924871 -0.003019053
v -0.003324762 0.000606138 -0.003014809
v -0.003153639 0.0006192341 -0.003093773
v -0.003215004 0.001015321 -0.003018922
v -0.003134472 0.0005727152 -0.003049953
v -0.003142141 0.0009873122 -0.003076202
v -0.003217949 0.0005836798 -0.003033607
v -0.00306404 0.0005493624 -0.003047015
v -0.003083321 0.0009381788 -0.00313687
v -0.002996003 0.0009672599 -0.003114577
v -0.003058783 0.000997333 -0.003075358
v -0.00297123 0.0005256493 -0.003056083
v -0.002972519 0.00102725 -0.003038714
v -0.002910325 0.001010113 -0.003061954
v -0.00288548 0.0004880267 -0.003057736
v -0.002874896 0.0009806307 -0.003086081
v -0.002777138 0.0003794796 -0.00304213
v -0.002822552 0.0004343839 -0.003049109
v -0.002836887 0.0003005868 -0.002982614
v -0.002844841 0.000370862 -0.003008723
v -0.002888704 0.000435748 -0.003021588
v -0.002862353 0.001028465 -0.003015694
v -0.002863045 0.001069881 -0.002952306
v -0.002726805 0.0003654513 -0.003056005
v -0.002771931 0.0009616524 -0.003050872
v -0.002690485 0.0003945689 -0.00307563
v -0.002683397 0.0009069423 -0.003054149
v -0.002746425 0.0002933266 -0.003020591
v -0.002791506 0.00101768 -0.00299068
v -0.002808387 0.001049733 -0.002952907
v -0.00264242 0.0003702622 -0.003077205
v -0.002675197 0.0008426325 -0.003115094
v -0.002581603 0.0001916453 -0.003035198
v -0.002601019 0.0002361869 -0.003052958
v -0.002616635 0.000301439 -0.003066131
v -0.002580716 0.0005994974 -0.003084731
v -0.002585591 0.0006960102 -0.00308847
v -0.00260277 0.0007738696 -0.003080475
v -0.002647811 0.0001232448 -0.002975864
v -0.002654786 0.0001952609 -0.003013444
v -0.002656869 0.0002688147 -0.003046747
v -0.002678152 0.0003313514 -0.003060342
v -0.002602538 0.0008731597 -0.003013024
v -0.002546203 0.0001870957 -0.003036667
v -0.002542858 0.00052859 -0.00304418
v -0.002511554 0.0003831749 -0.003008154
v -0.002516622 0.0004926948 -0.003007577
v -0.002578589 0.000150727 -0.002985841
v -0.002524278 0.0005594222 -0.003015887
v -0.00255028 0.0008066144 -0.002996278
v -0.002549259 0.0008631712 -0.002965852
v -0.002558816 0.000899864 -0.002955979
v -0.002523818 0.000197263 -0.00302071
v -0.002518149 0.0003038125 -0.00304515
v -0.00251022 0.0002266214 -0.003044646
v -0.00250533 0.0002587169 -0.003043188
v -0.002502093 0.0002422145 -0.003012907
v -0.002500005 0.0002936728 -0.00301942
v -0.003579179 0.0007599643 -0.002936875
v -0.003618478 0.0007405108 -0.002888945
v -0.003563431 0.0007182495 -0.002947164
v -0.003581113 0.0008063671 -0.002906503
v -0.003540235 0.0006682095 -0.00294492
v -0.003509106 0.0008469946 -0.002984363
v -0.003604706 0.0006326148 -0.0028643
v -0.003600435 0.0006767506 -0.002896392
v -0.003493343 0.0006393672 -0.002957441
v -0.003466393 0.0009200193 -0.002957459
v -0.003465851 0.0005978626 -0.002933843
v -0.003406934 0.0009607932 -0.002981954
v -0.003540551 0.0006192629 -0.0029027
v -0.00338773 0.0005698277 -0.002944869
v -0.003359542 0.0009992246 -0.002958798
v -0.003281569 0.0005441962 -0.002963844
v -0.00328827 0.001034917 -0.002941292
v -0.003157033 0.0005175135 -0.002982259
v -0.003206231 0.001066671 -0.00292344
v -0.003135497 0.0003996604 -0.002888562
v -0.003171652 0.0004568968 -0.002917192
v -0.00313994 0.001094131 -0.002882802
v -0.003042768 0.0004927239 -0.002999451
v -0.003097836 0.00104937 -0.002988021
v -0.003056726 0.0003236418 -0.002883433
v -0.003058331 0.0003969067 -0.002920845
v -0.00309656 0.0004514859 -0.002943054
v -0.003044867 0.001091902 -0.002899979
v -0.002955817 0.0004661351 -0.00301251
v -0.00300028 0.00107193 -0.002964559
v -0.002875539 0.0002676749 -0.00295009
v -0.002905355 0.0003340511 -0.002962773
v -0.002933085 0.0004036679 -0.002983029
v -0.002925399 0.001069289 -0.002967901
v -0.002988753 0.0002314115 -0.002876824
v -0.002948759 0.0002852119 -0.002920201
v -0.002986765 0.0003650627 -0.002937224
v -0.003012695 0.0004322499 -0.002963928
v -0.002966972 0.001090621 -0.002914291
v -0.002808569 0.0002334597 -0.002969459
v -0.002901881 0.001089139 -0.002905385
v -0.002873311 0.000183896 -0.0029149
v -0.002738745 0.0002006948 -0.002987552
v -0.002835094 0.001078177 -0.002908392
v -0.002680714 0.00008254089 -0.002942332
v -0.00270917 0.0001349269 -0.00296764
v -0.002736668 0.001008133 -0.002934804
v -0.002785669 0.001055884 -0.002905447
v -0.002739218 -0.00001345833 -0.002865008
v -0.002763485 0.00007834202 -0.002911432
v -0.002778365 0.0001625561 -0.002952715
v -0.002629749 0.00008659864 -0.00294664
v -0.002645621 0.0009395957 -0.002964034
v -0.002542438 0.0007130388 -0.003019975
v -0.002582838 0.0009160502 -0.002960117
v -0.002694937 -0.00004716428 -0.002854095
v -0.002664258 0.00002602608 -0.002888536
v -0.002593427 0.00008950788 -0.002916541
v -0.002502842 0.000633673 -0.002969885
v -0.002505144 0.0007667594 -0.002948766
v -0.002560443 0.0009180598 -0.002943347
v -0.002552017 0.0001409939 -0.002924687
v -0.002519572 0.0002072676 -0.002953362
v -0.002492588 0.000306374 -0.002958228
v -0.002481306 0.0003978278 -0.002936087
v -0.002484283 0.0004777185 -0.002943362
v -0.002493987 0.0005500698 -0.002959902
v -0.00252223 0.0008304938 -0.002943287
v -0.002532473 0.000881309 -0.002920945
v -0.002550278 0.0009109665 -0.00293531
v -0.002561583 0.000112703 -0.002880802
v -0.002495985 0.0007078645 -0.002957333
v -0.002567141 0.0009186239 -0.002925579
v -0.002450895 0.0007140661 -0.002888221
v -0.002514688 0.000871294 -0.002880986
v -0.002410766 0.0007129019 -0.002856018
v -0.002402999 0.0007229514 -0.002855891
v -0.003664675 0.0007299889 -0.002823419
v -0.003647337 0.0007001827 -0.00285788
v -0.003641027 0.0007834904 -0.002827483
v -0.003630284 0.0006232099 -0.002826168
v -0.00364357 0.0006614678 -0.002845547
v -0.003662821 0.0006480088 -0.002793185
v -0.003669306 0.0006886926 -0.002818291
v -0.00357678 0.0005875742 -0.002838486
v -0.003603664 0.0008448176 -0.00281016
v -0.003539658 0.00088209 -0.002882641
v -0.003471224 0.000544514 -0.002867895
v -0.00348659 0.0009462758 -0.002843468
v -0.003420153 0.0009808966 -0.002903655
v -0.003469768 0.0004795537 -0.002800255
v -0.003351242 0.0005108772 -0.002896463
v -0.003353904 0.001029152 -0.002868737
v -0.003385582 0.0004225052 -0.002793894
v -0.003399868 0.0004803567 -0.0028414
v -0.003248943 0.0004840482 -0.002912392
v -0.0032751 0.001073727 -0.002846147
v -0.00319055 0.0003861483 -0.002853861
v -0.003219082 0.0004252309 -0.002871469
v -0.003209586 0.001096378 -0.002853519
v -0.003253297 0.000369401 -0.002817242
v -0.003310817 0.0004487506 -0.002853732
v -0.003235239 0.001102578 -0.002805633
v -0.003151276 0.000344079 -0.002847568
v -0.003178782 0.00111067 -0.002808918
v -0.003109207 0.0003004665 -0.002844737
v -0.003157548 0.0002750611 -0.002808749
v -0.003068113 0.0002527169 -0.002844315
v -0.003094734 0.001108138 -0.002816863
v -0.003022088 0.0002010774 -0.002845967
v -0.003070445 0.0001789273 -0.00280857
v -0.002959208 0.0001414746 -0.002851836
v -0.002972485 0.001094218 -0.002823269
v -0.002943403 -0.000004535252 -0.002775735
v -0.002998112 0.00008021732 -0.002798979
v -0.002937755 0.001076219 -0.002766642
v -0.002967805 0.001182663 -0.002752277
v -0.002861033 0.00008690953 -0.002875716
v -0.002867524 0.001086405 -0.002855468
v -0.002778294 -0.00003547365 -0.002837758
v -0.002811386 0.00001202911 -0.002856584
v -0.002834894 -0.00004414871 -0.00279599
v -0.002900413 0.00004070994 -0.002829335
v -0.002887277 0.001074292 -0.002796182
v -0.002736681 -0.0000632235 -0.002815109
v -0.00280956 0.001071436 -0.00287063
v -0.002697051 -0.00006969447 -0.002838889
v -0.00270135 0.0009909378 -0.00286172
v -0.002761277 0.001034973 -0.002857156
v -0.002781318 -0.00008747826 -0.002767227
v -0.002820086 0.001062014 -0.002824645
v -0.002683178 -0.0000646871 -0.002844672
v -0.002659796 0.0009648572 -0.002891877
v -0.002667489 -0.00003763656 -0.002844326
v -0.002637707 0.000005757223 -0.002832316
v -0.002596976 0.00006589267 -0.002845409
v -0.002686503 -0.00006170268 -0.002822602
v -0.002556012 0.0001221132 -0.002834251
v -0.002590945 0.0009229049 -0.002879865
v -0.002529389 0.0001788673 -0.002863983
v -0.002496415 0.0002764822 -0.002872099
v -0.002473984 0.0003749885 -0.002874297
v -0.002466365 0.0004611114 -0.002880563
v -0.002459476 0.0005932106 -0.002853176
v -0.002495648 0.0008148838 -0.002887433
v -0.002539522 0.0001688144 -0.002792567
v -0.002518675 0.0008165852 -0.002821392
v -0.002574101 0.0008866091 -0.002829336
v -0.002429707 0.0006905651 -0.002851848
v -0.002450388 0.0007555925 -0.002851635
v -0.002512101 0.0008571305 -0.002858824
v -0.002538825 0.0008981775 -0.002885172
v -0.002415093 0.0007314361 -0.002856288
v -0.002520441 0.0008817029 -0.00286634
v -0.002438504 0.0005507548 -0.002771331
v -0.002449448 0.0007162475 -0.002823769
v -0.002537429 0.0008815119 -0.002853547
v -0.002410708 0.0007130693 -0.002842303
v -0.002397615 0.0007285923 -0.002848934
v -0.002396524 0.0007200441 -0.002846639
v -0.002394197 0.0007256729 -0.002845487
v -0.002425391 0.0005627269 -0.002732616
v -0.002404477 0.0007219588 -0.002838956
v -0.002410845 0.0007308663 -0.002842822
v -0.003671515 0.0006236802 -0.00271995
v -0.003684162 0.000698934 -0.002756873
v -0.003674754 0.0007569402 -0.002772181
v -0.0036269 0.0005896666 -0.002778691
v -0.00365315 0.0008056239 -0.002745249
v -0.003552621 0.0005239704 -0.002782454
v -0.003609091 0.0008630042 -0.002709632
v -0.003515323 0.0004752278 -0.002764451
v -0.003552212 0.0009064403 -0.002775766
v -0.003547936 0.0004643021 -0.002721227
v -0.003473067 0.0004366827 -0.002754707
v -0.0034873 0.0009607293 -0.002733805
v -0.003424097 0.0003973779 -0.002749186
v -0.003420626 0.001001029 -0.002799493
v -0.003474589 0.000383877 -0.002701608
v -0.003353086 0.0003460099 -0.002748303
v -0.003337236 0.001052381 -0.00275943
v -0.003272755 0.001090453 -0.002772285
v -0.00339219 0.000287741 -0.002677665
v -0.003250696 0.0002988592 -0.002772552
v -0.003224089 0.001106739 -0.002752804
v -0.003205082 0.0002404083 -0.002762643
v -0.003302697 0.0001967139 -0.002670124
v -0.003281818 0.0002563409 -0.002727136
v -0.003148434 0.0002047825 -0.002776117
v -0.003155433 0.001111087 -0.002746372
v -0.003122824 0.000164237 -0.002770082
v -0.003186833 0.0001594702 -0.002725852
v -0.0030869 0.0001110041 -0.002763172
v -0.003072946 0.001099457 -0.002740596
v -0.00298758 -0.0000362338 -0.002727256
v -0.003031405 0.00002742025 -0.002747739
v -0.002992688 0.001059601 -0.002710057
v -0.00296781 0.001182663 -0.002752272
v -0.003053822 -0.00008408011 -0.002645532
v -0.003062072 -0.0000283341 -0.00268672
v -0.003114606 0.00005863239 -0.002712836
v -0.002915206 -0.00006714911 -0.00273044
v -0.002905082 0.001045633 -0.00273852
v -0.002967805 0.001182658 -0.002752272
v -0.002967805 0.001182668 -0.002752272
v -0.0029678 0.001182663 -0.002752272
v -0.002991111 -0.00008496393 -0.002674608
v -0.00292967 0.001007849 -0.00268625
v -0.002967805 0.001182663 -0.002752267
v -0.002829582 -0.00009088493 -0.002719398
v -0.002835587 0.00103415 -0.002769299
v -0.002787024 -0.000101172 -0.002747335
v -0.002915872 -0.000104502 -0.002663189
v -0.002855741 0.0009815545 -0.002707565
v -0.002770638 -0.0000985939 -0.002752267
v -0.002780646 0.001024767 -0.002800925
v -0.002748058 -0.00007767087 -0.002744167
v -0.002723951 0.000982709 -0.002806155
v -0.002780014 -0.00009543896 -0.002730747
v -0.002731216 0.0008342447 -0.002678534
v -0.002787079 0.0009129965 -0.002698327
v -0.002778051 0.0009775771 -0.00275354
v -0.002697014 -0.00005028626 -0.002768283
v -0.00264569 0.0009342775 -0.002825977
v -0.002657887 -0.00002563168 -0.002797645
v -0.002618412 0.00004118807 -0.002767142
v -0.002572042 0.0001132863 -0.002774255
v -0.002564029 0.0008057591 -0.002768005
v -0.002600123 0.0008585328 -0.002782023
v -0.00266094 -0.000001860879 -0.002729333
v -0.002633072 0.00005215241 -0.002692333
v -0.002622403 0.0007913683 -0.002716968
v -0.002696384 0.0009015455 -0.002749225
v -0.002548874 0.0001903833 -0.002713741
v -0.002529022 0.0007507388 -0.002763801
v -0.002512131 0.0002609954 -0.002767883
v -0.002480918 0.0003535496 -0.002797659
v -0.002456167 0.0004692306 -0.002787361
v -0.002487883 0.0006654133 -0.0027616
v -0.002556152 0.0007036474 -0.00270567
v -0.002432716 0.0005272579 -0.002739524
v -0.002451581 0.0005960213 -0.002744881
v -0.002452008 0.0004989624 -0.002698354
v -0.00242761 0.0005471701 -0.002709869
v -0.002428286 0.0005774385 -0.002717537
v -0.002419364 0.0005659687 -0.002715045
v -0.002428974 0.0005670062 -0.00270207
v -0.003683412 0.0005860247 -0.002618628
v -0.003695943 0.0006793187 -0.002659859
v -0.003684558 0.0007519061 -0.002695529
v -0.003623052 0.0005340148 -0.00270324
v -0.003653831 0.0008107386 -0.002645962
v -0.003597646 0.0004746279 -0.002677095
v -0.003631319 0.0004760036 -0.002617957
v -0.003563742 0.0004251603 -0.002662333
v -0.003598974 0.000867872 -0.002607706
v -0.00352892 0.0003790988 -0.002652285
v -0.003547843 0.0009162397 -0.002670214
v -0.003573488 0.0003740395 -0.002597036
v -0.003490613 0.0003331145 -0.002642148
v -0.003473711 0.0009599937 -0.002629511
v -0.003450231 0.0002735877 -0.0026223
v -0.003411008 0.00100664 -0.002690953
v -0.003513417 0.0002976872 -0.002590009
v -0.00338889 0.0002165452 -0.002620802
v -0.003326172 0.001041311 -0.002645611
v -0.003326285 0.0001350489 -0.002601856
v -0.003274172 0.001083547 -0.002707517
v -0.003244402 0.0001160152 -0.002654271
v -0.003209909 0.001097891 -0.002690136
v -0.003245021 0.0000163897 -0.002572205
v -0.003266185 0.00007454797 -0.002603904
v -0.003254896 0.001072128 -0.002646075
v -0.003179445 0.00007814728 -0.002678595
v -0.003141204 0.001095564 -0.002681263
v -0.0030725 -0.0001047317 -0.002606794
v -0.003114854 -0.00006302735 -0.002617317
v -0.003144156 0.00001007601 -0.002656474
v -0.003184745 -0.00002002154 -0.002595879
v -0.003210261 0.00004560511 -0.002629578
v -0.003195128 0.001072869 -0.002629237
v -0.003029326 -0.0001110575 -0.002625697
v -0.003079314 0.001079213 -0.002675104
v -0.00298815 0.0009800214 -0.002629631
v -0.003061396 0.001037807 -0.002631304
v -0.00312739 0.001064737 -0.002626467
v -0.002981767 -0.0001210491 -0.00261659
v -0.002908915 0.0009473716 -0.00265131
v -0.002931644 0.00083248 -0.002567937
v -0.002945005 0.0009071603 -0.002605011
v -0.002927788 -0.0001232743 -0.002598474
v -0.002850015 0.000916159 -0.00266401
v -0.002864439 -0.00009848372 -0.002617578
v -0.002772874 0.0007902024 -0.002626561
v -0.002812363 0.0008550027 -0.002646539
v -0.002903179 -0.0001162182 -0.002574817
v -0.002884735 0.0007514504 -0.002543021
v -0.00284444 0.0008015002 -0.002596027
v -0.002883028 0.0008765543 -0.002621278
v -0.002782404 -0.00007079584 -0.002667573
v -0.00269681 0.0007535283 -0.00264379
v -0.002713241 -0.00002436805 -0.002677753
v -0.002667963 0.00003066487 -0.002656837
v -0.002753089 -0.00001988008 -0.002601665
v -0.002775456 0.0007134792 -0.002572242
v -0.002641567 0.00009019823 -0.002619467
v -0.002621901 0.0007183057 -0.00266447
v -0.002595223 0.0001203653 -0.002681389
v -0.002583614 0.0006659321 -0.002652623
v -0.002697947 0.0006302432 -0.002549616
v -0.002658657 0.0006794248 -0.002612773
v -0.002568758 0.0002125731 -0.002617559
v -0.002511455 0.0006287426 -0.002686706
v -0.002531412 0.000282741 -0.002647714
v -0.002492266 0.0003949729 -0.002681941
v -0.002583632 0.0006000692 -0.002602334
v -0.002483019 0.00047998 -0.002644089
v -0.002454933 0.0005846663 -0.002695863
v -0.002467217 0.0005159527 -0.002657606
v -0.002454752 0.0005481348 -0.002675523
v -0.002507522 0.0005295729 -0.002619297
v -0.002496484 0.0005796722 -0.00265438
v -0.00368796 0.0005119749 -0.002517043
v -0.003707615 0.0006059771 -0.002529179
v -0.00370565 0.000660459 -0.002576717
v -0.003689366 0.0007384903 -0.002584603
v -0.003644045 0.000425246 -0.002541444
v -0.003637843 0.0008102047 -0.002531678
v -0.003621344 0.0003467953 -0.00250329
v -0.00367963 0.0007500865 -0.002492771
v -0.003564778 0.0003110427 -0.002549773
v -0.003574926 0.0008658404 -0.002523624
v -0.00352943 0.0002648962 -0.002543585
v -0.003529656 0.0009118104 -0.002572381
v -0.003578962 0.0002367119 -0.002452235
v -0.003575351 0.0002749645 -0.002499797
v -0.003465252 0.0002285217 -0.002567517
v -0.00344324 0.0009423881 -0.002532726
v -0.003395828 0.0009939775 -0.002595613
v -0.003524152 0.0002144819 -0.002493963
v -0.003401216 0.0001700939 -0.002568714
v -0.003331806 0.001008965 -0.002569742
v -0.003278429 -0.00001303041 -0.002504982
v -0.003308499 0.00005737536 -0.002548389
v -0.003379211 0.0001068324 -0.002527236
v -0.003451173 0.0001598367 -0.002510398
v -0.00336916 0.0009750351 -0.002533568
v -0.003221313 -0.00003862185 -0.002537445
v -0.003256498 0.001031141 -0.002581945
v -0.003299952 0.0009775619 -0.002520325
v -0.003170204 -0.00007514277 -0.002548847
v -0.003172081 0.001032371 -0.002578447
v -0.003113408 -0.0001069002 -0.002563003
v -0.00315644 -0.0001079302 -0.00251355
v -0.003204494 0.0009718381 -0.00252307
v -0.003049791 -0.000126476 -0.002570145
v -0.00311268 0.001026688 -0.002588631
v -0.002987104 0.0008281982 -0.002534148
v -0.003010995 0.0008946122 -0.002558958
v -0.003069517 0.0009783265 -0.002576362
v -0.003043805 0.0008142392 -0.002492903
v -0.00311242 0.0009160367 -0.002516723
v -0.003133915 0.0009898158 -0.002552126
v -0.002986059 -0.0001327731 -0.002550883
v -0.002961595 0.0007773706 -0.002518375
v -0.002932746 -0.0001242366 -0.00255329
v -0.002929049 0.0007189556 -0.002497987
v -0.002960519 -0.0001219458 -0.002513291
v -0.002991736 0.0007343472 -0.002473076
v -0.002901901 -0.00009289668 -0.002522067
v -0.002861741 0.0006807662 -0.002503673
v -0.002815129 -0.00004747996 -0.002558009
v -0.002765258 0.000005779901 -0.00253762
v -0.002783429 0.0006355942 -0.002506187
v -0.00271046 0.00005512532 -0.002557277
v -0.002731784 0.0005929143 -0.002496157
v -0.002761117 0.00004020723 -0.002495909
v -0.002782301 0.0005906267 -0.002466342
v -0.002655306 0.0001318782 -0.002544774
v -0.002661248 0.0005642107 -0.002515316
v -0.002611466 0.0001636147 -0.002581913
v -0.002637389 0.0001896086 -0.002510411
v -0.002596053 0.0002429905 -0.002524385
v -0.002580802 0.0005190922 -0.002543065
v -0.002556592 0.0002823694 -0.002565118
v -0.002540088 0.0003609081 -0.00255006
v -0.002529224 0.0004536671 -0.002573608
v -0.002559339 0.0003829789 -0.002482437
v -0.003706763 0.0004835082 -0.002400609
v -0.003711081 0.0005823615 -0.002443063
v -0.003704945 0.0006763123 -0.002489607
v -0.003676523 0.0004191635 -0.002463337
v -0.003678971 0.0007213159 -0.002418665
v -0.003604498 0.0002258434 -0.002389321
v -0.003620489 0.0002840552 -0.002437367
v -0.003664761 0.0003477976 -0.00241785
v -0.003645937 0.00077753 -0.002445426
v -0.003694644 0.0004047684 -0.002392315
v -0.003557908 0.0001949281 -0.002427008
v -0.003570761 0.0008235789 -0.00243103
v -0.003508522 0.0008896152 -0.002487207
v -0.003504509 0.0001493427 -0.002434993
v -0.003438839 0.0009049479 -0.002464675
v -0.003468635 0.0008593877 -0.002419792
v -0.00343332 0.0000923889 -0.00245156
v -0.003363475 0.00092908 -0.002477041
v -0.003309678 -0.00003955751 -0.002439226
v -0.003357285 0.00002784127 -0.002466033
v -0.003353069 -0.00006709277 -0.002345283
v -0.003368168 -0.00002648241 -0.002382219
v -0.003416575 0.00003522575 -0.002397196
v -0.003386257 0.0008245415 -0.002376748
v -0.003396806 0.0008818737 -0.002428279
v -0.003222887 -0.00008371634 -0.002458689
v -0.003266854 0.00092173 -0.002470985
v -0.00315659 -0.000115165 -0.0024827
v -0.003311379 -0.00007851135 -0.002382043
v -0.003268214 0.0007971177 -0.002381506
v -0.003318222 0.0008714272 -0.002424062
v -0.003111189 -0.0001248094 -0.002513461
v -0.003188982 0.0009042769 -0.002476826
v -0.003100202 0.000781711 -0.002441975
v -0.00313917 0.0008439436 -0.002459946
v -0.003129377 -0.0001151501 -0.002447223
v -0.003193257 0.0007350134 -0.002367515
v -0.003170196 0.0007889082 -0.002412696
v -0.003224727 0.000856203 -0.002434155
v -0.003055861 -0.000132081 -0.002503954
v -0.003051192 0.0007475754 -0.002447947
v -0.003007195 -0.0001280332 -0.002492572
v -0.003022519 0.0006986905 -0.002430847
v -0.003053635 -0.0001189412 -0.002450584
v -0.003101656 0.0007204789 -0.00240233
v -0.002987814 -0.00009812796 -0.002445933
v -0.002943723 0.0006662037 -0.00244889
v -0.002920093 -0.00005356081 -0.002428516
v -0.002851368 0.0006138421 -0.002452123
v -0.002859345 -0.00004082957 -0.002478234
v -0.002808593 0.00001093086 -0.002469758
v -0.002808226 0.000568016 -0.002432133
v -0.002871141 -0.000006816687 -0.002411344
v -0.002840792 0.0000422678 -0.002388277
v -0.002857033 0.0005687875 -0.002408584
v -0.002778155 0.00009300903 -0.00241753
v -0.002738189 0.0005457058 -0.002450081
v -0.002696897 0.0001645526 -0.002458278
v -0.002701794 0.0003913142 -0.002369027
v -0.00264917 0.0002454756 -0.00245198
v -0.002649115 0.0004947194 -0.002464216
v -0.002579396 0.0003750135 -0.002452885
v -0.002659135 0.0003235432 -0.002404858
v -0.002623212 0.0003882253 -0.002422693
v -0.002669769 0.0004401933 -0.00240905
v -0.002609766 0.0002941154 -0.0024623
v -0.002563918 0.0003556651 -0.002481961
v -0.002580567 0.0004011018 -0.002456362
v -0.002580397 0.0004655472 -0.002502247
v -0.002571919 0.0003134919 -0.002501226
v -0.002560563 0.000417798 -0.002498124
v -0.002596254 0.0003424507 -0.002449273
v -0.00260616 0.0004359128 -0.002453757
v -0.003702981 0.0004225645 -0.00232369
v -0.003711434 0.0004871623 -0.002328811
v -0.003707772 0.0005556729 -0.002338511
v -0.003700397 0.0006464739 -0.002387503
v -0.003686485 0.0003585 -0.002354044
v -0.003669486 0.0006916934 -0.00234544
v -0.003625607 0.0002113061 -0.002308719
v -0.003653588 0.0002864962 -0.002348877
v -0.003627228 0.0007532443 -0.0023633
v -0.003637842 0.0001977831 -0.002254501
v -0.003690933 0.000563353 -0.002263865
v -0.003682059 0.0006271467 -0.002301861
v -0.003565185 0.0001602442 -0.002352785
v -0.003568707 0.0007844321 -0.002347073
v -0.00348549 0.00008627459 -0.002360432
v -0.003492654 0.0008034043 -0.002352098
v -0.003354183 -0.00006759229 -0.002306237
v -0.003381929 -0.00004062183 -0.002324281
v -0.003427901 0.00001357991 -0.002320328
v -0.003418016 0.0007758507 -0.002322431
v -0.003486745 0.00006323769 -0.00228094
v -0.003471264 0.0007191243 -0.002249843
v -0.003475193 0.0007562661 -0.002289337
v -0.003331464 -0.00008773195 -0.002335977
v -0.003332365 0.0007576669 -0.002330641
v -0.003314912 -0.00008842697 -0.002309141
v -0.003396363 0.0007173797 -0.002275179
v -0.003304116 -0.0000984345 -0.002344879
v -0.003255178 0.0007358328 -0.002341376
v -0.003267643 -0.00009840998 -0.002373978
v -0.003216835 0.0007042815 -0.002335446
v -0.003276062 -0.000099179 -0.002332717
v -0.003269533 0.0006812924 -0.002297183
v -0.003207608 -0.00009443178 -0.002360285
v -0.003154327 0.0006649939 -0.002337402
v -0.003195349 0.0006085781 -0.002277068
v -0.003090602 -0.00008580654 -0.002369789
v -0.003027614 0.0006376712 -0.002380847
v -0.003085813 0.0005725723 -0.00230055
v -0.002994571 -0.00004556046 -0.002352102
v -0.002922768 0.0005966958 -0.002400887
v -0.002924952 -0.00001697728 -0.002366595
v -0.002896474 0.00002631253 -0.002341623
v -0.002890113 0.0005456405 -0.002372348
v -0.00295787 0.000004295283 -0.002308662
v -0.0029348 0.00004918535 -0.002280361
v -0.00295113 0.0004323725 -0.002251666
v -0.003002802 0.0005006519 -0.002281193
v -0.002968963 0.000555815 -0.002343128
v -0.002870738 0.00008996997 -0.002306826
v -0.002813988 0.0005225179 -0.00238935
v -0.002755025 0.0003849347 -0.002330457
v -0.002829781 0.0003888719 -0.002291271
v -0.002891013 0.0004862431 -0.002323961
v -0.002816466 0.0001611712 -0.00230456
v -0.002740454 0.0003415545 -0.002338566
v -0.002758634 0.0004133077 -0.002338184
v -0.002729542 0.0004841751 -0.002401945
v -0.002756273 0.0001810905 -0.002367149
v -0.002722464 0.0002555499 -0.002369325
v -0.002727719 0.0004385035 -0.002369572
v -0.002790411 0.0002287164 -0.002296454
v -0.002794603 0.0002991894 -0.00228841
v -0.002790088 0.0004566076 -0.002349372
v -0.00363293 0.0001794806 -0.002238633
v -0.00368977 0.0004038812 -0.002252109
v -0.003696578 0.0004865032 -0.002259434
v -0.003605847 0.0001645341 -0.002264283
v -0.003636995 0.000199945 -0.002225365
v -0.003681371 0.0003432909 -0.002287527
v -0.003675022 0.0005379848 -0.002213357
v -0.003648558 0.0002574948 -0.002245963
v -0.003657741 0.0005984656 -0.002225982
v -0.003624067 0.0006842902 -0.00227066
v -0.003590289 0.0007481992 -0.002305341
v -0.003618265 0.0001757284 -0.002220428
v -0.003667184 0.0004921646 -0.002188549
v -0.003542729 0.0001138657 -0.002279857
v -0.003539423 0.0007635254 -0.002298741
v -0.003511847 0.00008851499 -0.002220209
v -0.003500446 0.0007019094 -0.002228982
v -0.003519699 0.0007284789 -0.00225352
v -0.003546475 0.0006723513 -0.002210062
v -0.003567993 0.0007251204 -0.002263956
v -0.003443903 0.0000357132 -0.002228749
v -0.003455096 0.0006681245 -0.002215618
v -0.00338811 -0.00002446941 -0.002271336
v -0.003503171 0.0006098016 -0.002158012
v -0.003331781 -0.00005410767 -0.002261403
v -0.003347816 0.0006400294 -0.002233645
v -0.003365465 0.00000200199 -0.002198368
v -0.003362183 0.00004392505 -0.002136256
v -0.003410393 0.0005899834 -0.002173103
v -0.003268187 -0.00007671655 -0.002287692
v -0.003265576 0.0006141297 -0.002249393
v -0.003230571 0.0005800136 -0.002239991
v -0.003251071 0.0004330303 -0.002118557
v -0.003291943 0.0005574893 -0.002196355
v -0.003182059 -0.00005262243 -0.002268991
v -0.003176883 0.0005392676 -0.0022329
v -0.003130845 0.000003003218 -0.002204981
v -0.003130878 0.00005645429 -0.002149744
v -0.00318007 0.000423845 -0.002140062
v -0.003229361 0.0004829122 -0.002166147
v -0.003077901 -0.00003455982 -0.002281654
v -0.003086367 0.0005063074 -0.00224713
v -0.003015005 -0.000009945394 -0.00228154
v -0.002996341 0.00003164654 -0.002247709
v -0.003011715 0.000400991 -0.0021951
v -0.003043925 0.0004527996 -0.00222226
v -0.003055103 0.000006063383 -0.002236658
v -0.003058817 0.00005134113 -0.002190959
v -0.003091677 0.0004094054 -0.00216545
v -0.003132617 0.0004687126 -0.002195979
v -0.002967832 0.00009578808 -0.002213446
v -0.002940185 0.0003638511 -0.002206069
v -0.002889086 0.0001609051 -0.002220296
v -0.002869752 0.0003145538 -0.002222575
v -0.002842475 0.0002099158 -0.002234838
v -0.002838025 0.000261157 -0.002232174
v -0.002878342 0.0002055374 -0.002189694
v -0.003667687 0.0004280131 -0.002194493
v -0.003661823 0.000347974 -0.002210635
v -0.003633772 0.0004644758 -0.002148294
v -0.003605975 0.0002133484 -0.002182222
v -0.003624092 0.0002917545 -0.00217039
v -0.003629909 0.0005413286 -0.002154429
v -0.003608601 0.0006172595 -0.002182129
v -0.003614081 0.0003792158 -0.002137073
v -0.00356977 0.0001455355 -0.002206736
v -0.003567481 0.0006061688 -0.002142919
v -0.003518397 0.0001184497 -0.002166686
v -0.003547738 0.0005626705 -0.002114051
v -0.003538047 0.0001754161 -0.002135941
v -0.003553003 0.0002765743 -0.00210082
v -0.003552962 0.0003747573 -0.002079783
v -0.003559841 0.0004808259 -0.002098318
v -0.003477002 0.00008079463 -0.00217359
v -0.003479365 0.0005394063 -0.00212069
v -0.003419614 0.00005974024 -0.002153787
v -0.003465876 0.0001227845 -0.002117968
v -0.003477317 0.0001981318 -0.002074045
v -0.003378031 0.00009797631 -0.002095522
v -0.0033817 0.0005115349 -0.002128309
v -0.003309555 0.00001821261 -0.002150722
v -0.00332126 0.00006117324 -0.002109525
v -0.003287598 0.0004076873 -0.002085563
v -0.003417924 0.0001540278 -0.002066768
v -0.003347172 0.0004168249 -0.002072137
v -0.003390112 0.0004567226 -0.002085971
v -0.003277224 -0.00002950322 -0.002212918
v -0.003234705 0.0003860538 -0.002090593
v -0.003299708 0.0004367283 -0.00210218
v -0.003302713 0.000496079 -0.002145929
v -0.003209986 -0.00001290781 -0.002194083
v -0.003197156 0.00002845991 -0.002149938
v -0.00328212 0.0004625455 -0.002128765
v -0.003253215 0.000006820642 -0.002159818
v -0.003260763 0.00004915657 -0.002119489
v -0.00333362 0.0004637945 -0.002109536
v -0.003189238 0.00008516847 -0.002108441
v -0.003151021 0.0003651307 -0.002107881
v -0.00307777 0.0001227897 -0.00212603
v -0.003043173 0.0003463938 -0.002139905
v -0.003029635 0.0001989062 -0.002099998
v -0.002967281 0.0001650007 -0.002154586
v -0.002952047 0.0002973091 -0.002154809
v -0.002912143 0.0001941173 -0.002167016
v -0.002948652 0.0002135819 -0.002135285
v -0.00298694 0.0002477842 -0.002113728
v -0.002901303 0.0002209062 -0.002161036
v -0.002886032 0.0002726792 -0.002185254
v -0.002872628 0.0002373953 -0.002187867
v -0.002920067 0.0002491508 -0.002151042
v -0.003599556 0.000578013 -0.00212486
v -0.003595982 0.0005450179 -0.002107147
v -0.003580363 0.0005750378 -0.002108034
v -0.003498535 0.0003346977 -0.002045657
v -0.003512394 0.0004064012 -0.002054803
v -0.00350579 0.0004459684 -0.002064414
v -0.003578677 0.0005481848 -0.002097539
v -0.00359214 0.0005644933 -0.002100904
v -0.003463215 0.0002652367 -0.002036703
v -0.003461442 0.0004692643 -0.002081011
v -0.003385976 0.0003664824 -0.002034764
v -0.00342161 0.0004188167 -0.0020547
v -0.00342416 0.0003143733 -0.002015776
v -0.003456506 0.0003772773 -0.002035369
v -0.003474893 0.0004240909 -0.0020513
v -0.003395129 0.0002114687 -0.002031146
v -0.003306908 0.0003671692 -0.002053866
v -0.003352984 0.0001533191 -0.002053194
v -0.003282171 0.0001122622 -0.002077169
v -0.003235786 0.0003219831 -0.00205275
v -0.003277062 0.0002015139 -0.002035864
v -0.003282783 0.0002679622 -0.002022638
v -0.003182398 0.0001514791 -0.002070666
v -0.003129058 0.0003047114 -0.002077989
v -0.003106698 0.0001804507 -0.002074445
v -0.003160386 0.0002105248 -0.002050055
v -0.003199192 0.0002596265 -0.002042431
v -0.003089545 0.0002172426 -0.002065315
v -0.003042654 0.0002821409 -0.002098609
v -0.003049358 0.0002405358 -0.002080517
v -0.003110251 0.0002528384 -0.002061603
v -0.003390358 0.0002903919 -0.001998753
v -0.00340313 0.0002674575 -0.002005077
v -0.003345993 0.000306662 -0.002014929
v -0.003349178 0.0002542382 -0.002008519
v -0.003375191 0.0002783274 -0.001997201
f 1 11 14
f 11 1 15
f 2 1 14
f 18 2 14
f 19 15 1
f 2 19 1
f 3 2 18
f 22 3 18
f 23 19 2
f 3 23 2
f 4 3 22
f 25 4 22
f 26 23 3
f 4 26 3
f 4 25 27
f 26 4 27
f 5 31 34
f 31 5 35
f 6 5 34
f 39 6 34
f 36 35 5
f 36 5 7
f 7 5 6
f 36 7 40
f 8 41 44
f 39 41 8
f 39 8 6
f 6 8 9
f 7 6 10
f 10 6 9
f 45 40 7
f 10 45 7
f 12 8 44
f 48 12 44
f 9 8 13
f 13 8 12
f 49 46 10
f 49 10 13
f 13 10 9
f 45 10 46
f 16 12 48
f 53 16 48
f 11 16 14
f 11 13 16
f 13 12 16
f 15 17 50
f 11 15 50
f 11 50 49
f 11 49 13
f 50 17 54
f 20 16 53
f 57 20 53
f 14 20 18
f 16 20 14
f 17 19 21
f 15 19 17
f 58 54 17
f 21 58 17
f 24 20 57
f 61 24 57
f 18 24 22
f 20 24 18
f 21 62 59
f 21 19 62
f 19 23 62
f 58 21 59
f 28 63 68
f 61 63 28
f 61 28 24
f 24 28 29
f 22 29 25
f 24 29 22
f 23 26 62
f 62 26 69
f 30 28 68
f 73 30 68
f 74 70 29
f 74 29 30
f 30 29 28
f 25 29 70
f 25 70 27
f 27 70 71
f 69 26 27
f 71 69 27
f 30 73 75
f 74 30 75
f 32 83 86
f 32 33 84
f 83 32 84
f 84 33 87
f 37 88 90
f 86 88 37
f 32 86 37
f 32 37 34
f 32 34 31
f 35 32 31
f 35 38 32
f 38 33 32
f 91 87 33
f 38 91 33
f 42 37 90
f 95 42 90
f 34 42 39
f 37 42 34
f 35 36 38
f 40 43 92
f 36 40 92
f 36 92 91
f 36 91 38
f 92 43 96
f 41 42 95
f 41 95 44
f 44 95 98
f 39 42 41
f 43 45 47
f 40 45 43
f 99 96 43
f 47 99 43
f 51 100 103
f 51 98 100
f 51 48 98
f 48 44 98
f 46 49 52
f 46 52 104
f 45 46 104
f 45 104 101
f 45 101 47
f 99 47 101
f 55 51 103
f 107 55 103
f 48 55 53
f 51 55 48
f 49 50 52
f 54 56 105
f 50 54 105
f 50 105 104
f 50 104 52
f 105 56 108
f 60 55 107
f 110 60 107
f 53 60 57
f 55 60 53
f 56 111 109
f 56 54 111
f 54 58 111
f 108 56 109
f 64 112 119
f 64 65 113
f 112 64 113
f 110 113 65
f 110 65 60
f 60 65 66
f 57 66 61
f 60 66 57
f 59 62 67
f 59 67 120
f 59 120 58
f 58 120 111
f 64 119 121
f 121 126 72
f 121 72 64
f 64 72 65
f 63 72 68
f 63 66 72
f 66 65 72
f 61 66 63
f 67 127 122
f 67 62 127
f 62 69 127
f 120 67 122
f 76 128 139
f 76 77 129
f 128 76 129
f 77 78 130
f 129 77 130
f 126 130 78
f 126 78 72
f 72 78 79
f 79 131 72
f 79 140 131
f 72 131 68
f 80 73 131
f 68 131 73
f 80 70 74
f 80 131 70
f 131 132 70
f 71 70 133
f 70 132 133
f 127 69 71
f 133 127 71
f 81 76 139
f 148 81 139
f 77 76 82
f 82 76 81
f 149 141 78
f 149 78 82
f 82 78 77
f 79 78 141
f 142 79 141
f 73 80 75
f 79 142 140
f 74 75 80
f 81 148 150
f 82 81 150
f 151 82 150
f 149 82 151
f 85 154 156
f 154 85 157
f 89 158 162
f 156 158 89
f 85 156 89
f 85 89 86
f 85 86 83
f 85 159 157
f 85 83 159
f 83 84 159
f 159 84 87
f 163 159 87
f 93 164 167
f 162 164 93
f 89 162 93
f 89 93 90
f 89 90 88
f 86 89 88
f 165 91 94
f 165 163 91
f 163 87 91
f 165 94 168
f 97 93 167
f 169 97 167
f 90 97 95
f 93 97 90
f 91 92 94
f 94 92 96
f 94 96 168
f 168 96 170
f 102 97 169
f 171 102 169
f 95 102 98
f 97 102 95
f 96 99 170
f 170 99 172
f 100 102 171
f 100 171 103
f 103 171 176
f 98 102 100
f 101 104 106
f 101 106 177
f 101 177 99
f 99 177 172
f 103 176 107
f 176 182 107
f 104 105 106
f 106 105 108
f 106 108 177
f 177 108 183
f 114 184 193
f 114 115 185
f 184 114 185
f 115 116 186
f 185 115 186
f 116 182 186
f 116 110 182
f 110 107 182
f 109 111 117
f 187 183 108
f 187 108 117
f 187 117 118
f 117 108 109
f 187 118 194
f 123 114 193
f 196 123 193
f 112 123 119
f 112 115 123
f 115 114 123
f 113 115 112
f 116 115 113
f 110 116 113
f 117 120 124
f 111 120 117
f 118 117 125
f 125 117 124
f 197 194 118
f 125 197 118
f 134 198 205
f 134 135 199
f 198 134 199
f 196 199 135
f 196 135 123
f 123 135 136
f 119 137 121
f 119 123 137
f 123 136 137
f 121 137 126
f 122 127 138
f 122 138 206
f 120 122 206
f 120 206 200
f 120 200 124
f 125 124 200
f 201 125 200
f 197 125 201
f 143 134 205
f 211 143 205
f 128 143 139
f 128 135 143
f 135 134 143
f 129 135 128
f 136 135 129
f 130 136 129
f 137 136 130
f 126 137 130
f 131 140 144
f 212 131 144
f 212 207 131
f 207 132 131
f 145 207 213
f 145 133 207
f 133 132 207
f 133 138 127
f 133 145 138
f 145 146 138
f 208 206 138
f 208 138 147
f 147 138 146
f 208 147 214
f 143 211 215
f 143 148 139
f 143 216 148
f 143 215 216
f 152 148 216
f 152 217 153
f 216 217 152
f 153 141 149
f 153 217 141
f 217 218 141
f 142 141 219
f 141 218 219
f 144 140 142
f 144 142 220
f 220 142 219
f 212 144 220
f 145 213 221
f 146 145 221
f 222 146 221
f 147 146 222
f 223 147 222
f 214 147 223
f 148 152 150
f 151 150 152
f 153 151 152
f 149 151 153
f 155 231 232
f 231 155 233
f 160 234 238
f 160 161 235
f 234 160 235
f 232 235 161
f 155 232 161
f 155 161 156
f 155 156 154
f 155 154 157
f 155 157 233
f 233 157 239
f 166 160 238
f 241 166 238
f 158 166 162
f 158 161 166
f 161 160 166
f 156 161 158
f 157 240 239
f 159 240 157
f 240 159 163
f 242 240 163
f 164 166 241
f 164 241 167
f 167 241 245
f 162 166 164
f 163 243 242
f 165 243 163
f 243 165 168
f 246 243 168
f 167 245 169
f 245 249 169
f 168 170 246
f 246 170 250
f 173 251 257
f 173 174 252
f 251 173 252
f 174 249 252
f 174 171 249
f 171 169 249
f 253 172 175
f 253 250 172
f 250 170 172
f 253 175 258
f 178 259 261
f 257 259 178
f 257 178 173
f 173 178 179
f 174 173 180
f 180 173 179
f 171 180 176
f 174 180 171
f 175 177 181
f 172 177 175
f 262 258 175
f 181 262 175
f 188 263 265
f 261 263 188
f 261 188 178
f 178 188 189
f 179 178 190
f 190 178 189
f 180 179 191
f 191 179 190
f 176 191 182
f 180 191 176
f 181 183 192
f 177 183 181
f 266 262 181
f 192 266 181
f 195 188 265
f 271 195 265
f 184 195 193
f 184 189 195
f 189 188 195
f 185 189 184
f 190 189 185
f 186 190 185
f 191 190 186
f 182 191 186
f 183 187 192
f 192 187 194
f 192 194 266
f 266 194 272
f 202 273 278
f 202 203 274
f 273 202 274
f 271 274 203
f 271 203 195
f 195 203 204
f 193 204 196
f 195 204 193
f 194 197 272
f 272 197 279
f 209 280 285
f 278 280 209
f 278 209 202
f 202 209 210
f 198 210 205
f 198 203 210
f 203 202 210
f 199 203 198
f 204 203 199
f 196 204 199
f 200 286 281
f 206 286 200
f 201 200 282
f 200 281 282
f 279 197 201
f 282 279 201
f 209 285 287
f 210 209 287
f 288 210 287
f 210 211 205
f 210 289 211
f 210 288 289
f 224 211 289
f 289 291 224
f 207 212 225
f 207 225 213
f 226 206 208
f 226 292 206
f 292 286 206
f 208 214 226
f 211 224 215
f 224 291 293
f 224 293 215
f 215 293 216
f 217 216 294
f 216 293 294
f 218 217 295
f 217 294 295
f 219 218 296
f 218 295 296
f 220 219 297
f 219 296 297
f 212 220 297
f 212 297 227
f 212 227 225
f 302 227 297
f 213 225 227
f 213 227 298
f 213 298 221
f 298 227 303
f 228 298 304
f 228 222 298
f 222 221 298
f 226 305 292
f 226 222 305
f 226 223 222
f 228 305 222
f 214 223 226
f 229 227 302
f 311 229 302
f 306 303 227
f 306 227 230
f 230 227 229
f 304 307 228
f 306 230 312
f 305 228 307
f 229 311 313
f 230 229 313
f 314 230 313
f 312 230 314
f 236 318 321
f 236 237 319
f 318 236 319
f 237 232 231
f 237 231 319
f 319 231 320
f 320 231 233
f 322 320 233
f 234 236 321
f 234 321 238
f 238 321 323
f 235 236 234
f 237 236 235
f 232 237 235
f 233 239 322
f 322 239 324
f 244 325 328
f 244 323 325
f 244 241 323
f 241 238 323
f 239 326 324
f 240 326 239
f 326 240 242
f 329 326 242
f 247 330 333
f 328 330 247
f 328 247 244
f 244 247 248
f 241 248 245
f 244 248 241
f 242 331 329
f 243 331 242
f 331 243 246
f 334 331 246
f 254 247 333
f 337 254 333
f 248 247 255
f 255 247 254
f 245 255 249
f 248 255 245
f 335 250 256
f 335 334 250
f 334 246 250
f 335 256 338
f 260 339 342
f 337 339 260
f 254 337 260
f 254 260 257
f 254 257 251
f 252 254 251
f 255 254 252
f 249 255 252
f 250 253 256
f 256 253 258
f 256 258 338
f 338 258 343
f 264 344 346
f 342 344 264
f 260 342 264
f 260 264 261
f 260 261 259
f 257 260 259
f 258 262 343
f 343 262 347
f 267 348 355
f 267 268 349
f 348 267 349
f 346 349 268
f 264 346 268
f 264 268 265
f 264 265 263
f 261 264 263
f 269 356 350
f 351 357 270
f 347 266 350
f 347 262 266
f 266 269 350
f 351 270 358
f 275 267 355
f 363 275 355
f 268 267 276
f 276 267 275
f 265 276 271
f 268 276 265
f 277 356 269
f 364 356 277
f 266 272 277
f 266 277 269
f 357 359 270
f 358 270 359
f 283 365 368
f 363 365 283
f 275 363 283
f 275 283 278
f 275 278 273
f 274 275 273
f 276 275 274
f 271 276 274
f 284 364 277
f 369 364 284
f 272 279 284
f 277 272 284
f 280 290 285
f 283 368 370
f 370 278 283
f 370 376 278
f 280 278 290
f 290 278 376
f 281 377 371
f 286 377 281
f 369 284 282
f 369 282 371
f 371 282 281
f 279 282 284
f 285 290 287
f 290 376 378
f 290 378 287
f 287 378 288
f 289 288 379
f 288 378 379
f 291 380 299
f 291 289 380
f 289 379 380
f 380 387 299
f 300 388 381
f 300 382 301
f 381 382 300
f 301 382 377
f 301 377 292
f 292 377 286
f 291 299 293
f 299 387 389
f 299 389 293
f 293 389 294
f 295 294 390
f 294 389 390
f 296 295 391
f 295 390 391
f 308 391 394
f 308 297 391
f 297 296 391
f 395 297 308
f 395 392 297
f 302 297 309
f 309 297 392
f 388 309 392
f 300 309 388
f 300 303 309
f 300 298 303
f 304 298 300
f 304 300 310
f 310 300 301
f 292 305 310
f 301 292 310
f 315 308 394
f 397 315 394
f 395 308 315
f 395 315 398
f 302 309 311
f 311 309 316
f 303 306 317
f 303 317 309
f 309 317 316
f 307 304 310
f 312 317 306
f 305 307 310
f 315 397 399
f 311 316 313
f 315 399 398
f 314 313 316
f 317 314 316
f 312 314 317
f 318 401 404
f 321 318 404
f 319 402 318
f 318 402 401
f 320 403 319
f 319 403 402
f 403 320 322
f 405 403 322
f 327 406 408
f 327 404 406
f 327 323 404
f 323 321 404
f 322 324 405
f 405 324 409
f 332 410 413
f 408 410 332
f 327 408 332
f 327 332 328
f 327 328 325
f 323 327 325
f 324 411 409
f 326 411 324
f 411 326 329
f 414 411 329
f 336 415 418
f 413 415 336
f 332 413 336
f 332 336 333
f 332 333 330
f 328 332 330
f 329 416 414
f 331 416 329
f 416 331 334
f 419 416 334
f 340 420 422
f 418 420 340
f 418 340 336
f 336 340 341
f 333 341 337
f 336 341 333
f 334 421 419
f 335 421 334
f 421 335 338
f 423 421 338
f 345 340 422
f 427 345 422
f 339 345 342
f 339 341 345
f 341 340 345
f 337 341 339
f 338 343 423
f 423 343 428
f 352 429 435
f 352 353 430
f 429 352 430
f 353 354 431
f 430 353 431
f 427 431 354
f 345 427 354
f 345 354 346
f 345 346 344
f 342 345 344
f 343 347 428
f 428 347 436
f 360 352 435
f 440 360 435
f 348 360 355
f 348 353 360
f 353 352 360
f 349 353 348
f 354 353 349
f 346 354 349
f 361 441 437
f 361 350 356
f 361 437 350
f 437 438 350
f 350 438 436
f 350 436 347
f 351 362 357
f 351 358 362
f 366 360 440
f 444 366 440
f 355 366 363
f 360 366 355
f 367 441 361
f 445 441 367
f 356 364 367
f 361 356 367
f 357 362 359
f 358 359 362
f 365 372 368
f 366 444 446
f 446 363 366
f 446 453 363
f 365 363 372
f 372 363 453
f 373 454 447
f 373 448 374
f 447 448 373
f 445 374 448
f 445 367 374
f 367 375 374
f 364 369 375
f 367 364 375
f 368 372 370
f 376 455 383
f 370 455 376
f 370 453 455
f 370 372 453
f 383 456 384
f 455 456 383
f 456 459 384
f 385 454 373
f 460 454 385
f 374 386 373
f 386 385 373
f 371 377 386
f 371 386 375
f 375 386 374
f 369 371 375
f 376 383 378
f 379 378 383
f 384 379 383
f 384 459 461
f 384 461 379
f 379 461 380
f 461 387 380
f 465 387 461
f 393 466 462
f 460 393 462
f 385 393 460
f 385 388 393
f 385 381 388
f 382 381 385
f 386 382 385
f 377 382 386
f 387 465 467
f 389 387 467
f 390 389 468
f 389 467 468
f 396 468 470
f 396 391 468
f 391 390 468
f 391 396 394
f 392 466 393
f 392 395 466
f 395 471 466
f 388 392 393
f 396 470 472
f 396 397 394
f 396 473 397
f 396 472 473
f 400 397 473
f 400 473 471
f 400 471 398
f 398 471 395
f 397 400 399
f 398 399 400
f 407 476 480
f 407 404 401
f 407 401 476
f 476 401 477
f 402 478 401
f 401 478 477
f 403 479 402
f 402 479 478
f 479 403 405
f 481 479 405
f 412 482 484
f 480 482 412
f 407 480 412
f 407 412 408
f 407 408 406
f 404 407 406
f 405 409 481
f 481 409 485
f 417 486 490
f 484 486 417
f 412 484 417
f 412 417 413
f 412 413 410
f 408 412 410
f 409 487 485
f 411 487 409
f 487 411 414
f 491 487 414
f 415 417 490
f 415 490 418
f 418 490 494
f 413 417 415
f 414 492 491
f 416 492 414
f 492 416 419
f 495 492 419
f 424 496 501
f 424 425 497
f 496 424 497
f 425 422 420
f 425 420 497
f 497 420 498
f 494 420 418
f 498 420 494
f 426 419 421
f 426 502 419
f 502 495 419
f 421 423 426
f 432 424 501
f 504 432 501
f 425 424 433
f 433 424 432
f 422 433 427
f 425 433 422
f 434 502 426
f 505 502 434
f 423 428 434
f 426 423 434
f 429 506 509
f 435 429 509
f 504 430 432
f 504 506 430
f 506 429 430
f 431 432 430
f 433 432 431
f 427 433 431
f 439 505 434
f 510 505 439
f 428 436 439
f 434 428 439
f 435 509 440
f 509 517 440
f 442 518 511
f 442 512 443
f 511 512 442
f 443 437 441
f 443 512 437
f 512 513 437
f 510 439 438
f 510 438 513
f 513 438 437
f 436 438 439
f 519 449 444
f 519 444 517
f 517 444 440
f 519 523 449
f 450 524 520
f 518 450 520
f 518 442 450
f 442 451 450
f 443 452 442
f 452 451 442
f 441 445 452
f 443 441 452
f 444 449 446
f 453 525 457
f 446 525 453
f 446 523 525
f 446 449 523
f 525 526 457
f 458 524 450
f 527 524 458
f 447 454 458
f 447 458 451
f 451 458 450
f 448 447 451
f 452 448 451
f 445 448 452
f 453 457 455
f 457 526 528
f 457 528 455
f 455 528 456
f 528 459 456
f 532 459 528
f 463 533 529
f 527 463 529
f 527 458 463
f 458 464 463
f 454 460 464
f 458 454 464
f 459 532 534
f 461 459 534
f 534 465 461
f 536 465 534
f 469 533 463
f 537 533 469
f 462 466 469
f 462 469 464
f 464 469 463
f 460 462 464
f 465 536 538
f 467 465 538
f 468 467 539
f 467 538 539
f 470 540 474
f 470 468 540
f 468 539 540
f 537 474 540
f 537 469 474
f 469 475 474
f 466 471 475
f 469 466 475
f 470 474 472
f 473 472 474
f 475 473 474
f 471 473 475
f 476 542 545
f 480 476 545
f 477 543 476
f 476 543 542
f 478 544 477
f 477 544 543
f 483 546 544
f 483 544 479
f 479 544 478
f 479 481 483
f 488 547 552
f 488 489 548
f 547 488 548
f 489 484 482
f 489 482 548
f 548 482 549
f 545 482 480
f 549 482 545
f 483 550 546
f 550 483 481
f 550 481 553
f 553 481 485
f 493 488 552
f 555 493 552
f 486 493 490
f 486 489 493
f 489 488 493
f 484 489 486
f 485 554 553
f 487 554 485
f 554 487 491
f 556 554 491
f 499 493 555
f 558 499 555
f 490 499 494
f 493 499 490
f 500 491 492
f 500 559 491
f 559 556 491
f 492 495 500
f 496 560 567
f 501 496 567
f 497 561 496
f 496 561 560
f 558 498 499
f 558 561 498
f 561 497 498
f 494 499 498
f 503 559 500
f 568 559 503
f 495 502 503
f 500 495 503
f 507 569 573
f 507 567 569
f 507 504 567
f 504 501 567
f 508 568 503
f 574 568 508
f 502 505 508
f 503 502 508
f 506 507 573
f 506 573 509
f 509 573 581
f 504 507 506
f 514 582 575
f 514 576 515
f 575 576 514
f 574 515 576
f 574 508 515
f 508 516 515
f 505 510 516
f 508 505 516
f 583 521 517
f 583 517 581
f 581 517 509
f 583 587 521
f 522 588 584
f 582 522 584
f 514 522 582
f 514 518 522
f 514 511 518
f 512 511 514
f 515 512 514
f 513 512 515
f 516 513 515
f 510 513 516
f 517 521 519
f 521 523 519
f 521 587 523
f 587 589 523
f 520 588 522
f 520 524 588
f 524 590 588
f 518 520 522
f 523 589 591
f 525 523 591
f 526 592 530
f 526 525 592
f 525 591 592
f 592 597 530
f 531 598 593
f 531 593 590
f 531 590 527
f 527 590 524
f 526 530 528
f 532 599 535
f 528 599 532
f 528 597 599
f 528 530 597
f 599 601 535
f 529 598 531
f 529 533 598
f 533 602 598
f 527 529 531
f 532 535 534
f 535 536 534
f 535 601 536
f 601 607 536
f 541 608 603
f 603 609 541
f 533 537 602
f 602 537 610
f 536 607 611
f 538 536 611
f 608 541 539
f 608 539 611
f 611 539 538
f 541 609 612
f 541 612 539
f 539 612 540
f 610 537 540
f 612 610 540
f 551 615 619
f 551 545 542
f 551 542 615
f 615 542 616
f 543 617 542
f 542 617 616
f 544 618 543
f 543 618 617
f 618 544 546
f 620 618 546
f 547 621 627
f 552 547 627
f 548 622 547
f 547 622 621
f 619 549 551
f 619 622 549
f 622 548 549
f 545 551 549
f 546 623 620
f 550 623 546
f 623 550 553
f 628 623 553
f 552 627 555
f 627 629 555
f 557 553 554
f 557 630 553
f 630 628 553
f 554 556 557
f 562 631 638
f 562 563 632
f 631 562 632
f 563 564 633
f 632 563 633
f 564 629 633
f 564 558 629
f 558 555 629
f 565 639 634
f 630 565 634
f 630 557 565
f 557 566 565
f 556 559 566
f 557 556 566
f 570 562 638
f 642 570 638
f 560 570 567
f 560 563 570
f 563 562 570
f 561 563 560
f 564 563 561
f 558 564 561
f 571 639 565
f 643 639 571
f 566 572 565
f 572 571 565
f 559 568 572
f 566 559 572
f 569 577 573
f 570 642 644
f 644 567 570
f 644 648 567
f 569 567 577
f 577 567 648
f 578 649 645
f 643 578 645
f 643 571 578
f 571 579 578
f 572 580 571
f 580 579 571
f 568 574 580
f 572 568 580
f 577 585 581
f 573 577 581
f 651 577 648
f 585 577 651
f 586 649 578
f 652 649 586
f 575 582 586
f 575 586 579
f 579 586 578
f 576 575 579
f 580 576 579
f 574 576 580
f 581 585 583
f 585 587 583
f 585 651 587
f 651 654 587
f 584 652 586
f 584 588 652
f 588 655 652
f 582 584 586
f 656 594 589
f 656 589 654
f 654 589 587
f 594 657 595
f 656 657 594
f 657 664 595
f 596 665 658
f 596 658 655
f 596 655 590
f 590 655 588
f 589 594 591
f 592 591 594
f 595 592 594
f 595 597 592
f 595 664 597
f 664 669 597
f 600 670 666
f 666 671 600
f 593 665 596
f 593 598 665
f 598 672 665
f 590 593 596
f 597 669 673
f 599 597 673
f 601 674 604
f 601 599 674
f 599 673 674
f 670 604 674
f 670 600 604
f 600 605 604
f 675 600 671
f 675 606 600
f 606 605 600
f 606 675 672
f 606 672 602
f 602 672 598
f 604 613 607
f 601 604 607
f 603 608 613
f 603 613 605
f 605 613 604
f 609 603 605
f 609 605 614
f 614 605 606
f 602 610 614
f 606 602 614
f 607 613 611
f 608 611 613
f 609 614 612
f 610 612 614
f 624 679 682
f 679 624 683
f 615 680 684
f 619 615 684
f 616 681 615
f 615 681 680
f 625 685 681
f 625 681 617
f 617 681 616
f 617 618 626
f 625 617 626
f 618 620 626
f 621 624 682
f 621 682 627
f 627 682 692
f 624 686 683
f 624 621 686
f 621 622 686
f 684 622 619
f 686 622 684
f 625 687 685
f 626 687 625
f 688 687 626
f 620 688 626
f 620 623 688
f 623 689 688
f 689 623 628
f 693 689 628
f 635 694 699
f 635 692 694
f 635 629 692
f 629 627 692
f 636 700 695
f 636 696 637
f 695 696 636
f 637 696 693
f 637 693 630
f 630 693 628
f 631 640 638
f 703 640 631
f 703 631 701
f 701 631 632
f 699 633 635
f 699 701 633
f 701 632 633
f 629 635 633
f 641 700 636
f 704 700 641
f 634 639 641
f 634 641 637
f 637 641 636
f 630 634 637
f 640 646 642
f 638 640 642
f 708 640 703
f 646 640 708
f 647 704 641
f 709 704 647
f 639 643 647
f 641 639 647
f 642 646 644
f 646 648 644
f 646 708 648
f 708 713 648
f 650 714 710
f 709 650 710
f 647 650 709
f 647 649 650
f 647 645 649
f 643 645 647
f 648 713 651
f 713 719 651
f 653 714 650
f 720 714 653
f 649 652 653
f 650 649 653
f 721 659 654
f 721 654 719
f 719 654 651
f 659 722 660
f 721 722 659
f 722 729 660
f 661 730 723
f 661 724 662
f 723 724 661
f 720 662 724
f 720 653 662
f 653 663 662
f 652 655 663
f 653 652 663
f 654 659 656
f 657 656 659
f 660 657 659
f 660 664 657
f 660 729 664
f 729 731 664
f 667 730 661
f 732 730 667
f 662 668 661
f 668 667 661
f 658 665 668
f 658 668 663
f 663 668 662
f 655 658 663
f 733 676 669
f 733 669 731
f 731 669 664
f 676 734 677
f 733 734 676
f 732 677 734
f 667 677 732
f 667 670 677
f 667 666 670
f 671 666 667
f 671 667 678
f 678 667 668
f 665 672 678
f 668 665 678
f 669 676 673
f 674 673 676
f 677 674 676
f 670 674 677
f 671 678 675
f 672 675 678
f 679 690 682
f 679 683 690
f 680 736 737
f 684 680 737
f 691 738 736
f 691 736 681
f 681 736 680
f 681 685 691
f 690 739 744
f 690 744 682
f 682 744 692
f 683 739 690
f 683 686 739
f 686 740 739
f 737 686 684
f 740 686 737
f 691 741 738
f 685 741 691
f 685 687 741
f 687 742 741
f 697 745 742
f 697 742 688
f 688 742 687
f 688 689 698
f 697 688 698
f 689 693 698
f 694 746 752
f 699 694 752
f 744 694 692
f 746 694 744
f 702 753 747
f 745 702 747
f 697 702 745
f 697 700 702
f 697 695 700
f 696 695 697
f 698 696 697
f 693 696 698
f 701 705 703
f 754 699 752
f 754 705 699
f 754 706 705
f 705 701 699
f 754 757 706
f 707 753 702
f 758 753 707
f 700 704 707
f 702 700 707
f 705 759 765
f 705 765 703
f 703 765 708
f 706 759 705
f 760 759 706
f 757 760 706
f 711 766 761
f 761 767 711
f 712 758 707
f 768 758 712
f 704 709 712
f 707 704 712
f 769 715 713
f 769 713 765
f 765 713 708
f 715 770 716
f 769 770 715
f 770 775 716
f 717 766 711
f 776 766 717
f 771 711 767
f 771 718 711
f 718 717 711
f 768 718 771
f 712 718 768
f 712 714 718
f 712 710 714
f 709 710 712
f 715 725 719
f 713 715 719
f 716 726 715
f 726 725 715
f 777 716 775
f 726 716 777
f 727 776 717
f 778 776 727
f 718 728 717
f 728 727 717
f 714 720 728
f 718 714 728
f 719 725 721
f 722 721 725
f 726 722 725
f 726 729 722
f 726 777 729
f 777 780 729
f 723 778 727
f 723 730 778
f 730 781 778
f 724 723 727
f 728 724 727
f 720 724 728
f 782 735 731
f 782 731 780
f 780 731 729
f 782 785 735
f 730 732 781
f 781 732 786
f 731 735 733
f 735 785 787
f 735 787 733
f 733 787 734
f 786 732 734
f 787 786 734
f 736 743 737
f 736 738 743
f 739 748 744
f 739 740 749
f 748 739 749
f 740 737 743
f 740 743 749
f 749 743 750
f 738 741 751
f 738 751 743
f 743 751 750
f 790 751 741
f 790 741 789
f 789 741 742
f 789 742 745
f 791 789 745
f 746 755 752
f 746 744 748
f 746 748 755
f 755 748 756
f 797 749 792
f 797 756 749
f 756 748 749
f 750 792 749
f 793 792 750
f 751 793 750
f 794 793 751
f 798 751 753
f 798 794 751
f 753 751 747
f 790 795 751
f 747 751 795
f 791 745 747
f 795 791 747
f 752 755 754
f 757 754 755
f 757 755 762
f 762 755 756
f 804 756 797
f 762 756 804
f 763 805 799
f 763 800 764
f 799 800 763
f 764 800 798
f 764 798 758
f 758 798 753
f 759 772 765
f 759 760 773
f 772 759 773
f 760 807 773
f 757 807 760
f 757 806 807
f 757 762 806
f 804 806 762
f 761 805 763
f 761 766 805
f 766 808 805
f 767 761 763
f 767 763 774
f 774 763 764
f 758 768 774
f 764 758 774
f 765 772 769
f 770 769 772
f 773 770 772
f 773 775 770
f 773 807 775
f 807 811 775
f 766 776 808
f 808 776 812
f 767 774 771
f 768 771 774
f 813 779 777
f 813 777 811
f 811 777 775
f 813 816 779
f 776 778 812
f 812 778 817
f 779 783 780
f 777 779 780
f 818 779 816
f 818 784 779
f 784 783 779
f 784 818 817
f 784 817 781
f 781 817 778
f 780 783 782
f 785 782 783
f 785 783 788
f 788 783 784
f 781 786 788
f 784 781 788
f 785 788 787
f 786 787 788
f 789 796 790
f 789 791 796
f 792 801 797
f 792 793 802
f 801 792 802
f 793 794 803
f 802 793 803
f 795 790 796
f 798 803 794
f 791 795 796
f 801 820 821
f 801 821 797
f 797 821 804
f 799 805 822
f 799 822 801
f 799 801 802
f 801 822 820
f 800 799 802
f 803 800 802
f 798 800 803
f 806 809 807
f 823 804 821
f 823 809 804
f 823 810 809
f 809 806 804
f 810 823 822
f 810 822 808
f 808 822 805
f 809 814 811
f 807 809 811
f 810 815 809
f 815 814 809
f 808 812 815
f 810 808 815
f 811 814 813
f 816 813 814
f 816 814 819
f 819 814 815
f 812 817 819
f 815 812 819
f 816 819 818
f 817 818 819
f 820 824 821
f 820 822 824
f 821 824 823
f 822 823 824
